<svg xmlns="http://www.w3.org/2000/svg" viewBox="0 0 500 500"><g id="freepik--Floor--inject-4"><path id="freepik--floor--inject-4" d="M78.76,446.25c-94.57-54.6-94.57-143.13,0-197.73s247.91-54.6,342.48,0,94.57,143.13,0,197.73S173.33,500.85,78.76,446.25Z" style="fill:#f5f5f5"></path></g><g id="freepik--Shadows--inject-4"><ellipse id="freepik--Shadow--inject-4" cx="413.17" cy="393.87" rx="53.83" ry="31.08" style="fill:#e0e0e0"></ellipse><path id="freepik--shadow--inject-4" d="M295,399.8l-90.32-52.15c-2.27-1.31-2.27-3.44,0-4.75l141.56-81.73a9.09,9.09,0,0,1,8.22,0l90.32,52.15c2.27,1.31,2.27,3.44,0,4.75L303.19,399.8A9.09,9.09,0,0,1,295,399.8Z" style="fill:#e0e0e0"></path><path id="freepik--shadow--inject-4" d="M127.09,426.68a3.86,3.86,0,0,1-3.74-3.09l-.87-4.58a49.32,49.32,0,0,1-5.81-1.43h-.15l-8.06,3.74a4.75,4.75,0,0,1-4.16-.19l-8-4.64a3.18,3.18,0,0,1-.27-5.44l4.86-3.5a17.65,17.65,0,0,1-1.21-1.84l-10.24-.64A3.67,3.67,0,0,1,86,401.42v-6a3.67,3.67,0,0,1,3.43-3.66l10.24-.65a17.53,17.53,0,0,1,1.21-1.83L96,385.81a3.18,3.18,0,0,1,.27-5.44l8-4.64a4.57,4.57,0,0,1,2.28-.58,4.42,4.42,0,0,1,1.88.39l8.07,3.74h.1s0,0,0,0a50,50,0,0,1,5.88-1.44l.87-4.58a3.85,3.85,0,0,1,3.74-3.09H138.9a3.86,3.86,0,0,1,3.74,3.09l.87,4.58a51.2,51.2,0,0,1,5.8,1.42h.15l8.07-3.74a4.41,4.41,0,0,1,1.87-.39,4.58,4.58,0,0,1,2.29.58l8,4.64a3.19,3.19,0,0,1,.28,5.44l-4.87,3.5a18.77,18.77,0,0,1,1.22,1.83l10.24.65a3.67,3.67,0,0,1,3.43,3.66v6a3.68,3.68,0,0,1-3.43,3.66l-10.24.64a17.75,17.75,0,0,1-1.22,1.84l4.87,3.5a3.19,3.19,0,0,1-.28,5.44l-8,4.64a4.69,4.69,0,0,1-2.29.58,4.57,4.57,0,0,1-1.87-.39l-8.07-3.74h-.1s0,0,0,0a49.85,49.85,0,0,1-5.87,1.45l-.87,4.57a3.86,3.86,0,0,1-3.74,3.1ZM133,393a24.93,24.93,0,0,0-12.27,2.9c-2.75,1.59-4.33,3.62-4.33,5.59s1.58,4,4.33,5.59a27.43,27.43,0,0,0,24.55,0c2.75-1.59,4.32-3.62,4.32-5.59s-1.57-4-4.32-5.59A25,25,0,0,0,133,393Z" style="fill:#e0e0e0"></path><path id="freepik--shadow--inject-4" d="M218.08,433.45a3.13,3.13,0,0,1-.75-.08l-8.59-2.06a3,3,0,0,1-2.05-1.65,3.16,3.16,0,0,1,.06-2.78l1.31-2.59a23.66,23.66,0,0,1-2.25-1.38l-7.73,1.3a3.87,3.87,0,0,1-3.66-1.34s-2.38-3.35-3.33-4.66a3,3,0,0,1-.5-2.62,2.66,2.66,0,0,1,.26-.6l.06-.1a3.42,3.42,0,0,1,1.86-1.4l6-1.88a5.61,5.61,0,0,1,0-.58l-6.15-1.95a2.92,2.92,0,0,1-2-2.27l-.06-.15v-.41a3.25,3.25,0,0,1,.64-1.92l3.11-4.33a4,4,0,0,1,3.15-1.64,3.31,3.31,0,0,1,.55,0l7.86,1.32h0c.52-.37,1.12-.74,1.75-1.11l.46-.25-1.4-2.76a2.91,2.91,0,0,1-.3-1.33,3.16,3.16,0,0,1,2.54-3l8.25-2a4.46,4.46,0,0,1,1-.11,3.71,3.71,0,0,1,2.72,1.07l3.58,3.77c.78-.05,1.62-.07,2.45-.07s1.72,0,2.59.07l3.38-3.56a4.25,4.25,0,0,1,3-1.3,3.42,3.42,0,0,1,.79.1l8.56,2a3,3,0,0,1,2.32,2.57l0,.12v.35a3.36,3.36,0,0,1-.37,1.43l-1.29,2.56.41.22c.64.37,1.26.76,1.83,1.15l7.73-1.3a3.86,3.86,0,0,1,3.66,1.35l3.43,4.77a2.85,2.85,0,0,1,.53,1.66v.16a3.19,3.19,0,0,1-2.34,2.79L255.19,411v.58l6.13,1.94a2.94,2.94,0,0,1,2.08,2.82,3.41,3.41,0,0,1-.61,1.9l-3.14,4.37a4,4,0,0,1-3.15,1.64,3.43,3.43,0,0,1-.56,0l-7.85-1.33h0a23.87,23.87,0,0,1-2.22,1.37l1.39,2.76a2.87,2.87,0,0,1,0,2.51,3.3,3.3,0,0,1-2.25,1.79l-8.28,2a4,4,0,0,1-1,.12,3.72,3.72,0,0,1-2.71-1.07l-3.59-3.77c-.79,0-1.65.07-2.5.07s-1.68,0-2.53-.07l-3.38,3.55A4.21,4.21,0,0,1,218.08,433.45ZM215.37,409l-.21.25a3.74,3.74,0,0,0-.22.32c0,.05-.16.26-.16.26a2.87,2.87,0,0,0,.26,3.35,6.56,6.56,0,0,0,1.5,1.47,8.27,8.27,0,0,0,1.05.69,19.56,19.56,0,0,0,9.37,2.18,22.69,22.69,0,0,0,5.19-.59,16,16,0,0,0,4.18-1.59,10.4,10.4,0,0,0,1-.66,6.56,6.56,0,0,0,1.71-1.76v0l.21-.37.08-.21a2.86,2.86,0,0,0-.48-2.9c-1.86-2.6-6.65-4.34-11.92-4.34a22.06,22.06,0,0,0-5.18.6,12.93,12.93,0,0,0-6.14,3.06Z" style="fill:#e0e0e0"></path><path id="freepik--shadow--inject-4" d="M216.28,263.78l-3.35-1.93a9.09,9.09,0,0,0-8.22,0L27.86,364c-2.26,1.3-2.26,3.44,0,4.74l3.34,1.93a9.11,9.11,0,0,0,8.23,0l53.72-31,21.77,12.56c6.16,3.56,16.25,3.56,22.41,0l37.06-21.4c5.26-3,5.26-8,0-11L151,306.22l65.29-37.69C218.54,267.22,218.54,265.09,216.28,263.78Z" style="fill:#e0e0e0"></path><g id="freepik--shadow--inject-4" style="opacity:0.1"><path d="M223.13,90.56l-160,92.37v90.53a2.61,2.61,0,0,0,.42,1.48,1.12,1.12,0,0,0,.91.54,1.3,1.3,0,0,0,.65-.19l161.83-93.51v-89C226.94,90.32,225.23,89.34,223.13,90.56Z"></path></g></g><g id="freepik--device-1--inject-4"><g id="freepik--Monitor--inject-4"><path d="M140.68,346.91l30.66-17.72c3.16-1.83,4.74-4.22,4.74-6.61s0-4.27,0-4.27l-28.86-16.37a6.77,6.77,0,0,1-3.05-5.29v-37.8L90.64,289.8v37.8a6.73,6.73,0,0,0,3,5.28l24.1,14C124.11,350.56,134.36,350.56,140.68,346.91Z" style="fill:#37474f"></path><path d="M103.49,334.29v4.25l-9.81-5.66a6.77,6.77,0,0,1-3.05-5.29V289.8l10.2-5.89c.22,2.59.44,5.27.66,7.88l-7.16,4.14v29.53a6.71,6.71,0,0,0,3,5.29Z" style="fill:#263238"></path><path d="M94.33,325.47a6.77,6.77,0,0,0,3,5.29l20.4,11.89c6.33,3.65,16.58,3.65,22.9,0l30.67-17.72c6.33-3.65,6.33-9.57,0-13.22l-20.42-11.9a6.73,6.73,0,0,1-3.05-5.29V265L94.33,295.93Z" style="fill:#455a64"></path><path d="M157.15,303.4h0l-6.21-3.59a6.73,6.73,0,0,1-3.05-5.29V265L94.33,295.93v29.54a6.77,6.77,0,0,0,3,5.29l6.11,3.52Z" style="opacity:0.15"></path><path d="M30.53,348.78a8.19,8.19,0,0,0,7.4-.14c26.33-15.2,149.87-86.53,176.2-101.72a8.46,8.46,0,0,0,3.81-6.61V92.76a7.16,7.16,0,0,0-11-6.33L30.77,188.15A8.46,8.46,0,0,0,27,194.76V342.31A8.2,8.2,0,0,0,30.53,348.78Z" style="fill:#37474f"></path><path d="M37.93,348.64l176.2-101.73a8.43,8.43,0,0,0,3.81-6.61V92.76c0-2.44-1.71-3.42-3.81-2.2L37.93,192.28a8.43,8.43,0,0,0-3.81,6.61V346.44C34.11,348.87,35.82,349.85,37.93,348.64Z" style="fill:#455a64"></path><path d="M39.16,328.64v-128a5.19,5.19,0,0,1,2.34-4.06l169.05-97.6c1.29-.75,2.34-.14,2.34,1.35V228.33a5.19,5.19,0,0,1-2.35,4.07L41.5,330C40.21,330.74,39.16,330.14,39.16,328.64Z" style="fill:#50B2C0"></path><path d="M39.16,328.64v-128a5.19,5.19,0,0,1,2.34-4.06l169.05-97.6c1.29-.75,2.34-.14,2.34,1.35V228.33a5.19,5.19,0,0,1-2.35,4.07L41.5,330C40.21,330.74,39.16,330.14,39.16,328.64Z" style="fill:#fff;opacity:0.75"></path><path d="M28.08,191l7.16,4.13a8.05,8.05,0,0,0-1.13,3.77V346.44c0,2.22,1.51,3.46,3.82,2.2a8.1,8.1,0,0,1-7.4.14,7.36,7.36,0,0,1-3.58-6v-148A7.89,7.89,0,0,1,28.08,191Z" style="fill:#263238"></path><path d="M118.24,292.1l15.57-9c.78-.44,1.4-.13,1.4.71a3,3,0,0,1-1.4,2.32l-15.57,9c-.77.45-1.4.13-1.4-.7A3,3,0,0,1,118.24,292.1Z" style="fill:#50B2C0"></path></g></g><g id="freepik--device-2--inject-4"><g id="freepik--Laptop--inject-4"><path d="M212,337.06c-1.73-1.22-1.74-2.85-1.74-5.11V225.39a7.85,7.85,0,0,1,3.54-6.14l135.86-78.43c1.95-1.13,3.76-.31,5.59.74s3,2,3,4.24V252.36a7.85,7.85,0,0,1-3.54,6.14L218.82,336.93C215.85,338.93,213.83,338.39,212,337.06Z" style="fill:#50B2C0"></path><path d="M218.82,336.93c-3,2-5,1.46-6.87.13-1.73-1.22-1.74-2.85-1.74-5.11V225.39a7.26,7.26,0,0,1,1-3.49l5.07,2.94a7.24,7.24,0,0,0-1,3.48V334.89C215.27,337.14,216.86,338.06,218.82,336.93Z" style="opacity:0.5"></path><path d="M358.21,145.8c0-2.26-1.59-3.17-3.54-2.05L218.81,222.19a7.19,7.19,0,0,0-2.5,2.65l-5-2.93h0a7.32,7.32,0,0,1,2.52-2.65L349.6,140.82c2-1.14,3.76-.32,5.6.74S358.21,143.54,358.21,145.8Z" style="opacity:0.30000000000000004"></path><path d="M358.21,145.8a4.73,4.73,0,0,0,0-.54A4.56,4.56,0,0,1,358.21,145.8Z" style="opacity:0.6000000000000001"></path><path d="M215.27,228.32V334.89c0,2.26,1.59,3.17,3.55,2L354.67,258.5a7.85,7.85,0,0,0,3.54-6.14V145.8c0-2.26-1.59-3.18-3.54-2.05L218.82,222.19A7.82,7.82,0,0,0,215.27,228.32Z" style="opacity:0.4"></path><path d="M220.72,226.27l131-75.6c1.17-.67,2.13-.12,2.13,1.23V249a4.73,4.73,0,0,1-2.13,3.69l-131,75.59c-1.17.68-2.12.13-2.12-1.22V230A4.71,4.71,0,0,1,220.72,226.27Z" style="fill:#263238"></path><path d="M220.72,226.27A4.71,4.71,0,0,0,218.6,230v96.48l130.2-75.16a4.7,4.7,0,0,0,2.13-3.68V151.12Z" style="fill:#37474f"></path><path d="M215.27,342.82a7.59,7.59,0,0,0,3.55,5.88L296,393.25a7.84,7.84,0,0,0,7.09,0L438.9,314.82a6.65,6.65,0,0,0,0-11.77L361.75,258.5a7.82,7.82,0,0,0-7.08,0L218.82,336.93A7.61,7.61,0,0,0,215.27,342.82Z" style="fill:#50B2C0"></path><path d="M442.45,308.93a7.59,7.59,0,0,1-3.55,5.89L303.05,393.25a7.3,7.3,0,0,1-3.54.85v-7.67a7.19,7.19,0,0,0,3.54-.86L438.9,307.14c1.72-1,1.93-2.51.65-3.64A7.62,7.62,0,0,1,442.45,308.93Z" style="opacity:0.4"></path><path d="M218.82,341,296,385.57a7.84,7.84,0,0,0,7.09,0L438.9,307.14c2-1.13,2-3,0-4.09L361.75,258.5a7.82,7.82,0,0,0-7.08,0L218.82,336.93C216.86,338.06,216.86,339.89,218.82,341Z" style="opacity:0.30000000000000004"></path><path d="M228.62,337.14l126.1-72.8a3.88,3.88,0,0,1,3.54,0l3.67,1.93a1.08,1.08,0,0,1,0,2L235.81,341.1a3.88,3.88,0,0,1-3.54,0l-3.65-1.91A1.08,1.08,0,0,1,228.62,337.14Z" style="fill:#37474f"></path><path d="M238.51,343l126.1-72.8a3.63,3.63,0,0,1,3.24-.18L400.67,289c.81.47.67,1.31-.31,1.87L274.41,363.57a3.66,3.66,0,0,1-3.24.18l-33-18.86C237.4,344.42,237.53,343.59,238.51,343Z" style="opacity:0.2"></path><path d="M309.09,308.64l-3.48-2a.6.6,0,0,0-.55,0L301.11,309c-.16.09-.19.23-.06.32l3.49,2a.57.57,0,0,0,.55,0l4-2.27C309.21,308.87,309.24,308.73,309.09,308.64Zm47.38-28.82-.92-.54a.69.69,0,0,0-.56,0l-3.94,2.28c-.17.11-.2.25-.06.32l.92.54a.65.65,0,0,0,.56,0l3.95-2.28C356.58,280,356.61,279.9,356.47,279.82ZM386,290.2l-3.48-2a.6.6,0,0,0-.55,0L378,290.49c-.17.11-.19.25-.06.33l3.48,2a.6.6,0,0,0,.55,0l3.95-2.29C386.1,290.42,386.13,290.28,386,290.2Zm-10.66-12.82-3.48-2a.63.63,0,0,0-.55,0l-3.95,2.28c-.17.1-.19.24-.06.32l3.48,2a.63.63,0,0,0,.55,0l3.95-2.28C375.44,277.6,375.46,277.46,375.33,277.38ZM368,273.15l-.93-.53a.63.63,0,0,0-.55,0l-3.95,2.28c-.16.1-.19.24-.05.32l.93.53a.57.57,0,0,0,.55,0l3.94-2.27C368.13,273.38,368.15,273.24,368,273.15Zm-17.31,10-.92-.53a.63.63,0,0,0-.55,0l-4,2.28c-.17.11-.2.25-.06.33l.92.53a.65.65,0,0,0,.56,0l3.95-2.28C350.81,283.38,350.84,283.23,350.7,283.15ZM320.64,302l-3.49-2a.57.57,0,0,0-.55,0l-4,2.27c-.17.1-.19.24,0,.33l3.48,2a.63.63,0,0,0,.55,0l3.95-2.28C320.75,302.21,320.78,302.07,320.64,302Zm-5.77,3.33-3.49-2a.57.57,0,0,0-.55,0l-3.95,2.28c-.17.09-.19.23-.05.32l3.48,2a.6.6,0,0,0,.55,0l3.95-2.28C315,305.54,315,305.4,314.87,305.31Zm24.35-14.06-3.48-2a.67.67,0,0,0-.55,0l-3.95,2.29c-.17.09-.19.24-.06.31l3.49,2a.62.62,0,0,0,.56,0l3.93-2.28C339.34,291.47,339.36,291.33,339.22,291.25Zm-12.81,7.4-3.49-2a.6.6,0,0,0-.55,0L318.42,299c-.17.1-.19.24-.05.32l3.48,2a.67.67,0,0,0,.55,0l4-2.28C326.52,298.88,326.54,298.73,326.41,298.65ZM345,287.92l-3.48-2a.6.6,0,0,0-.55,0L337,288.23c-.17.09-.19.23-.06.31l3.49,2a.6.6,0,0,0,.55,0l3.95-2.27C345.11,288.14,345.14,288,345,287.92Zm-11.54,6.67-3.48-2a.67.67,0,0,0-.55,0l-3.95,2.29c-.16.09-.19.24-.06.31l3.48,2a.65.65,0,0,0,.56,0l3.95-2.29C333.56,294.8,333.59,294.66,333.45,294.59Zm28.79-18.11-.92-.53a.69.69,0,0,0-.56,0l-3.95,2.28c-.16.1-.19.25-.05.32l.92.53a.62.62,0,0,0,.56,0l3.94-2.28C362.35,276.71,362.38,276.57,362.24,276.48Zm-32.43,46.15-3.49-2a.67.67,0,0,0-.55,0l-3.95,2.28c-.17.09-.19.24-.05.31l3.48,2a.6.6,0,0,0,.55,0l3.95-2.28C329.92,322.86,329.94,322.72,329.81,322.63Zm-11.55,6.67-3.48-2a.6.6,0,0,0-.55,0l-4,2.28c-.17.1-.19.24-.06.32l3.49,2a.63.63,0,0,0,.55,0l3.95-2.28C318.38,329.53,318.41,329.38,318.26,329.3ZM324,326l-3.48-2a.67.67,0,0,0-.55,0l-3.95,2.28c-.17.09-.19.24-.06.31l3.49,2a.63.63,0,0,0,.55,0l4-2.28C324.15,326.19,324.17,326.05,324,326ZM301,339.29l-3.48-2a.57.57,0,0,0-.55,0L293,339.6c-.16.09-.19.23-.06.31l3.48,2a.59.59,0,0,0,.56,0l3.95-2.27C301.06,339.52,301.09,339.37,301,339.29Zm11.54-6.66-3.48-2a.58.58,0,0,0-.55,0l-3.95,2.27c-.17.1-.19.24-.06.32l3.49,2a.6.6,0,0,0,.55,0l3.95-2.28C312.61,332.86,312.63,332.72,312.49,332.63ZM306.72,336l-3.48-2a.57.57,0,0,0-.55,0l-3.95,2.28c-.17.09-.19.23-.06.31l3.48,2a.59.59,0,0,0,.56,0l3.94-2.28C306.84,336.19,306.86,336.05,306.72,336Zm55-31.73-3.47-2a.59.59,0,0,0-.56,0l-4,2.27c-.16.1-.19.24,0,.33l3.47,2a.62.62,0,0,0,.56,0l3.95-2.28C361.8,304.45,361.83,304.31,361.69,304.23ZM335.58,319.3l-3.49-2a.6.6,0,0,0-.55,0l-4,2.28c-.17.09-.2.23,0,.31l3.48,2a.57.57,0,0,0,.55,0l3.95-2.27C335.69,319.53,335.71,319.39,335.58,319.3ZM369,293.7l-3.48-2a.6.6,0,0,0-.55,0L361,294c-.16.09-.19.23-.06.32l3.48,2a.57.57,0,0,0,.55,0l4-2.27C369.08,293.92,369.11,293.78,369,293.7Zm5.48,3.16-3.49-2a.67.67,0,0,0-.55,0l-4,2.28c-.16.1-.19.24,0,.32l3.48,2a.6.6,0,0,0,.55,0l3.95-2.28C374.56,297.08,374.59,296.94,374.45,296.86Zm-25.51,14.73-3.48-2a.63.63,0,0,0-.55,0l-11.54,6.66c-.18.1-.2.24-.06.33l3.48,2a.57.57,0,0,0,.55,0l11.54-6.66C349.06,311.81,349.07,311.67,348.94,311.59Zm7.57-17-3.49-2a.67.67,0,0,0-.55,0l-4,2.28c-.16.1-.19.24,0,.32l3.48,2a.65.65,0,0,0,.56,0l3.95-2.28C356.62,294.79,356.65,294.65,356.51,294.57Zm23.71-1-3.49-2a.6.6,0,0,0-.55,0l-3.94,2.28c-.18.1-.19.24-.06.32l3.48,2a.57.57,0,0,0,.55,0l4-2.27C380.33,293.75,380.36,293.61,380.22,293.53Zm-13.05,13.86-3.48-2a.62.62,0,0,0-.56,0l-3.95,2.27c-.16.11-.19.25,0,.33l3.48,2a.58.58,0,0,0,.55,0l3.95-2.28C367.28,307.61,367.31,307.47,367.17,307.39Zm-20.65,11.92-3.48-2a.6.6,0,0,0-.55,0l-4.86,2.81c-.17.09-.2.24-.06.32l3.48,2a.6.6,0,0,0,.55,0l4.86-2.81C346.64,319.53,346.65,319.39,346.52,319.31Zm-61,35.25-3.49-2a.69.69,0,0,0-.56,0l-4.85,2.81c-.17.1-.2.24-.05.32l3.48,2a.63.63,0,0,0,.55,0l4.86-2.81C285.58,354.77,285.61,354.63,285.48,354.56ZM333.16,327l-3.49-2a.57.57,0,0,0-.55,0l-4.86,2.81c-.17.09-.19.23-.05.31l3.48,2a.57.57,0,0,0,.55,0l4.86-2.81C333.27,327.25,333.29,327.11,333.16,327Zm-41,23.66-3.48-2a.59.59,0,0,0-.56,0l-4.86,2.81c-.16.09-.19.24-.05.31l3.48,2a.63.63,0,0,0,.55,0L292.1,351C292.26,350.92,292.29,350.78,292.16,350.69Zm34.31-19.81-3.48-2a.58.58,0,0,0-.55,0l-32.5,18.76c-.16.09-.19.23-.05.32l3.49,2a.6.6,0,0,0,.55,0l32.49-18.75C326.59,331.1,326.62,331,326.47,330.88Zm27.95-16.12-3.48-2a.65.65,0,0,0-.56,0l-6.07,3.51c-.17.1-.2.24-.06.32l3.49,2a.6.6,0,0,0,.55,0l6.07-3.51C354.53,315,354.55,314.83,354.42,314.76Zm-14.58,8.41-3.48-2a.69.69,0,0,0-.56,0l-4.86,2.8c-.17.11-.18.25-.05.32l3.48,2a.64.64,0,0,0,.55,0l4.86-2.8C340,323.39,340,323.25,339.84,323.17ZM397.24,290l-9-5.17a.63.63,0,0,0-.55,0l-4,2.28c-.17.11-.19.25-.06.33l9,5.17a.63.63,0,0,0,.55,0l3.95-2.28C397.35,290.25,397.37,290.11,397.24,290Zm-5.77,3.33-3.49-2a.6.6,0,0,0-.55,0l-3.95,2.28c-.17.1-.19.24-.05.32l3.48,2a.6.6,0,0,0,.55,0l4-2.28C391.58,293.58,391.61,293.44,391.47,293.36ZM361.4,310.72l-3.48-2a.62.62,0,0,0-.56,0L353.41,311c-.16.1-.19.24-.05.32l3.49,2a.58.58,0,0,0,.55,0l4-2.27C361.51,310.94,361.54,310.8,361.4,310.72Zm-66.22,31.9-3.48-2a.66.66,0,0,0-.56,0l-3.94,2.28c-.17.09-.19.24-.05.31l3.47,2a.62.62,0,0,0,.56,0l3.95-2.28C295.29,342.85,295.32,342.7,295.18,342.62Zm77.76-38.56-3.49-2a.63.63,0,0,0-.55,0L365,304.35c-.16.11-.19.25,0,.33l3.47,2a.66.66,0,0,0,.56,0l3.95-2.28C373.05,304.28,373.08,304.13,372.94,304.06Zm12.75-7.37-3.48-2a.6.6,0,0,0-.55,0l-9.72,5.62c-.16.09-.19.24-.06.31l3.49,2a.65.65,0,0,0,.56,0l9.71-5.62C385.81,296.91,385.84,296.77,385.69,296.69ZM269.46,331.54l-3.49-2a.6.6,0,0,0-.55,0l-3.95,2.28c-.17.11-.2.25-.05.33l3.48,2a.64.64,0,0,0,.55,0l3.95-2.28C269.57,331.76,269.59,331.61,269.46,331.54Zm5.77-3.33-3.49-2a.63.63,0,0,0-.55,0l-3.95,2.28c-.17.11-.2.25-.05.32l3.48,2a.64.64,0,0,0,.55,0l3.95-2.28C275.34,328.42,275.36,328.28,275.23,328.21Zm3.57,30.2-3.49-2a.6.6,0,0,0-.55,0l-6.07,3.5c-.17.09-.2.24-.06.32l3.48,2a.6.6,0,0,0,.55,0l6.08-3.51C278.91,358.64,278.93,358.5,278.8,358.41Zm4.7-35-3.48-2a.58.58,0,0,0-.55,0l-4,2.28c-.17.09-.19.23-.06.31l3.49,2a.6.6,0,0,0,.55,0l3.95-2.27C283.62,323.64,283.65,323.5,283.5,323.42Zm11.55-6.66-3.49-2a.6.6,0,0,0-.55,0l-3.95,2.28c-.17.1-.19.24-.05.32l3.48,2a.67.67,0,0,0,.55,0l3.95-2.28C295.16,317,295.18,316.84,295.05,316.76Zm-31.37,18.11-3.48-2a.57.57,0,0,0-.55,0l-3.95,2.27c-.17.11-.2.25-.06.33l3.49,2a.58.58,0,0,0,.55,0l3.95-2.28C263.8,335.09,263.82,335,263.68,334.87Zm25.59-14.78-3.48-2a.58.58,0,0,0-.55,0l-3.95,2.27c-.17.1-.19.24-.05.32l3.48,2a.6.6,0,0,0,.55,0l4-2.28C289.39,320.31,289.41,320.17,289.27,320.09Zm11.55-6.66-3.49-2a.6.6,0,0,0-.55,0l-3.95,2.28c-.17.1-.19.24-.05.31l3.48,2a.63.63,0,0,0,.55,0l3.95-2.28C300.93,313.65,301,313.5,300.82,313.43ZM272.1,356l-3.48-2a.57.57,0,0,0-.55,0l-4.86,2.8c-.17.09-.2.23-.06.32l3.49,2a.6.6,0,0,0,.55,0l4.86-2.8C272.22,356.17,272.24,356,272.1,356Zm-2.74-4.73-3.48-2a.63.63,0,0,0-.55,0l-7.6,4.39c-.17.09-.2.23-.05.32l3.48,2a.57.57,0,0,0,.55,0l7.59-4.38C269.47,351.43,269.49,351.29,269.36,351.22Zm-11.45-13-3.48-2a.57.57,0,0,0-.55,0l-3.95,2.28c-.17.1-.19.24-.06.32l3.49,2a.57.57,0,0,0,.55,0l4-2.28C258,338.42,258.05,338.28,257.91,338.2ZM249.63,343l-3.48-2a.69.69,0,0,0-.56,0l-4.86,2.8c-.16.11-.19.25,0,.32l3.48,2a.64.64,0,0,0,.55,0l4.86-2.8C249.74,343.2,249.77,343.06,249.63,343Zm12.73,5.95-3.48-2a.63.63,0,0,0-.55,0l-6.07,3.52c-.18.09-.2.23-.06.31l3.48,2a.57.57,0,0,0,.55,0l6.08-3.51C262.48,349.15,262.5,349,262.36,348.93Zm-7.6-1.94-3.48-2a.57.57,0,0,0-.55,0l-3.95,2.28c-.17.09-.2.23-.06.31l3.49,2a.6.6,0,0,0,.55,0l3.94-2.28C254.88,347.21,254.89,347.07,254.76,347Zm34.65-1-3.48-2a.66.66,0,0,0-.56,0l-3.95,2.28c-.16.1-.18.24,0,.31l3.48,2a.63.63,0,0,0,.55,0l3.95-2.28C289.52,346.17,289.55,346,289.41,346Zm7.57-17-3.48-2a.63.63,0,0,0-.55,0L289,329.24c-.17.1-.19.24-.06.31l3.49,2a.67.67,0,0,0,.55,0l3.95-2.28C297.1,329.16,297.12,329,297,328.94Zm-5.77,3.33-3.48-2a.6.6,0,0,0-.55,0l-3.95,2.28c-.16.1-.19.24-.06.32l3.49,2a.67.67,0,0,0,.55,0l3.94-2.28C291.33,332.49,291.35,332.35,291.21,332.27Zm23.09-13.33-3.49-2a.57.57,0,0,0-.55,0l-3.95,2.28c-.17.09-.19.23-.05.31l3.48,2a.6.6,0,0,0,.55,0l3.95-2.28C314.41,319.16,314.43,319,314.3,318.94Zm-11.55,6.67-3.48-2a.67.67,0,0,0-.55,0l-4,2.29c-.17.09-.19.24-.06.31l3.49,2a.63.63,0,0,0,.55,0l3.95-2.28C302.87,325.82,302.9,325.68,302.75,325.61Zm5.77-3.34-3.48-2a.64.64,0,0,0-.55,0l-3.95,2.28c-.17.09-.19.23-.06.31l3.49,2a.6.6,0,0,0,.55,0l4-2.27C308.64,322.49,308.66,322.35,308.52,322.27ZM285.44,335.6l-3.48-2a.6.6,0,0,0-.55,0l-4,2.28c-.16.1-.19.24-.06.32l3.48,2a.62.62,0,0,0,.56,0l3.95-2.28C285.55,335.82,285.58,335.68,285.44,335.6Zm-5.77,3.33-3.48-2a.62.62,0,0,0-.56,0l-3.94,2.29c-.17.09-.19.23-.05.31l3.47,2a.62.62,0,0,0,.56,0l3.95-2.27C279.78,339.15,279.81,339,279.67,338.93Zm18.54-4.37-3.49-2a.67.67,0,0,0-.55,0l-3.95,2.28c-.17.11-.19.25-.05.32l3.48,2a.63.63,0,0,0,.55,0l3.95-2.28C298.32,334.78,298.35,334.63,298.21,334.56Zm-5.77,3.33-3.49-2a.63.63,0,0,0-.55,0l-3.95,2.28c-.16.11-.19.25-.05.33l3.48,2a.66.66,0,0,0,.56,0l3.95-2.28C292.55,338.11,292.58,338,292.44,337.89Zm-5.78,3.33-3.48-2a.6.6,0,0,0-.55,0l-3.95,2.27c-.16.11-.19.25-.05.33l3.48,2a.59.59,0,0,0,.56,0l3.95-2.28C286.78,341.44,286.81,341.3,286.66,341.22Zm-12.76,1-3.48-2a.69.69,0,0,0-.56,0l-3.95,2.29c-.16.09-.18.24,0,.31l3.48,2a.63.63,0,0,0,.55,0l4-2.28C274,342.48,274,342.34,273.9,342.26Zm7,2.29-3.47-2a.59.59,0,0,0-.56,0l-3.95,2.28c-.16.1-.19.24-.05.32l3.49,2a.58.58,0,0,0,.55,0l4-2.27C281,344.77,281,344.63,280.89,344.55Zm44.95-32.27-3.49-2a.6.6,0,0,0-.55,0l-3.94,2.28c-.18.1-.2.24-.06.32l3.48,2a.63.63,0,0,0,.55,0l3.95-2.28C326,312.5,326,312.35,325.84,312.28Zm48.9-21.91-3.48-2a.57.57,0,0,0-.55,0l-3.95,2.28c-.17.09-.19.24-.06.32l3.48,2a.59.59,0,0,0,.56,0l3.94-2.28C374.85,290.59,374.88,290.45,374.74,290.37Zm-54.67,25.24-3.49-2a.57.57,0,0,0-.55,0l-3.95,2.27c-.17.1-.19.24-.05.32l3.48,2a.6.6,0,0,0,.55,0l3.95-2.28C320.18,315.83,320.2,315.69,320.07,315.61Zm43.42-25.08-3.48-2a.57.57,0,0,0-.55,0l-3.95,2.28c-.17.09-.19.23-.06.32l3.49,2a.6.6,0,0,0,.55,0l3.95-2.27C363.61,290.76,363.64,290.62,363.49,290.53Zm22.79-6.82-9-5.18a.63.63,0,0,0-.55,0l-3.95,2.28c-.17.1-.19.24-.05.32l9,5.18a.63.63,0,0,0,.55,0l4-2.28C386.4,283.93,386.42,283.78,386.28,283.71Zm-11.24.16-3.49-2a.6.6,0,0,0-.55,0l-3.95,2.28c-.17.1-.19.24-.05.33l3.48,2a.67.67,0,0,0,.55,0l4-2.28C375.15,284.1,375.18,284,375,283.87Zm-5.78,3.33-3.48-2a.57.57,0,0,0-.55,0l-4,2.27c-.17.1-.19.24-.06.33l3.49,2a.6.6,0,0,0,.55,0l3.95-2.28C369.38,287.43,369.41,287.29,369.26,287.2Zm11.25-.16L377,285a.57.57,0,0,0-.55,0l-4,2.27c-.17.1-.19.25-.06.33l3.49,2a.6.6,0,0,0,.55,0l3.95-2.28C380.63,287.26,380.65,287.12,380.51,287Zm-70.76,40.85-3.48-2a.65.65,0,0,0-.56,0l-3.94,2.28c-.17.1-.19.24-.06.32l3.48,2a.6.6,0,0,0,.55,0l3.95-2.28C309.86,328.11,309.89,328,309.75,327.89Zm59.81-47.18-3.49-2a.6.6,0,0,0-.55,0L361.58,281c-.18.1-.19.24-.06.32l3.48,2a.63.63,0,0,0,.55,0L369.5,281C369.67,280.94,369.7,280.79,369.56,280.71ZM331.61,309l-3.48-2a.63.63,0,0,0-.55,0l-3.95,2.28c-.17.1-.2.24-.06.31l3.48,2a.63.63,0,0,0,.55,0l3.95-2.28C331.72,309.17,331.74,309,331.61,309ZM363.79,284l-3.49-2a.6.6,0,0,0-.55,0l-3.95,2.27c-.17.1-.19.24-.05.33l3.48,2a.6.6,0,0,0,.55,0l4-2.28C363.9,284.27,363.93,284.13,363.79,284ZM351,291.41l-3.48-2a.64.64,0,0,0-.55,0l-3.95,2.28c-.16.09-.19.24-.06.31l3.48,2a.65.65,0,0,0,.56,0l3.94-2.28C351.14,291.63,351.17,291.49,351,291.41Zm7-4-3.49-2a.6.6,0,0,0-.55,0l-4,2.28c-.17.09-.19.23,0,.32l3.48,2a.57.57,0,0,0,.55,0l3.95-2.28C358.13,287.6,358.16,287.46,358,287.37Zm-54,43.85-3.49-2a.67.67,0,0,0-.55,0L296,331.52c-.18.1-.19.25-.06.32l3.48,2a.63.63,0,0,0,.55,0l3.95-2.29C304.09,331.44,304.12,331.3,304,331.22Zm-26.14,2.44-3.49-2a.64.64,0,0,0-.55,0L269.85,334c-.16.09-.19.24-.05.31l3.48,2a.62.62,0,0,0,.56,0l4-2.28C278,333.88,278,333.74,277.84,333.66Zm5.77-3.33-3.49-2a.58.58,0,0,0-.55,0l-3.94,2.28c-.17.09-.19.23-.06.31l3.48,2a.59.59,0,0,0,.56,0l3.94-2.27C283.72,330.56,283.75,330.41,283.61,330.33Zm5.77-3.33-3.48-2a.6.6,0,0,0-.56,0l-3.94,2.27c-.17.1-.19.24-.06.32l3.48,2a.57.57,0,0,0,.55,0l3.95-2.28C289.49,327.23,289.52,327.08,289.38,327Zm11.54-6.66-3.48-2a.6.6,0,0,0-.55,0l-3.95,2.28c-.17.1-.19.24-.06.31l3.49,2a.63.63,0,0,0,.55,0l3.94-2.28C301,320.57,301.05,320.42,300.92,320.34ZM272.07,337l-3.48-2a.66.66,0,0,0-.56,0l-3.95,2.28c-.16.09-.19.24,0,.31l3.47,2a.65.65,0,0,0,.56,0l3.95-2.28C272.18,337.21,272.21,337.07,272.07,337Zm23.08-13.33-3.48-2a.6.6,0,0,0-.55,0L287.17,324c-.17.1-.19.24-.06.32l3.48,2a.63.63,0,0,0,.55,0l3.95-2.28C295.26,323.9,295.29,323.75,295.15,323.67Zm-28.86,16.66-3.47-2a.62.62,0,0,0-.56,0l-3.95,2.28c-.16.1-.19.24-.05.31l3.49,2a.67.67,0,0,0,.55,0l3.95-2.28C266.41,340.55,266.44,340.4,266.29,340.33Zm11.58,12.29-3.48-2a.57.57,0,0,0-.55,0l-3.95,2.27c-.17.1-.2.24-.05.32l3.48,2a.6.6,0,0,0,.55,0l3.95-2.28C278,352.84,278,352.7,277.87,352.62Zm5.78-3.33-3.49-2a.62.62,0,0,0-.56,0l-4,2.28c-.16.1-.19.24,0,.32l3.48,2a.63.63,0,0,0,.55,0l3.95-2.28C283.75,349.51,283.78,349.36,283.65,349.29Zm-15.51-3.69-3.49-2a.69.69,0,0,0-.56,0l-3.94,2.29c-.17.09-.2.24,0,.31l3.48,2a.67.67,0,0,0,.55,0l3.95-2.29C268.24,345.81,268.27,345.67,268.14,345.6Zm-7.61-1.94-3.48-2a.59.59,0,0,0-.56,0L252.55,344c-.17.1-.2.24-.06.32l3.49,2a.63.63,0,0,0,.55,0l4-2.28C260.64,343.88,260.67,343.74,260.53,343.66Zm14.6,4.22-3.48-2a.62.62,0,0,0-.56,0l-3.94,2.28c-.17.1-.2.24-.06.32l3.49,2a.58.58,0,0,0,.55,0l3.94-2.27C275.24,348.1,275.26,348,275.13,347.88ZM306.69,317l-3.48-2a.67.67,0,0,0-.55,0l-4,2.28c-.17.09-.19.24-.06.31l3.49,2a.63.63,0,0,0,.55,0l3.95-2.28C306.81,317.23,306.83,317.09,306.69,317Zm5.77-3.34-3.48-2a.63.63,0,0,0-.55,0L304.48,314c-.17.09-.19.24-.06.31l3.49,2a.57.57,0,0,0,.55,0l4-2.27C312.58,313.9,312.6,313.76,312.46,313.67Zm31-5.24-9-5.18a.66.66,0,0,0-.56,0l-4.54,2.63c-.17.09-.2.24-.06.31l5,2.88c.15.08.12.23,0,.32l-3.65,2.11c-.17.09-.2.24-.05.31l3.48,2a.63.63,0,0,0,.55,0l8.81-5.09C343.57,308.65,343.6,308.51,343.46,308.43Zm1.5-7.2-3.47-2a.62.62,0,0,0-.56,0L337,301.53c-.16.1-.19.24-.05.33l3.49,2a.6.6,0,0,0,.55,0l3.95-2.28C345.08,301.46,345.11,301.32,345,301.23Zm-29.44,23.33-3.48-2a.6.6,0,0,0-.55,0l-3.95,2.28c-.17.1-.19.24-.06.32l3.48,2a.6.6,0,0,0,.55,0l3.95-2.29C315.63,324.78,315.65,324.64,315.52,324.56Zm5.77-3.33-3.48-2a.6.6,0,0,0-.55,0l-3.95,2.27c-.17.11-.19.25-.06.33l3.49,2a.63.63,0,0,0,.55,0l3.94-2.29C321.41,321.45,321.42,321.31,321.29,321.23Zm5.77-3.33-3.48-2a.63.63,0,0,0-.55,0l-3.95,2.28c-.17.11-.19.25-.06.33l3.49,2a.67.67,0,0,0,.55,0l3.95-2.29C327.18,318.12,327.2,318,327.06,317.9Zm5.77-3.33-3.48-2a.67.67,0,0,0-.55,0l-3.95,2.28c-.17.11-.2.25-.06.32l3.49,2a.67.67,0,0,0,.55,0l3.95-2.29C333,314.78,333,314.64,332.83,314.57Zm-14.6-4.23-3.48-2a.57.57,0,0,0-.55,0l-3.95,2.28c-.17.09-.2.23-.05.31l3.48,2a.57.57,0,0,0,.55,0l3.95-2.27C318.35,310.57,318.37,310.43,318.23,310.34ZM324,307l-3.49-2a.6.6,0,0,0-.55,0l-4,2.27c-.17.1-.2.24,0,.32l3.48,2a.57.57,0,0,0,.55,0l3.95-2.28C324.12,307.24,324.14,307.1,324,307Zm15.48-8.94-3.48-2a.62.62,0,0,0-.56,0l-3.95,2.28c-.16.1-.19.24,0,.32l3.48,2a.6.6,0,0,0,.55,0l3.95-2.28C339.6,298.3,339.63,298.15,339.49,298.07Zm-7,4-3.48-2a.62.62,0,0,0-.56,0L321.79,304c-.17.1-.19.24-.05.32l3.48,2a.63.63,0,0,0,.55,0l6.68-3.85C332.62,302.32,332.64,302.18,332.51,302.1Zm12.75-7.36-3.48-2a.62.62,0,0,0-.56,0L337.28,295c-.17.1-.19.24,0,.31l3.47,2a.65.65,0,0,0,.56,0l3.95-2.28C345.37,295,345.4,294.81,345.26,294.74Zm5.48,3.16-3.49-2a.63.63,0,0,0-.55,0l-3.95,2.28c-.16.1-.19.24,0,.32l3.47,2a.65.65,0,0,0,.56,0l3.95-2.28C350.85,298.13,350.88,298,350.74,297.9Z" style="fill:#37474f"></path><polygon points="322.21 341.07 323.02 341.54 344.52 353.95 382.76 331.88 383.55 331.42 361.24 318.54 322.21 341.07" style="opacity:0.4"></polygon><polygon points="382.4 332.08 361.24 319.88 323.37 341.75 344.52 353.95 382.4 332.08" style="fill:#50B2C0"></polygon><polygon points="382.4 332.08 361.24 319.88 323.37 341.75 344.52 353.95 382.4 332.08" style="opacity:0.45"></polygon><path d="M299.51,386.43v7.67a7.16,7.16,0,0,1-3.54-.85L218.81,348.7a6.64,6.64,0,0,1-.36-11.54c-1.58,1.14-1.46,2.81.36,3.86L296,385.58A7.27,7.27,0,0,0,299.51,386.43Z" style="opacity:0.5"></path><g id="freepik--binary-code--inject-4"><g id="freepik--Binary--inject-4"><path d="M237.42,227.52l.53-.41v-3.93l-.54.32v-.44l1-.91v4.69l.52-.2v.46l-1.51.87Z" style="fill:#50B2C0"></path><path d="M239.21,232.32a4.37,4.37,0,0,1-.29,1.71,1.92,1.92,0,0,1-.79,1c-.34.19-.6.17-.8-.08a2.33,2.33,0,0,1-.29-1.37v-1.24a4.56,4.56,0,0,1,.29-1.71,2,2,0,0,1,.79-1c.34-.19.6-.17.8.08a2.38,2.38,0,0,1,.29,1.37Zm-.46-1.13a1.81,1.81,0,0,0-.16-.93c-.11-.17-.26-.2-.47-.08a1.14,1.14,0,0,0-.46.61,3.5,3.5,0,0,0-.16,1.12v1.54a2,2,0,0,0,.16.94c.11.17.27.19.47.08a1.12,1.12,0,0,0,.46-.62,3.2,3.2,0,0,0,.16-1.12Z" style="fill:#50B2C0;opacity:0.15"></path><path d="M237.42,242.28l.53-.4V238l-.54.32v-.44l1-.91v4.69l.52-.2v.46l-1.51.87Z" style="fill:#50B2C0"></path><path d="M239.21,247.09a4.37,4.37,0,0,1-.29,1.71,1.92,1.92,0,0,1-.79,1c-.34.19-.6.17-.8-.08a2.33,2.33,0,0,1-.29-1.37V247.1a4.56,4.56,0,0,1,.29-1.71,2,2,0,0,1,.79-1,.57.57,0,0,1,.8.08,2.38,2.38,0,0,1,.29,1.37Zm-.46-1.13a1.83,1.83,0,0,0-.16-.93c-.11-.17-.26-.2-.47-.08a1.14,1.14,0,0,0-.46.61,3.5,3.5,0,0,0-.16,1.12v1.54a2,2,0,0,0,.16.94c.11.17.27.19.47.08a1.12,1.12,0,0,0,.46-.62,3.2,3.2,0,0,0,.16-1.12Z" style="fill:#50B2C0;opacity:0.30000000000000004"></path><path d="M237.42,257.06l.53-.41v-3.93l-.54.32v-.44l1-.91v4.69l.52-.2v.46l-1.51.87Z" style="fill:#50B2C0;opacity:0.30000000000000004"></path><path d="M237.42,264.44l.53-.4V260.1l-.54.33V260l1-.91v4.7l.52-.2V264l-1.51.87Z" style="fill:#50B2C0"></path><path d="M237.42,271.83l.53-.41v-3.93l-.54.32v-.44l1-.91v4.69l.52-.2v.46l-1.51.87Z" style="fill:#50B2C0;opacity:0.15"></path><path d="M239.21,276.63a4.37,4.37,0,0,1-.29,1.71,1.92,1.92,0,0,1-.79,1c-.34.19-.6.17-.8-.08a2.33,2.33,0,0,1-.29-1.37v-1.24a4.56,4.56,0,0,1,.29-1.71,2,2,0,0,1,.79-1,.57.57,0,0,1,.8.08,2.38,2.38,0,0,1,.29,1.37Zm-.46-1.13a1.83,1.83,0,0,0-.16-.93c-.11-.17-.26-.2-.47-.08a1.14,1.14,0,0,0-.46.61,3.5,3.5,0,0,0-.16,1.12v1.54a2,2,0,0,0,.16.94c.11.17.27.19.47.08a1.12,1.12,0,0,0,.46-.62,3.2,3.2,0,0,0,.16-1.12Z" style="fill:#50B2C0;opacity:0.30000000000000004"></path><path d="M237.42,286.6l.53-.41v-3.93l-.54.32v-.44l1-.91v4.69l.52-.2v.46l-1.51.87Z" style="fill:#50B2C0"></path><path d="M239.21,291.4a4.37,4.37,0,0,1-.29,1.71,1.92,1.92,0,0,1-.79,1c-.34.2-.6.17-.8-.08a2.33,2.33,0,0,1-.29-1.37v-1.24a4.56,4.56,0,0,1,.29-1.71,2,2,0,0,1,.79-1,.57.57,0,0,1,.8.08,2.38,2.38,0,0,1,.29,1.37Zm-.46-1.13a1.83,1.83,0,0,0-.16-.93c-.11-.17-.26-.2-.47-.08a1.14,1.14,0,0,0-.46.61,3.5,3.5,0,0,0-.16,1.12v1.54a2,2,0,0,0,.16.94c.11.17.27.19.47.08a1.12,1.12,0,0,0,.46-.62,3.2,3.2,0,0,0,.16-1.12Z" style="fill:#50B2C0;opacity:0.15"></path><path d="M237.42,301.37,238,301V297l-.54.32v-.44l1-.91v4.69l.52-.2V301l-1.51.87Z" style="fill:#50B2C0;opacity:0.30000000000000004"></path><path d="M239.21,306.17a4.37,4.37,0,0,1-.29,1.71,1.92,1.92,0,0,1-.79,1c-.34.2-.6.17-.8-.08a2.33,2.33,0,0,1-.29-1.37v-1.24a4.56,4.56,0,0,1,.29-1.71,2,2,0,0,1,.79-1,.57.57,0,0,1,.8.08,2.38,2.38,0,0,1,.29,1.37Zm-.46-1.13a1.83,1.83,0,0,0-.16-.93c-.11-.17-.26-.2-.47-.08a1.14,1.14,0,0,0-.46.61,3.5,3.5,0,0,0-.16,1.12v1.54a2,2,0,0,0,.16.94c.11.17.27.19.47.08a1.12,1.12,0,0,0,.46-.62,3.2,3.2,0,0,0,.16-1.12Z" style="fill:#50B2C0"></path><path d="M232.49,228.81a4.56,4.56,0,0,1-.29,1.71,2,2,0,0,1-.79,1,.57.57,0,0,1-.8-.08,2.36,2.36,0,0,1-.29-1.37v-1.25a4.6,4.6,0,0,1,.29-1.71,1.92,1.92,0,0,1,.79-1c.34-.2.6-.17.8.08a2.33,2.33,0,0,1,.29,1.37Zm-.46-1.13a1.86,1.86,0,0,0-.16-.93c-.11-.17-.26-.19-.47-.07a1.11,1.11,0,0,0-.46.61,3.2,3.2,0,0,0-.16,1.12V230a2,2,0,0,0,.16.93.31.31,0,0,0,.47.08,1.1,1.1,0,0,0,.46-.61,3.26,3.26,0,0,0,.16-1.13Z" style="fill:#50B2C0"></path><path d="M230.7,238.78l.53-.4v-3.94l-.54.33v-.45l1-.91v4.7l.52-.2v.45l-1.51.88Z" style="fill:#50B2C0"></path><path d="M230.7,246.17l.53-.41v-3.93l-.54.32v-.44l1-.91v4.69l.52-.2v.46l-1.51.87Z" style="fill:#50B2C0;opacity:0.15"></path><path d="M230.7,253.55l.53-.4v-3.94l-.54.33v-.45l1-.91v4.7l.52-.2v.45l-1.51.88Z" style="fill:#50B2C0;opacity:0.30000000000000004"></path><path d="M232.49,258.35a4.52,4.52,0,0,1-.29,1.71,2,2,0,0,1-.79,1,.57.57,0,0,1-.8-.08,2.36,2.36,0,0,1-.29-1.37v-1.25a4.63,4.63,0,0,1,.29-1.71,1.92,1.92,0,0,1,.79-1c.34-.2.6-.17.8.08a2.33,2.33,0,0,1,.29,1.37Zm-.46-1.13a1.86,1.86,0,0,0-.16-.93c-.11-.17-.26-.19-.47-.07a1.11,1.11,0,0,0-.46.61,3.2,3.2,0,0,0-.16,1.12v1.54a2,2,0,0,0,.16.93.31.31,0,0,0,.47.08,1.1,1.1,0,0,0,.46-.61,3.26,3.26,0,0,0,.16-1.13Z" style="fill:#50B2C0"></path><path d="M232.49,265.74a4.56,4.56,0,0,1-.29,1.71,1.92,1.92,0,0,1-.79,1c-.34.2-.6.17-.8-.08a2.33,2.33,0,0,1-.29-1.37v-1.24a4.56,4.56,0,0,1,.29-1.71,2,2,0,0,1,.79-1,.57.57,0,0,1,.8.08,2.39,2.39,0,0,1,.29,1.38Zm-.46-1.13a1.83,1.83,0,0,0-.16-.93c-.11-.17-.26-.2-.47-.08a1.14,1.14,0,0,0-.46.61,3.24,3.24,0,0,0-.16,1.12v1.54a2,2,0,0,0,.16.94c.11.17.27.19.47.08a1.12,1.12,0,0,0,.46-.62,3.2,3.2,0,0,0,.16-1.12Z" style="fill:#50B2C0;opacity:0.30000000000000004"></path><path d="M230.7,275.71l.53-.41v-3.93l-.54.32v-.44l1-.91V275l.52-.2v.46l-1.51.87Z" style="fill:#50B2C0"></path><path d="M232.49,280.51a4.56,4.56,0,0,1-.29,1.71,1.92,1.92,0,0,1-.79,1c-.34.2-.6.17-.8-.08a2.33,2.33,0,0,1-.29-1.37v-1.24a4.56,4.56,0,0,1,.29-1.71,2,2,0,0,1,.79-1,.57.57,0,0,1,.8.08,2.39,2.39,0,0,1,.29,1.38Zm-.46-1.13a1.83,1.83,0,0,0-.16-.93c-.11-.17-.26-.2-.47-.08a1.14,1.14,0,0,0-.46.61,3.24,3.24,0,0,0-.16,1.12v1.54a2,2,0,0,0,.16.94c.11.17.27.19.47.08a1.12,1.12,0,0,0,.46-.62,3.2,3.2,0,0,0,.16-1.12Z" style="fill:#50B2C0"></path><path d="M230.7,290.48l.53-.41v-3.93l-.54.32V286l1-.91v4.69l.52-.2v.46l-1.51.87Z" style="fill:#50B2C0;opacity:0.30000000000000004"></path><path d="M232.49,295.28a4.56,4.56,0,0,1-.29,1.71,1.92,1.92,0,0,1-.79,1c-.34.2-.6.17-.8-.08a2.33,2.33,0,0,1-.29-1.37v-1.24a4.56,4.56,0,0,1,.29-1.71,2,2,0,0,1,.79-1,.57.57,0,0,1,.8.08,2.38,2.38,0,0,1,.29,1.37Zm-.46-1.13a1.83,1.83,0,0,0-.16-.93c-.11-.17-.26-.2-.47-.08a1.14,1.14,0,0,0-.46.61,3.24,3.24,0,0,0-.16,1.12v1.54a2,2,0,0,0,.16.94c.11.17.27.19.47.08a1.12,1.12,0,0,0,.46-.62,3.2,3.2,0,0,0,.16-1.12Z" style="fill:#50B2C0;opacity:0.30000000000000004"></path><path d="M230.7,305.25l.53-.41v-3.93l-.54.32v-.44l1-.91v4.69l.52-.2v.46l-1.51.87Z" style="fill:#50B2C0"></path><path d="M232.49,310.05a4.56,4.56,0,0,1-.29,1.71,1.92,1.92,0,0,1-.79,1c-.34.2-.6.17-.8-.08a2.33,2.33,0,0,1-.29-1.37v-1.24a4.56,4.56,0,0,1,.29-1.71,2,2,0,0,1,.79-1,.57.57,0,0,1,.8.08,2.38,2.38,0,0,1,.29,1.37Zm-.46-1.13a1.83,1.83,0,0,0-.16-.93c-.11-.17-.26-.2-.47-.08a1.14,1.14,0,0,0-.46.61,3.24,3.24,0,0,0-.16,1.12v1.54a2,2,0,0,0,.16.94c.11.17.27.19.47.08a1.12,1.12,0,0,0,.46-.62,3.2,3.2,0,0,0,.16-1.12Z" style="fill:#50B2C0;opacity:0.30000000000000004"></path><path d="M224,235.28l.53-.41v-3.93l-.54.32v-.44l1-.91v4.69l.52-.2v.46l-1.51.87Z" style="fill:#50B2C0"></path><path d="M224,242.66l.53-.4v-3.94l-.54.33v-.45l1-.91V242l.52-.2v.45l-1.51.88Z" style="fill:#50B2C0;opacity:0.30000000000000004"></path><path d="M225.77,247.46a4.56,4.56,0,0,1-.29,1.71,2,2,0,0,1-.79,1,.57.57,0,0,1-.8-.08,2.36,2.36,0,0,1-.29-1.37v-1.25a4.6,4.6,0,0,1,.29-1.71,1.92,1.92,0,0,1,.79-1c.34-.2.6-.17.8.08a2.33,2.33,0,0,1,.29,1.37Zm-.46-1.13a1.86,1.86,0,0,0-.16-.93c-.11-.17-.26-.19-.47-.07a1.11,1.11,0,0,0-.46.61,3.2,3.2,0,0,0-.16,1.12v1.54a1.86,1.86,0,0,0,.16.93c.11.17.26.2.47.08a1.1,1.1,0,0,0,.46-.61,3.26,3.26,0,0,0,.16-1.13Z" style="fill:#50B2C0"></path><path d="M224,257.43l.53-.4v-3.94l-.54.33V253l1-.91v4.7l.52-.2V257l-1.51.88Z" style="fill:#50B2C0;opacity:0.30000000000000004"></path><path d="M225.77,262.23a4.52,4.52,0,0,1-.29,1.71,2,2,0,0,1-.79,1,.57.57,0,0,1-.8-.08,2.36,2.36,0,0,1-.29-1.37v-1.25a4.63,4.63,0,0,1,.29-1.71,1.92,1.92,0,0,1,.79-1c.34-.2.6-.17.8.08a2.33,2.33,0,0,1,.29,1.37Zm-.46-1.13a1.86,1.86,0,0,0-.16-.93c-.11-.17-.26-.19-.47-.07a1.11,1.11,0,0,0-.46.61,3.2,3.2,0,0,0-.16,1.12v1.54a1.86,1.86,0,0,0,.16.93c.11.17.26.2.47.08a1.1,1.1,0,0,0,.46-.61,3.26,3.26,0,0,0,.16-1.13Z" style="fill:#50B2C0;opacity:0.15"></path><path d="M225.77,269.62a4.56,4.56,0,0,1-.29,1.71,1.92,1.92,0,0,1-.79,1c-.34.2-.6.17-.8-.08a2.33,2.33,0,0,1-.29-1.37v-1.24a4.56,4.56,0,0,1,.29-1.71,2,2,0,0,1,.79-1,.57.57,0,0,1,.8.08,2.39,2.39,0,0,1,.29,1.38Zm-.46-1.13a1.83,1.83,0,0,0-.16-.93c-.11-.17-.26-.2-.47-.08a1.14,1.14,0,0,0-.46.61,3.24,3.24,0,0,0-.16,1.12v1.54a1.88,1.88,0,0,0,.16.94c.11.17.26.19.47.08a1.12,1.12,0,0,0,.46-.62,3.2,3.2,0,0,0,.16-1.12Z" style="fill:#50B2C0"></path><path d="M224,279.59l.53-.41v-3.93l-.54.32v-.44l1-.91v4.69l.52-.2v.46L224,280Z" style="fill:#50B2C0;opacity:0.30000000000000004"></path><path d="M225.77,284.39a4.56,4.56,0,0,1-.29,1.71,1.92,1.92,0,0,1-.79,1c-.34.2-.6.17-.8-.08a2.33,2.33,0,0,1-.29-1.37V284.4a4.56,4.56,0,0,1,.29-1.71,2,2,0,0,1,.79-1,.57.57,0,0,1,.8.08,2.39,2.39,0,0,1,.29,1.38Zm-.46-1.13a1.83,1.83,0,0,0-.16-.93c-.11-.17-.26-.2-.47-.08a1.14,1.14,0,0,0-.46.61,3.24,3.24,0,0,0-.16,1.12v1.54a1.88,1.88,0,0,0,.16.94c.11.17.26.19.47.08a1.12,1.12,0,0,0,.46-.62,3.2,3.2,0,0,0,.16-1.12Z" style="fill:#50B2C0;opacity:0.30000000000000004"></path><path d="M225.77,291.77a4.49,4.49,0,0,1-.29,1.71,2,2,0,0,1-.79,1,.57.57,0,0,1-.8-.08,2.36,2.36,0,0,1-.29-1.37v-1.25a4.63,4.63,0,0,1,.29-1.71,1.92,1.92,0,0,1,.79-1c.34-.19.6-.17.8.08a2.36,2.36,0,0,1,.29,1.37Zm-.46-1.12a1.88,1.88,0,0,0-.16-.94c-.11-.17-.26-.19-.47-.07a1.11,1.11,0,0,0-.46.61,3.2,3.2,0,0,0-.16,1.12v1.54a1.86,1.86,0,0,0,.16.93c.11.17.26.2.47.08a1.1,1.1,0,0,0,.46-.61,3.24,3.24,0,0,0,.16-1.12Z" style="fill:#50B2C0"></path><path d="M224,301.74l.53-.4V297.4l-.54.33v-.45l1-.9v4.69l.52-.2v.45l-1.51.88Z" style="fill:#50B2C0;opacity:0.30000000000000004"></path><path d="M224,309.13l.53-.41v-3.93l-.54.32v-.44l1-.91v4.7l.52-.21v.46l-1.51.87Z" style="fill:#50B2C0;opacity:0.15"></path><path d="M225.77,313.93a4.56,4.56,0,0,1-.29,1.71,1.92,1.92,0,0,1-.79,1c-.34.2-.6.17-.8-.08a2.33,2.33,0,0,1-.29-1.37v-1.24a4.56,4.56,0,0,1,.29-1.71,2,2,0,0,1,.79-1,.57.57,0,0,1,.8.08,2.39,2.39,0,0,1,.29,1.38Zm-.46-1.13a1.83,1.83,0,0,0-.16-.93c-.11-.17-.26-.2-.47-.08a1.14,1.14,0,0,0-.46.61,3.24,3.24,0,0,0-.16,1.12v1.54a1.88,1.88,0,0,0,.16.94c.11.17.26.19.47.08a1.12,1.12,0,0,0,.46-.62,3.2,3.2,0,0,0,.16-1.12Z" style="fill:#50B2C0;opacity:0.30000000000000004"></path></g><g id="freepik--binary--inject-4"><path d="M257.52,215.91l.53-.41v-3.93l-.54.32v-.44l1-.91v4.7l.52-.2v.45l-1.51.87Z" style="fill:#50B2C0"></path><path d="M259.31,220.71a4.37,4.37,0,0,1-.29,1.71,2,2,0,0,1-.79,1c-.34.19-.6.16-.79-.08a2.29,2.29,0,0,1-.3-1.37v-1.25a4.56,4.56,0,0,1,.29-1.71,2,2,0,0,1,.79-1c.34-.2.61-.17.8.08a2.26,2.26,0,0,1,.29,1.37Zm-.46-1.13a1.86,1.86,0,0,0-.16-.93c-.11-.17-.26-.19-.47-.07a1.11,1.11,0,0,0-.46.61,3.43,3.43,0,0,0-.16,1.11v1.54a1.85,1.85,0,0,0,.17.94c.1.17.26.2.46.08a1.1,1.1,0,0,0,.46-.61,3.3,3.3,0,0,0,.16-1.13Z" style="fill:#50B2C0;opacity:0.15"></path><path d="M257.52,230.68l.53-.41v-3.93l-.54.32v-.44l1-.91V230l.52-.2v.45l-1.51.87Z" style="fill:#50B2C0"></path><path d="M259.31,235.48a4.37,4.37,0,0,1-.29,1.71,2,2,0,0,1-.79,1c-.34.19-.6.16-.79-.08a2.29,2.29,0,0,1-.3-1.37v-1.25a4.56,4.56,0,0,1,.29-1.71,2,2,0,0,1,.79-1c.34-.2.61-.17.8.08a2.26,2.26,0,0,1,.29,1.37Zm-.46-1.13a1.86,1.86,0,0,0-.16-.93c-.11-.17-.26-.19-.47-.07a1.11,1.11,0,0,0-.46.61,3.43,3.43,0,0,0-.16,1.11v1.54a1.85,1.85,0,0,0,.17.94c.1.17.26.2.46.08a1.1,1.1,0,0,0,.46-.61,3.3,3.3,0,0,0,.16-1.13Z" style="fill:#50B2C0;opacity:0.30000000000000004"></path><path d="M257.52,245.45l.53-.41v-3.93l-.54.32V241l1-.91v4.7l.52-.2V245l-1.51.87Z" style="fill:#50B2C0;opacity:0.30000000000000004"></path><path d="M257.52,252.83l.53-.4V248.5l-.54.32v-.44l1-.91v4.69l.52-.2v.46l-1.51.87Z" style="fill:#50B2C0"></path><path d="M257.52,260.22l.53-.41v-3.93l-.54.32v-.44l1-.91v4.7l.52-.2v.45l-1.51.87Z" style="fill:#50B2C0;opacity:0.15"></path><path d="M259.31,265a4.37,4.37,0,0,1-.29,1.71,2,2,0,0,1-.79,1c-.34.19-.6.16-.79-.08a2.29,2.29,0,0,1-.3-1.37V265a4.56,4.56,0,0,1,.29-1.71,2,2,0,0,1,.79-1c.34-.2.61-.17.8.08a2.26,2.26,0,0,1,.29,1.37Zm-.46-1.13a1.86,1.86,0,0,0-.16-.93c-.11-.17-.26-.19-.47-.07a1.11,1.11,0,0,0-.46.61,3.43,3.43,0,0,0-.16,1.11v1.54a1.85,1.85,0,0,0,.17.94c.1.17.26.2.46.08a1.1,1.1,0,0,0,.46-.61,3.3,3.3,0,0,0,.16-1.13Z" style="fill:#50B2C0;opacity:0.30000000000000004"></path><path d="M257.52,275l.53-.41v-3.93l-.54.32v-.44l1-.91v4.7l.52-.2v.45l-1.51.87Z" style="fill:#50B2C0"></path><path d="M259.31,279.79a4.37,4.37,0,0,1-.29,1.71,2,2,0,0,1-.79,1c-.34.19-.6.16-.79-.08a2.29,2.29,0,0,1-.3-1.37V279.8a4.56,4.56,0,0,1,.29-1.71,2,2,0,0,1,.79-1c.34-.2.61-.17.8.08a2.26,2.26,0,0,1,.29,1.37Zm-.46-1.13a1.86,1.86,0,0,0-.16-.93c-.11-.17-.26-.19-.47-.07a1.11,1.11,0,0,0-.46.61,3.43,3.43,0,0,0-.16,1.11v1.54a1.85,1.85,0,0,0,.17.94c.1.17.26.2.46.08a1.1,1.1,0,0,0,.46-.61,3.3,3.3,0,0,0,.16-1.13Z" style="fill:#50B2C0;opacity:0.15"></path><path d="M257.52,289.76l.53-.41v-3.93l-.54.32v-.44l1-.91v4.7l.52-.2v.45l-1.51.87Z" style="fill:#50B2C0;opacity:0.30000000000000004"></path><path d="M259.31,294.56a4.37,4.37,0,0,1-.29,1.71,2,2,0,0,1-.79,1c-.34.19-.6.16-.79-.08a2.29,2.29,0,0,1-.3-1.37v-1.25a4.56,4.56,0,0,1,.29-1.71,2,2,0,0,1,.79-1c.34-.2.61-.17.8.08a2.26,2.26,0,0,1,.29,1.37Zm-.46-1.13a1.86,1.86,0,0,0-.16-.93c-.11-.17-.26-.19-.47-.07a1.11,1.11,0,0,0-.46.61,3.43,3.43,0,0,0-.16,1.11v1.54a1.85,1.85,0,0,0,.17.94c.1.17.26.2.46.08a1.1,1.1,0,0,0,.46-.61,3.3,3.3,0,0,0,.16-1.13Z" style="fill:#50B2C0"></path><path d="M252.59,217.21a4.37,4.37,0,0,1-.29,1.71,1.92,1.92,0,0,1-.79,1c-.34.19-.6.17-.8-.08a2.33,2.33,0,0,1-.29-1.37v-1.24a4.56,4.56,0,0,1,.29-1.71,2,2,0,0,1,.79-1c.34-.19.6-.17.8.08a2.38,2.38,0,0,1,.29,1.37Zm-.46-1.13a1.81,1.81,0,0,0-.16-.93c-.11-.17-.26-.2-.47-.08a1.14,1.14,0,0,0-.46.61,3.46,3.46,0,0,0-.16,1.12v1.54a2,2,0,0,0,.16.94.32.32,0,0,0,.47.08,1.12,1.12,0,0,0,.46-.62,3.24,3.24,0,0,0,.16-1.12Z" style="fill:#50B2C0"></path><path d="M250.8,227.17l.53-.4v-3.93l-.54.32v-.44l1-.91v4.69l.52-.2v.46l-1.51.87Z" style="fill:#50B2C0"></path><path d="M250.8,234.56l.53-.41v-3.93l-.54.32v-.44l1-.91v4.7l.52-.2v.45l-1.51.87Z" style="fill:#50B2C0;opacity:0.15"></path><path d="M250.8,241.94l.53-.4v-3.93l-.54.32v-.44l1-.91v4.69l.52-.2v.46l-1.51.87Z" style="fill:#50B2C0;opacity:0.30000000000000004"></path><path d="M252.59,246.75a4.37,4.37,0,0,1-.29,1.71,1.92,1.92,0,0,1-.79,1c-.34.19-.6.17-.8-.08a2.33,2.33,0,0,1-.29-1.37v-1.24a4.56,4.56,0,0,1,.29-1.71,2,2,0,0,1,.79-1c.34-.19.6-.17.8.08a2.38,2.38,0,0,1,.29,1.37Zm-.46-1.13a1.81,1.81,0,0,0-.16-.93c-.11-.17-.26-.2-.47-.08a1.14,1.14,0,0,0-.46.61,3.5,3.5,0,0,0-.16,1.12v1.54a2,2,0,0,0,.16.94c.11.17.27.19.47.08a1.12,1.12,0,0,0,.46-.62,3.2,3.2,0,0,0,.16-1.12Z" style="fill:#50B2C0"></path><path d="M252.59,254.13a4.37,4.37,0,0,1-.29,1.71,2,2,0,0,1-.79,1,.57.57,0,0,1-.8-.08,2.38,2.38,0,0,1-.29-1.37v-1.25a4.56,4.56,0,0,1,.29-1.71,2,2,0,0,1,.79-1c.34-.2.6-.17.8.08a2.33,2.33,0,0,1,.29,1.37Zm-.46-1.13a1.86,1.86,0,0,0-.16-.93c-.11-.17-.26-.19-.47-.07a1.11,1.11,0,0,0-.46.61,3.43,3.43,0,0,0-.16,1.11v1.54a2,2,0,0,0,.16.94.31.31,0,0,0,.47.08,1.1,1.1,0,0,0,.46-.61,3.3,3.3,0,0,0,.16-1.13Z" style="fill:#50B2C0;opacity:0.30000000000000004"></path><path d="M250.8,264.1l.53-.41v-3.93l-.54.32v-.44l1-.91v4.7l.52-.2v.45l-1.51.87Z" style="fill:#50B2C0"></path><path d="M252.59,268.9a4.37,4.37,0,0,1-.29,1.71,2,2,0,0,1-.79,1,.57.57,0,0,1-.8-.08,2.38,2.38,0,0,1-.29-1.37v-1.25a4.56,4.56,0,0,1,.29-1.71,2,2,0,0,1,.79-1c.34-.2.6-.17.8.08a2.33,2.33,0,0,1,.29,1.37Zm-.46-1.13a1.86,1.86,0,0,0-.16-.93c-.11-.17-.26-.19-.47-.07a1.11,1.11,0,0,0-.46.61,3.43,3.43,0,0,0-.16,1.11V270a2,2,0,0,0,.16.94.31.31,0,0,0,.47.08,1.1,1.1,0,0,0,.46-.61,3.3,3.3,0,0,0,.16-1.13Z" style="fill:#50B2C0"></path><path d="M250.8,278.87l.53-.4v-3.94l-.54.33v-.45l1-.91v4.7l.52-.2v.45l-1.51.87Z" style="fill:#50B2C0;opacity:0.30000000000000004"></path><path d="M252.59,283.67a4.37,4.37,0,0,1-.29,1.71,2,2,0,0,1-.79,1,.57.57,0,0,1-.8-.08,2.38,2.38,0,0,1-.29-1.37v-1.25a4.56,4.56,0,0,1,.29-1.71,2,2,0,0,1,.79-1c.34-.2.6-.17.8.08a2.33,2.33,0,0,1,.29,1.37Zm-.46-1.13a1.86,1.86,0,0,0-.16-.93c-.11-.17-.26-.19-.47-.07a1.11,1.11,0,0,0-.46.61,3.43,3.43,0,0,0-.16,1.11v1.54a2,2,0,0,0,.16.94.31.31,0,0,0,.47.08,1.1,1.1,0,0,0,.46-.61,3.3,3.3,0,0,0,.16-1.13Z" style="fill:#50B2C0;opacity:0.30000000000000004"></path><path d="M250.8,293.64l.53-.41V289.3l-.54.32v-.44l1-.91V293l.52-.2v.45l-1.51.87Z" style="fill:#50B2C0"></path><path d="M252.59,298.44a4.37,4.37,0,0,1-.29,1.71,2,2,0,0,1-.79,1,.57.57,0,0,1-.8-.08,2.38,2.38,0,0,1-.29-1.37v-1.25a4.56,4.56,0,0,1,.29-1.71,2,2,0,0,1,.79-1c.34-.2.6-.17.8.08a2.33,2.33,0,0,1,.29,1.37Zm-.46-1.13a1.86,1.86,0,0,0-.16-.93c-.11-.17-.26-.19-.47-.07a1.11,1.11,0,0,0-.46.61,3.43,3.43,0,0,0-.16,1.11v1.54a2,2,0,0,0,.16.94.31.31,0,0,0,.47.08A1.1,1.1,0,0,0,252,300a3.3,3.3,0,0,0,.16-1.13Z" style="fill:#50B2C0;opacity:0.30000000000000004"></path><path d="M244.08,223.67l.53-.41v-3.93l-.54.32v-.44l1-.91V223l.52-.2v.45l-1.51.87Z" style="fill:#50B2C0"></path><path d="M244.08,231.05l.53-.4v-3.93l-.54.32v-.44l1-.91v4.69l.52-.2v.46l-1.51.87Z" style="fill:#50B2C0;opacity:0.30000000000000004"></path><path d="M245.87,235.86a4.37,4.37,0,0,1-.29,1.71,1.92,1.92,0,0,1-.79,1c-.34.19-.6.17-.8-.08a2.33,2.33,0,0,1-.29-1.37v-1.24a4.56,4.56,0,0,1,.29-1.71,2,2,0,0,1,.79-1c.34-.19.6-.17.8.08a2.38,2.38,0,0,1,.29,1.37Zm-.46-1.13a1.81,1.81,0,0,0-.16-.93c-.11-.17-.26-.2-.47-.08a1.14,1.14,0,0,0-.46.61,3.24,3.24,0,0,0-.16,1.12V237a2,2,0,0,0,.16.94c.11.17.27.19.47.08a1.12,1.12,0,0,0,.46-.62,3.24,3.24,0,0,0,.16-1.12Z" style="fill:#50B2C0"></path><path d="M244.08,245.82l.53-.4v-3.93l-.54.32v-.44l1-.91v4.69l.52-.2v.46l-1.51.87Z" style="fill:#50B2C0;opacity:0.30000000000000004"></path><path d="M245.87,250.63a4.37,4.37,0,0,1-.29,1.71,1.92,1.92,0,0,1-.79,1c-.34.19-.6.17-.8-.08a2.33,2.33,0,0,1-.29-1.37v-1.24a4.56,4.56,0,0,1,.29-1.71,2,2,0,0,1,.79-1c.34-.19.6-.17.8.08a2.38,2.38,0,0,1,.29,1.37Zm-.46-1.13a1.81,1.81,0,0,0-.16-.93c-.11-.17-.26-.2-.47-.08a1.14,1.14,0,0,0-.46.61,3.24,3.24,0,0,0-.16,1.12v1.54a2,2,0,0,0,.16.94c.11.17.27.19.47.08a1.12,1.12,0,0,0,.46-.62,3.2,3.2,0,0,0,.16-1.12Z" style="fill:#50B2C0;opacity:0.15"></path><path d="M245.87,258a4.37,4.37,0,0,1-.29,1.71,2,2,0,0,1-.79,1,.57.57,0,0,1-.8-.08,2.38,2.38,0,0,1-.29-1.37V258a4.56,4.56,0,0,1,.29-1.71,1.92,1.92,0,0,1,.79-1c.34-.2.6-.17.8.08a2.33,2.33,0,0,1,.29,1.37Zm-.46-1.13a1.86,1.86,0,0,0-.16-.93c-.11-.17-.26-.19-.47-.07a1.11,1.11,0,0,0-.46.61,3.18,3.18,0,0,0-.16,1.11v1.54a2,2,0,0,0,.16.94.31.31,0,0,0,.47.08,1.1,1.1,0,0,0,.46-.61,3.3,3.3,0,0,0,.16-1.13Z" style="fill:#50B2C0"></path><path d="M244.08,268l.53-.41v-3.93l-.54.33v-.45l1-.91v4.7l.52-.2v.45l-1.51.87Z" style="fill:#50B2C0;opacity:0.30000000000000004"></path><path d="M245.87,272.78a4.37,4.37,0,0,1-.29,1.71,2,2,0,0,1-.79,1,.57.57,0,0,1-.8-.08,2.38,2.38,0,0,1-.29-1.37v-1.25a4.56,4.56,0,0,1,.29-1.71,1.92,1.92,0,0,1,.79-1c.34-.2.6-.17.8.08a2.33,2.33,0,0,1,.29,1.37Zm-.46-1.13a1.86,1.86,0,0,0-.16-.93c-.11-.17-.26-.19-.47-.07a1.11,1.11,0,0,0-.46.61,3.18,3.18,0,0,0-.16,1.11v1.54a2,2,0,0,0,.16.94.31.31,0,0,0,.47.08,1.1,1.1,0,0,0,.46-.61,3.3,3.3,0,0,0,.16-1.13Z" style="fill:#50B2C0;opacity:0.30000000000000004"></path><path d="M245.87,280.17a4.37,4.37,0,0,1-.29,1.71,1.92,1.92,0,0,1-.79,1c-.34.19-.6.17-.8-.08a2.33,2.33,0,0,1-.29-1.37v-1.24a4.56,4.56,0,0,1,.29-1.71,2,2,0,0,1,.79-1c.34-.19.6-.17.8.08a2.38,2.38,0,0,1,.29,1.37Zm-.46-1.13a1.83,1.83,0,0,0-.16-.93c-.11-.17-.26-.2-.47-.08a1.14,1.14,0,0,0-.46.61,3.24,3.24,0,0,0-.16,1.12v1.54a2,2,0,0,0,.16.94c.11.17.27.19.47.08a1.12,1.12,0,0,0,.46-.62,3.2,3.2,0,0,0,.16-1.12Z" style="fill:#50B2C0"></path><path d="M244.08,290.14l.53-.41V285.8l-.54.32v-.44l1-.91v4.69l.52-.2v.46l-1.51.87Z" style="fill:#50B2C0;opacity:0.30000000000000004"></path><path d="M244.08,297.52l.53-.4v-3.94l-.54.33v-.45l1-.91v4.7l.52-.2v.45l-1.51.87Z" style="fill:#50B2C0;opacity:0.15"></path><path d="M245.87,302.32a4.37,4.37,0,0,1-.29,1.71,2,2,0,0,1-.79,1,.57.57,0,0,1-.8-.08,2.36,2.36,0,0,1-.29-1.37v-1.25a4.6,4.6,0,0,1,.29-1.71,1.92,1.92,0,0,1,.79-1c.34-.2.6-.17.8.08a2.33,2.33,0,0,1,.29,1.37Zm-.46-1.13a1.86,1.86,0,0,0-.16-.93c-.11-.17-.26-.19-.47-.07a1.11,1.11,0,0,0-.46.61,3.18,3.18,0,0,0-.16,1.11v1.54a2,2,0,0,0,.16.94.31.31,0,0,0,.47.08,1.1,1.1,0,0,0,.46-.61,3.3,3.3,0,0,0,.16-1.13Z" style="fill:#50B2C0;opacity:0.30000000000000004"></path></g><g id="freepik--binary--inject-4"><path d="M277.62,204.3l.53-.4V200l-.54.33v-.45l1-.9v4.69l.53-.2v.45l-1.52.88Z" style="fill:#50B2C0"></path><path d="M279.41,209.11a4.28,4.28,0,0,1-.29,1.7,1.9,1.9,0,0,1-.79,1c-.33.19-.6.17-.79-.08a2.27,2.27,0,0,1-.3-1.37v-1.24a4.56,4.56,0,0,1,.29-1.71,2,2,0,0,1,.8-1c.33-.19.6-.17.79.08a2.28,2.28,0,0,1,.29,1.37ZM279,208a1.88,1.88,0,0,0-.16-.94c-.1-.16-.26-.19-.46-.07a1.11,1.11,0,0,0-.47.61,3.46,3.46,0,0,0-.16,1.12v1.54a1.83,1.83,0,0,0,.17.93c.1.17.26.2.46.08a1.12,1.12,0,0,0,.47-.61,3.53,3.53,0,0,0,.15-1.12Z" style="fill:#50B2C0;opacity:0.15"></path><path d="M277.62,219.07l.53-.4v-3.94l-.54.33v-.45l1-.9v4.69l.53-.2v.45l-1.52.88Z" style="fill:#50B2C0"></path><path d="M279.41,223.88a4.37,4.37,0,0,1-.29,1.71,1.92,1.92,0,0,1-.79,1c-.33.19-.6.17-.79-.08a2.25,2.25,0,0,1-.3-1.37v-1.24a4.56,4.56,0,0,1,.29-1.71,2,2,0,0,1,.8-1c.33-.19.6-.17.79.08a2.28,2.28,0,0,1,.29,1.37Zm-.46-1.13a1.88,1.88,0,0,0-.16-.94c-.1-.16-.26-.19-.46-.07a1.11,1.11,0,0,0-.47.61,3.46,3.46,0,0,0-.16,1.12V225a1.83,1.83,0,0,0,.17.93c.1.17.26.2.46.08a1.12,1.12,0,0,0,.47-.61,3.53,3.53,0,0,0,.15-1.12Z" style="fill:#50B2C0;opacity:0.30000000000000004"></path><path d="M277.62,233.84l.53-.4V229.5l-.54.33v-.45l1-.9v4.69l.53-.2v.45l-1.52.88Z" style="fill:#50B2C0;opacity:0.30000000000000004"></path><path d="M277.62,241.23l.53-.41v-3.93l-.54.32v-.44l1-.91v4.7l.53-.21v.46l-1.52.87Z" style="fill:#50B2C0"></path><path d="M277.62,248.61l.53-.4v-3.94l-.54.33v-.45l1-.9v4.69l.53-.2v.45l-1.52.88Z" style="fill:#50B2C0;opacity:0.15"></path><path d="M279.41,253.42a4.37,4.37,0,0,1-.29,1.71,1.92,1.92,0,0,1-.79,1c-.33.19-.6.17-.79-.08a2.27,2.27,0,0,1-.3-1.37v-1.24a4.56,4.56,0,0,1,.29-1.71,2,2,0,0,1,.8-1c.33-.19.6-.17.79.08a2.28,2.28,0,0,1,.29,1.37Zm-.46-1.13a1.88,1.88,0,0,0-.16-.94c-.1-.16-.26-.19-.46-.07a1.11,1.11,0,0,0-.47.61,3.46,3.46,0,0,0-.16,1.12v1.54a1.83,1.83,0,0,0,.17.93c.1.17.26.2.46.08a1.12,1.12,0,0,0,.47-.61,3.53,3.53,0,0,0,.15-1.12Z" style="fill:#50B2C0;opacity:0.30000000000000004"></path><path d="M277.62,263.38l.53-.4V259l-.54.33v-.45l1-.9v4.69l.53-.2V263l-1.52.88Z" style="fill:#50B2C0"></path><path d="M279.41,268.19a4.37,4.37,0,0,1-.29,1.71,1.92,1.92,0,0,1-.79,1c-.33.19-.6.17-.79-.08a2.25,2.25,0,0,1-.3-1.37V268.2a4.56,4.56,0,0,1,.29-1.71,2,2,0,0,1,.8-1c.33-.19.6-.17.79.08a2.28,2.28,0,0,1,.29,1.37Zm-.46-1.13a1.88,1.88,0,0,0-.16-.94c-.1-.16-.26-.19-.46-.07a1.11,1.11,0,0,0-.47.61,3.46,3.46,0,0,0-.16,1.12v1.54a1.83,1.83,0,0,0,.17.93c.1.17.26.2.46.08a1.12,1.12,0,0,0,.47-.61,3.53,3.53,0,0,0,.15-1.12Z" style="fill:#50B2C0;opacity:0.15"></path><path d="M277.62,278.15l.53-.4v-3.94l-.54.33v-.45l1-.9v4.69l.53-.2v.45l-1.52.88Z" style="fill:#50B2C0;opacity:0.30000000000000004"></path><path d="M279.41,283a4.37,4.37,0,0,1-.29,1.71,1.92,1.92,0,0,1-.79,1c-.33.19-.6.17-.79-.08a2.25,2.25,0,0,1-.3-1.37V283a4.56,4.56,0,0,1,.29-1.71,2,2,0,0,1,.8-1c.33-.19.6-.17.79.08a2.28,2.28,0,0,1,.29,1.37Zm-.46-1.13a1.88,1.88,0,0,0-.16-.94c-.1-.16-.26-.19-.46-.07a1.11,1.11,0,0,0-.47.61,3.46,3.46,0,0,0-.16,1.12v1.54a1.83,1.83,0,0,0,.17.93c.1.17.26.2.46.08a1.12,1.12,0,0,0,.47-.61,3.53,3.53,0,0,0,.15-1.12Z" style="fill:#50B2C0"></path><path d="M272.69,205.6a4.37,4.37,0,0,1-.29,1.71,1.92,1.92,0,0,1-.79,1c-.33.2-.6.17-.79-.07a2.3,2.3,0,0,1-.3-1.38v-1.24a4.56,4.56,0,0,1,.29-1.71,2,2,0,0,1,.79-1c.34-.2.61-.17.8.07a2.32,2.32,0,0,1,.29,1.38Zm-.46-1.13a1.86,1.86,0,0,0-.16-.93c-.11-.17-.26-.19-.47-.08a1.13,1.13,0,0,0-.46.62,3.43,3.43,0,0,0-.16,1.11v1.54a1.85,1.85,0,0,0,.17.94c.1.17.26.2.46.08a1.09,1.09,0,0,0,.46-.62,3.2,3.2,0,0,0,.16-1.12Z" style="fill:#50B2C0"></path><path d="M270.9,215.57l.53-.41v-3.93l-.54.32v-.44l1-.91v4.7l.52-.21v.46l-1.51.87Z" style="fill:#50B2C0"></path><path d="M270.9,223l.53-.4v-3.94l-.54.33v-.45l1-.9v4.69l.52-.2v.45l-1.51.88Z" style="fill:#50B2C0;opacity:0.15"></path><path d="M270.9,230.34l.53-.41V226l-.54.32v-.44l1-.91v4.7l.52-.2v.45l-1.51.87Z" style="fill:#50B2C0;opacity:0.30000000000000004"></path><path d="M272.69,235.14a4.37,4.37,0,0,1-.29,1.71,2,2,0,0,1-.79,1,.56.56,0,0,1-.79-.08,2.3,2.3,0,0,1-.3-1.38v-1.24a4.56,4.56,0,0,1,.29-1.71,2,2,0,0,1,.79-1c.34-.2.61-.17.8.07a2.32,2.32,0,0,1,.29,1.38Zm-.46-1.13a1.86,1.86,0,0,0-.16-.93c-.11-.17-.26-.19-.47-.08a1.13,1.13,0,0,0-.46.62,3.43,3.43,0,0,0-.16,1.11v1.54a1.85,1.85,0,0,0,.17.94c.1.17.26.2.46.08a1.1,1.1,0,0,0,.46-.61,3.3,3.3,0,0,0,.16-1.13Z" style="fill:#50B2C0"></path><path d="M272.69,242.53a4.37,4.37,0,0,1-.29,1.71,2,2,0,0,1-.79,1c-.33.19-.6.17-.79-.08a2.25,2.25,0,0,1-.3-1.37v-1.24a4.56,4.56,0,0,1,.29-1.71,2,2,0,0,1,.79-1c.34-.19.61-.17.8.08a2.28,2.28,0,0,1,.29,1.37Zm-.46-1.13a1.88,1.88,0,0,0-.16-.94c-.11-.16-.26-.19-.47-.07a1.14,1.14,0,0,0-.46.61,3.46,3.46,0,0,0-.16,1.12v1.54a1.83,1.83,0,0,0,.17.93c.1.17.26.2.46.08a1.06,1.06,0,0,0,.46-.61,3.24,3.24,0,0,0,.16-1.12Z" style="fill:#50B2C0;opacity:0.30000000000000004"></path><path d="M270.9,252.49l.53-.4v-3.94l-.54.33V248l1-.91v4.69l.52-.2v.45l-1.51.88Z" style="fill:#50B2C0"></path><path d="M272.69,257.3a4.37,4.37,0,0,1-.29,1.71,2,2,0,0,1-.79,1c-.33.19-.6.17-.79-.08a2.25,2.25,0,0,1-.3-1.37v-1.24a4.56,4.56,0,0,1,.29-1.71,2,2,0,0,1,.79-1c.34-.19.61-.17.8.08a2.28,2.28,0,0,1,.29,1.37Zm-.46-1.13a1.88,1.88,0,0,0-.16-.94c-.11-.16-.26-.19-.47-.07a1.14,1.14,0,0,0-.46.61,3.46,3.46,0,0,0-.16,1.12v1.54a1.83,1.83,0,0,0,.17.93c.1.17.26.2.46.08a1.06,1.06,0,0,0,.46-.61,3.24,3.24,0,0,0,.16-1.12Z" style="fill:#50B2C0"></path><path d="M270.9,267.26l.53-.4v-3.93l-.54.32v-.44l1-.91v4.69l.52-.2v.46l-1.51.87Z" style="fill:#50B2C0;opacity:0.30000000000000004"></path><path d="M272.69,272.07a4.37,4.37,0,0,1-.29,1.71,1.92,1.92,0,0,1-.79,1c-.33.19-.6.17-.79-.08a2.25,2.25,0,0,1-.3-1.37v-1.24a4.56,4.56,0,0,1,.29-1.71,2,2,0,0,1,.79-1c.34-.19.61-.17.8.08a2.28,2.28,0,0,1,.29,1.37Zm-.46-1.13a1.88,1.88,0,0,0-.16-.94c-.11-.16-.26-.19-.47-.07a1.14,1.14,0,0,0-.46.61,3.46,3.46,0,0,0-.16,1.12v1.54a1.83,1.83,0,0,0,.17.93c.1.17.26.2.46.08a1.06,1.06,0,0,0,.46-.61,3.24,3.24,0,0,0,.16-1.12Z" style="fill:#50B2C0;opacity:0.30000000000000004"></path><path d="M270.9,282l.53-.4v-3.94l-.54.33v-.45l1-.9v4.69l.52-.2v.45l-1.51.88Z" style="fill:#50B2C0"></path><path d="M272.69,286.84a4.37,4.37,0,0,1-.29,1.71,2,2,0,0,1-.79,1c-.33.19-.6.17-.79-.08a2.25,2.25,0,0,1-.3-1.37v-1.24a4.56,4.56,0,0,1,.29-1.71,2,2,0,0,1,.79-1c.34-.19.61-.17.8.08a2.28,2.28,0,0,1,.29,1.37Zm-.46-1.13a1.88,1.88,0,0,0-.16-.94c-.11-.16-.26-.19-.47-.07a1.14,1.14,0,0,0-.46.61,3.46,3.46,0,0,0-.16,1.12V288a1.83,1.83,0,0,0,.17.93c.1.17.26.2.46.08a1.06,1.06,0,0,0,.46-.61,3.24,3.24,0,0,0,.16-1.12Z" style="fill:#50B2C0;opacity:0.30000000000000004"></path><path d="M264.18,212.06l.53-.4v-3.94l-.54.33v-.44l1-.91v4.69l.52-.2v.45l-1.51.88Z" style="fill:#50B2C0"></path><path d="M264.18,219.45l.53-.41v-3.93l-.54.32V215l1-.91v4.7l.52-.21V219l-1.51.87Z" style="fill:#50B2C0;opacity:0.30000000000000004"></path><path d="M266,224.25a4.37,4.37,0,0,1-.29,1.71,2,2,0,0,1-.79,1,.57.57,0,0,1-.8-.08,2.39,2.39,0,0,1-.29-1.38v-1.24a4.56,4.56,0,0,1,.29-1.71,2,2,0,0,1,.79-1c.34-.2.6-.17.8.07A2.32,2.32,0,0,1,266,223Zm-.46-1.13a1.86,1.86,0,0,0-.16-.93c-.11-.17-.26-.19-.47-.08a1.13,1.13,0,0,0-.46.62,3.43,3.43,0,0,0-.16,1.11v1.54a2,2,0,0,0,.16.94.31.31,0,0,0,.47.08,1.09,1.09,0,0,0,.46-.62,3.2,3.2,0,0,0,.16-1.12Z" style="fill:#50B2C0"></path><path d="M264.18,234.22l.53-.41v-3.93l-.54.32v-.44l1-.91v4.7l.52-.2v.45l-1.51.87Z" style="fill:#50B2C0;opacity:0.30000000000000004"></path><path d="M266,239a4.37,4.37,0,0,1-.29,1.71,2,2,0,0,1-.79,1,.57.57,0,0,1-.8-.08,2.38,2.38,0,0,1-.29-1.37V239a4.56,4.56,0,0,1,.29-1.71,2,2,0,0,1,.79-1c.34-.2.6-.17.8.08a2.26,2.26,0,0,1,.29,1.37Zm-.46-1.13a1.86,1.86,0,0,0-.16-.93c-.11-.17-.26-.19-.47-.08a1.17,1.17,0,0,0-.46.62,3.43,3.43,0,0,0-.16,1.11v1.54a2,2,0,0,0,.16.94.31.31,0,0,0,.47.08,1.1,1.1,0,0,0,.46-.61,3.3,3.3,0,0,0,.16-1.13Z" style="fill:#50B2C0;opacity:0.15"></path><path d="M266,246.41a4.37,4.37,0,0,1-.29,1.71,2,2,0,0,1-.79,1c-.34.19-.6.17-.8-.08a2.33,2.33,0,0,1-.29-1.37v-1.24a4.56,4.56,0,0,1,.29-1.71,2,2,0,0,1,.79-1c.34-.19.6-.17.8.08a2.28,2.28,0,0,1,.29,1.37Zm-.46-1.13a1.88,1.88,0,0,0-.16-.94c-.11-.16-.26-.19-.47-.07a1.14,1.14,0,0,0-.46.61,3.46,3.46,0,0,0-.16,1.12v1.54a2,2,0,0,0,.16.93.32.32,0,0,0,.47.09,1.12,1.12,0,0,0,.46-.62,3.24,3.24,0,0,0,.16-1.12Z" style="fill:#50B2C0"></path><path d="M264.18,256.37l.53-.4V252l-.54.33v-.44l1-.91v4.69l.52-.2V256l-1.51.88Z" style="fill:#50B2C0;opacity:0.30000000000000004"></path><path d="M266,261.18a4.37,4.37,0,0,1-.29,1.71,2,2,0,0,1-.79,1c-.34.19-.6.17-.8-.08a2.33,2.33,0,0,1-.29-1.37v-1.24a4.56,4.56,0,0,1,.29-1.71,2,2,0,0,1,.79-1c.34-.19.6-.17.8.08a2.28,2.28,0,0,1,.29,1.37Zm-.46-1.13a1.88,1.88,0,0,0-.16-.94c-.11-.16-.26-.19-.47-.07a1.14,1.14,0,0,0-.46.61,3.46,3.46,0,0,0-.16,1.12v1.54a2,2,0,0,0,.16.93.32.32,0,0,0,.47.09,1.12,1.12,0,0,0,.46-.62,3.24,3.24,0,0,0,.16-1.12Z" style="fill:#50B2C0;opacity:0.30000000000000004"></path><path d="M266,268.56a4.37,4.37,0,0,1-.29,1.71,2,2,0,0,1-.79,1,.57.57,0,0,1-.8-.08,2.38,2.38,0,0,1-.29-1.37v-1.25a4.56,4.56,0,0,1,.29-1.71,2,2,0,0,1,.79-1c.34-.2.6-.17.8.08a2.26,2.26,0,0,1,.29,1.37Zm-.46-1.13a1.86,1.86,0,0,0-.16-.93c-.11-.17-.26-.19-.47-.07a1.11,1.11,0,0,0-.46.61,3.43,3.43,0,0,0-.16,1.11v1.54a2,2,0,0,0,.16.94.31.31,0,0,0,.47.08,1.1,1.1,0,0,0,.46-.61,3.3,3.3,0,0,0,.16-1.13Z" style="fill:#50B2C0"></path><path d="M264.18,278.53l.53-.41v-3.93l-.54.32v-.44l1-.91v4.7l.52-.2v.45l-1.51.87Z" style="fill:#50B2C0;opacity:0.30000000000000004"></path><path d="M264.18,285.91l.53-.4v-3.93l-.54.32v-.44l1-.91v4.69l.52-.2v.46l-1.51.87Z" style="fill:#50B2C0;opacity:0.15"></path><path d="M266,290.72a4.37,4.37,0,0,1-.29,1.71,1.92,1.92,0,0,1-.79,1c-.34.19-.6.17-.8-.08a2.33,2.33,0,0,1-.29-1.37v-1.24a4.56,4.56,0,0,1,.29-1.71,2,2,0,0,1,.79-1c.34-.19.6-.17.8.08a2.3,2.3,0,0,1,.29,1.37Zm-.46-1.13a1.81,1.81,0,0,0-.16-.93c-.11-.17-.26-.2-.47-.08a1.14,1.14,0,0,0-.46.61,3.46,3.46,0,0,0-.16,1.12v1.54a2,2,0,0,0,.16.94.32.32,0,0,0,.47.08,1.12,1.12,0,0,0,.46-.62,3.24,3.24,0,0,0,.16-1.12Z" style="fill:#50B2C0;opacity:0.30000000000000004"></path></g><g id="freepik--binary--inject-4"><path d="M297.72,192.7l.53-.41v-3.93l-.54.32v-.44l1-.91V192l.53-.21v.46l-1.52.87Z" style="fill:#50B2C0"></path><path d="M299.52,197.5a4.56,4.56,0,0,1-.29,1.71,1.94,1.94,0,0,1-.8,1c-.33.2-.6.17-.79-.08a2.26,2.26,0,0,1-.29-1.37v-1.24a4.57,4.57,0,0,1,.28-1.71,2,2,0,0,1,.8-1,.56.56,0,0,1,.79.08,2.3,2.3,0,0,1,.3,1.38Zm-.47-1.13a1.86,1.86,0,0,0-.16-.93c-.1-.17-.26-.2-.46-.08a1.1,1.1,0,0,0-.46.61,3.24,3.24,0,0,0-.16,1.12v1.54a1.88,1.88,0,0,0,.16.94c.11.17.26.19.46.08a1.14,1.14,0,0,0,.47-.62,3.48,3.48,0,0,0,.15-1.12Z" style="fill:#50B2C0;opacity:0.15"></path><path d="M297.72,207.47l.53-.41v-3.93l-.54.32V203l1-.91v4.7l.53-.21v.46l-1.52.87Z" style="fill:#50B2C0"></path><path d="M299.52,212.27a4.56,4.56,0,0,1-.29,1.71,1.94,1.94,0,0,1-.8,1c-.33.2-.6.17-.79-.08a2.26,2.26,0,0,1-.29-1.37v-1.24a4.57,4.57,0,0,1,.28-1.71,2,2,0,0,1,.8-1,.56.56,0,0,1,.79.08,2.3,2.3,0,0,1,.3,1.38Zm-.47-1.13a1.86,1.86,0,0,0-.16-.93c-.1-.17-.26-.2-.46-.08a1.1,1.1,0,0,0-.46.61,3.28,3.28,0,0,0-.16,1.12v1.54a1.88,1.88,0,0,0,.16.94c.11.17.26.19.46.08a1.1,1.1,0,0,0,.47-.62,3.48,3.48,0,0,0,.15-1.12Z" style="fill:#50B2C0;opacity:0.30000000000000004"></path><path d="M297.72,222.24l.53-.41V217.9l-.54.32v-.44l1-.91v4.7l.53-.21v.46l-1.52.87Z" style="fill:#50B2C0;opacity:0.30000000000000004"></path><path d="M297.72,229.62l.53-.4v-3.94l-.54.33v-.45l1-.9V229l.53-.2v.45l-1.52.88Z" style="fill:#50B2C0"></path><path d="M297.72,237l.53-.41v-3.93l-.54.32v-.44l1-.91v4.7l.53-.21v.46l-1.52.87Z" style="fill:#50B2C0;opacity:0.15"></path><path d="M299.52,241.81a4.56,4.56,0,0,1-.29,1.71,1.94,1.94,0,0,1-.8,1c-.33.2-.6.17-.79-.08a2.26,2.26,0,0,1-.29-1.37v-1.24a4.57,4.57,0,0,1,.28-1.71,2,2,0,0,1,.8-1,.56.56,0,0,1,.79.08,2.3,2.3,0,0,1,.3,1.38Zm-.47-1.13a1.86,1.86,0,0,0-.16-.93c-.1-.17-.26-.2-.46-.08a1.1,1.1,0,0,0-.46.61,3.24,3.24,0,0,0-.16,1.12v1.54a1.88,1.88,0,0,0,.16.94c.11.17.26.19.46.08a1.14,1.14,0,0,0,.47-.62,3.48,3.48,0,0,0,.15-1.12Z" style="fill:#50B2C0;opacity:0.30000000000000004"></path><path d="M297.72,251.78l.53-.41v-3.93l-.54.32v-.44l1-.91v4.7l.53-.21v.46l-1.52.87Z" style="fill:#50B2C0"></path><path d="M299.52,256.58a4.56,4.56,0,0,1-.29,1.71,1.94,1.94,0,0,1-.8,1c-.33.2-.6.17-.79-.08a2.26,2.26,0,0,1-.29-1.37v-1.24a4.57,4.57,0,0,1,.28-1.71,2,2,0,0,1,.8-1,.56.56,0,0,1,.79.08,2.3,2.3,0,0,1,.3,1.38Zm-.47-1.13a1.86,1.86,0,0,0-.16-.93c-.1-.17-.26-.2-.46-.08a1.1,1.1,0,0,0-.46.61,3.28,3.28,0,0,0-.16,1.12v1.54a1.88,1.88,0,0,0,.16.94c.11.17.26.19.46.08a1.1,1.1,0,0,0,.47-.62,3.48,3.48,0,0,0,.15-1.12Z" style="fill:#50B2C0;opacity:0.15"></path><path d="M297.72,266.55l.53-.41v-3.93l-.54.32v-.44l1-.91v4.7l.53-.21v.46l-1.52.87Z" style="fill:#50B2C0;opacity:0.30000000000000004"></path><path d="M299.52,271.35a4.56,4.56,0,0,1-.29,1.71,1.94,1.94,0,0,1-.8,1c-.33.2-.6.17-.79-.08a2.26,2.26,0,0,1-.29-1.37v-1.24a4.57,4.57,0,0,1,.28-1.71,2,2,0,0,1,.8-1,.56.56,0,0,1,.79.08,2.3,2.3,0,0,1,.3,1.38Zm-.47-1.13a1.86,1.86,0,0,0-.16-.93c-.1-.17-.26-.2-.46-.08a1.1,1.1,0,0,0-.46.61,3.24,3.24,0,0,0-.16,1.12v1.54a1.88,1.88,0,0,0,.16.94c.11.17.26.19.46.08a1.1,1.1,0,0,0,.47-.62,3.48,3.48,0,0,0,.15-1.12Z" style="fill:#50B2C0"></path><path d="M292.79,194a4.48,4.48,0,0,1-.28,1.7,2,2,0,0,1-.8,1,.56.56,0,0,1-.79-.08,2.27,2.27,0,0,1-.3-1.37V194a4.54,4.54,0,0,1,.29-1.7,1.92,1.92,0,0,1,.8-1c.33-.19.6-.17.79.08a2.28,2.28,0,0,1,.29,1.37Zm-.46-1.13a1.88,1.88,0,0,0-.16-.94c-.1-.16-.26-.19-.46-.07a1.07,1.07,0,0,0-.47.61,3.48,3.48,0,0,0-.15,1.12v1.54a1.86,1.86,0,0,0,.16.93c.1.17.26.2.46.08a1.07,1.07,0,0,0,.47-.61,3.53,3.53,0,0,0,.15-1.12Z" style="fill:#50B2C0"></path><path d="M291,204l.53-.4v-3.94L291,200v-.45l1-.9v4.69l.53-.2v.45l-1.52.88Z" style="fill:#50B2C0"></path><path d="M291,211.35l.53-.41V207l-.54.32v-.44l1-.91v4.7l.53-.21v.46l-1.52.87Z" style="fill:#50B2C0;opacity:0.15"></path><path d="M291,218.73l.53-.4v-3.94l-.54.33v-.45l1-.9v4.69l.53-.2v.45l-1.52.88Z" style="fill:#50B2C0;opacity:0.30000000000000004"></path><path d="M292.79,223.54a4.48,4.48,0,0,1-.28,1.7,2,2,0,0,1-.8,1c-.33.19-.6.17-.79-.08a2.27,2.27,0,0,1-.3-1.37v-1.24a4.56,4.56,0,0,1,.29-1.71,1.92,1.92,0,0,1,.8-1c.33-.19.6-.17.79.08a2.28,2.28,0,0,1,.29,1.37Zm-.46-1.13a1.88,1.88,0,0,0-.16-.94c-.1-.16-.26-.19-.46-.07a1.07,1.07,0,0,0-.47.61,3.48,3.48,0,0,0-.15,1.12v1.54a1.86,1.86,0,0,0,.16.93c.1.17.26.2.46.08a1.07,1.07,0,0,0,.47-.61,3.53,3.53,0,0,0,.15-1.12Z" style="fill:#50B2C0"></path><path d="M292.79,230.92a4.57,4.57,0,0,1-.28,1.71,1.94,1.94,0,0,1-.8,1c-.33.2-.6.17-.79-.08a2.25,2.25,0,0,1-.3-1.37v-1.24a4.56,4.56,0,0,1,.29-1.71,2,2,0,0,1,.8-1,.56.56,0,0,1,.79.08,2.32,2.32,0,0,1,.29,1.38Zm-.46-1.13a1.86,1.86,0,0,0-.16-.93c-.1-.17-.26-.19-.46-.08a1.11,1.11,0,0,0-.47.61,3.57,3.57,0,0,0-.15,1.12v1.54a1.88,1.88,0,0,0,.16.94c.1.17.26.19.46.08a1.1,1.1,0,0,0,.47-.62,3.48,3.48,0,0,0,.15-1.12Z" style="fill:#50B2C0;opacity:0.30000000000000004"></path><path d="M291,240.89l.53-.41v-3.93l-.54.32v-.44l1-.91v4.7l.53-.21v.46l-1.52.87Z" style="fill:#50B2C0"></path><path d="M292.79,245.69a4.57,4.57,0,0,1-.28,1.71,1.94,1.94,0,0,1-.8,1c-.33.2-.6.17-.79-.08a2.25,2.25,0,0,1-.3-1.37V245.7a4.56,4.56,0,0,1,.29-1.71,2,2,0,0,1,.8-1,.56.56,0,0,1,.79.08,2.32,2.32,0,0,1,.29,1.38Zm-.46-1.13a1.86,1.86,0,0,0-.16-.93c-.1-.17-.26-.19-.46-.08a1.11,1.11,0,0,0-.47.61,3.57,3.57,0,0,0-.15,1.12v1.54a1.88,1.88,0,0,0,.16.94c.1.17.26.19.46.08a1.1,1.1,0,0,0,.47-.62,3.48,3.48,0,0,0,.15-1.12Z" style="fill:#50B2C0"></path><path d="M291,255.66l.53-.41v-3.93l-.54.32v-.44l1-.91V255l.53-.21v.46l-1.52.87Z" style="fill:#50B2C0;opacity:0.30000000000000004"></path><path d="M292.79,260.46a4.57,4.57,0,0,1-.28,1.71,1.94,1.94,0,0,1-.8,1c-.33.2-.6.17-.79-.08a2.25,2.25,0,0,1-.3-1.37v-1.24a4.56,4.56,0,0,1,.29-1.71,2,2,0,0,1,.8-1,.56.56,0,0,1,.79.08,2.32,2.32,0,0,1,.29,1.38Zm-.46-1.13a1.86,1.86,0,0,0-.16-.93c-.1-.17-.26-.19-.46-.08a1.11,1.11,0,0,0-.47.61,3.57,3.57,0,0,0-.15,1.12v1.54a1.88,1.88,0,0,0,.16.94c.1.17.26.2.46.08a1.1,1.1,0,0,0,.47-.62,3.48,3.48,0,0,0,.15-1.12Z" style="fill:#50B2C0;opacity:0.30000000000000004"></path><path d="M291,270.43l.53-.41v-3.93l-.54.32V266l1-.91v4.7l.53-.21V270l-1.52.87Z" style="fill:#50B2C0"></path><path d="M292.79,275.23a4.57,4.57,0,0,1-.28,1.71,1.94,1.94,0,0,1-.8,1c-.33.2-.6.17-.79-.08a2.25,2.25,0,0,1-.3-1.37v-1.24a4.56,4.56,0,0,1,.29-1.71,2,2,0,0,1,.8-1,.56.56,0,0,1,.79.08,2.32,2.32,0,0,1,.29,1.38Zm-.46-1.13a1.86,1.86,0,0,0-.16-.93c-.1-.17-.26-.2-.46-.08a1.11,1.11,0,0,0-.47.61,3.57,3.57,0,0,0-.15,1.12v1.54a1.88,1.88,0,0,0,.16.94c.1.17.26.19.46.08a1.1,1.1,0,0,0,.47-.62,3.48,3.48,0,0,0,.15-1.12Z" style="fill:#50B2C0;opacity:0.30000000000000004"></path><path d="M284.28,200.46l.53-.41v-3.93l-.54.32V196l1-.91v4.7l.53-.21V200l-1.52.87Z" style="fill:#50B2C0"></path><path d="M284.28,207.84l.53-.4V203.5l-.54.33v-.45l1-.9v4.69l.53-.2v.45l-1.52.88Z" style="fill:#50B2C0;opacity:0.30000000000000004"></path><path d="M286.07,212.65a4.28,4.28,0,0,1-.29,1.7,1.94,1.94,0,0,1-.79,1c-.33.19-.6.17-.79-.08a2.27,2.27,0,0,1-.3-1.37v-1.24a4.56,4.56,0,0,1,.29-1.71,2,2,0,0,1,.79-1c.34-.19.61-.17.8.08a2.28,2.28,0,0,1,.29,1.37Zm-.46-1.13a1.88,1.88,0,0,0-.16-.94c-.1-.16-.26-.19-.47-.07a1.11,1.11,0,0,0-.46.61,3.46,3.46,0,0,0-.16,1.12v1.54a1.83,1.83,0,0,0,.17.93c.1.17.26.2.46.08a1.06,1.06,0,0,0,.46-.61,3.24,3.24,0,0,0,.16-1.12Z" style="fill:#50B2C0"></path><path d="M284.28,222.61l.53-.4v-3.94l-.54.33v-.45l1-.9v4.69l.53-.2v.45l-1.52.88Z" style="fill:#50B2C0;opacity:0.30000000000000004"></path><path d="M286.07,227.42a4.28,4.28,0,0,1-.29,1.7,1.9,1.9,0,0,1-.79,1c-.33.19-.6.17-.79-.08a2.27,2.27,0,0,1-.3-1.37v-1.24a4.56,4.56,0,0,1,.29-1.71,2,2,0,0,1,.79-1c.34-.19.61-.17.8.08a2.28,2.28,0,0,1,.29,1.37Zm-.46-1.13a1.88,1.88,0,0,0-.16-.94c-.1-.16-.26-.19-.47-.07a1.11,1.11,0,0,0-.46.61,3.46,3.46,0,0,0-.16,1.12v1.54a1.83,1.83,0,0,0,.17.93c.1.17.26.2.46.08a1.06,1.06,0,0,0,.46-.61,3.24,3.24,0,0,0,.16-1.12Z" style="fill:#50B2C0;opacity:0.15"></path><path d="M286.07,234.8a4.37,4.37,0,0,1-.29,1.71,1.88,1.88,0,0,1-.79,1c-.33.2-.6.17-.79-.07a2.3,2.3,0,0,1-.3-1.38v-1.24a4.56,4.56,0,0,1,.29-1.71,2,2,0,0,1,.79-1c.34-.2.61-.17.8.07a2.32,2.32,0,0,1,.29,1.38Zm-.46-1.13a1.86,1.86,0,0,0-.16-.93c-.1-.17-.26-.19-.47-.08a1.14,1.14,0,0,0-.46.61,3.54,3.54,0,0,0-.16,1.12v1.54a1.85,1.85,0,0,0,.17.94c.1.17.26.2.46.08a1.09,1.09,0,0,0,.46-.62,3.2,3.2,0,0,0,.16-1.12Z" style="fill:#50B2C0"></path><path d="M284.28,244.77l.53-.41v-3.93l-.54.32v-.44l1-.91v4.7l.53-.21v.46l-1.52.87Z" style="fill:#50B2C0;opacity:0.30000000000000004"></path><path d="M286.07,249.57a4.37,4.37,0,0,1-.29,1.71,1.88,1.88,0,0,1-.79,1c-.33.2-.6.17-.79-.07a2.3,2.3,0,0,1-.3-1.38v-1.24a4.56,4.56,0,0,1,.29-1.71,2,2,0,0,1,.79-1c.34-.2.61-.17.8.07a2.32,2.32,0,0,1,.29,1.38Zm-.46-1.13a1.86,1.86,0,0,0-.16-.93c-.1-.17-.26-.19-.47-.08a1.14,1.14,0,0,0-.46.61,3.54,3.54,0,0,0-.16,1.12v1.54a1.85,1.85,0,0,0,.17.94c.1.17.26.19.46.08a1.09,1.09,0,0,0,.46-.62,3.2,3.2,0,0,0,.16-1.12Z" style="fill:#50B2C0;opacity:0.30000000000000004"></path><path d="M286.07,257a4.37,4.37,0,0,1-.29,1.71,1.92,1.92,0,0,1-.79,1c-.33.19-.6.17-.79-.08a2.25,2.25,0,0,1-.3-1.37V257a4.56,4.56,0,0,1,.29-1.71,2,2,0,0,1,.79-1c.34-.19.61-.17.8.08a2.28,2.28,0,0,1,.29,1.37Zm-.46-1.13a1.88,1.88,0,0,0-.16-.94c-.1-.16-.26-.19-.47-.07a1.14,1.14,0,0,0-.46.61,3.46,3.46,0,0,0-.16,1.12v1.54a1.83,1.83,0,0,0,.17.93c.1.17.26.2.46.08a1.06,1.06,0,0,0,.46-.61,3.24,3.24,0,0,0,.16-1.12Z" style="fill:#50B2C0"></path><path d="M284.28,266.92l.53-.4v-3.94l-.54.33v-.45l1-.9v4.69l.53-.2v.45l-1.52.88Z" style="fill:#50B2C0;opacity:0.30000000000000004"></path><path d="M284.28,274.31l.53-.41V270l-.54.32v-.44l1-.91v4.7l.53-.21v.46l-1.52.87Z" style="fill:#50B2C0;opacity:0.15"></path><path d="M286.07,279.11a4.37,4.37,0,0,1-.29,1.71,1.88,1.88,0,0,1-.79,1c-.33.2-.6.17-.79-.07a2.3,2.3,0,0,1-.3-1.38v-1.24a4.56,4.56,0,0,1,.29-1.71,2,2,0,0,1,.79-1c.34-.2.61-.17.8.07a2.32,2.32,0,0,1,.29,1.38Zm-.46-1.13a1.86,1.86,0,0,0-.16-.93c-.1-.17-.26-.19-.47-.08a1.14,1.14,0,0,0-.46.61,3.54,3.54,0,0,0-.16,1.12v1.54a1.85,1.85,0,0,0,.17.94c.1.17.26.2.46.08a1.09,1.09,0,0,0,.46-.62,3.2,3.2,0,0,0,.16-1.12Z" style="fill:#50B2C0;opacity:0.30000000000000004"></path></g><g id="freepik--binary--inject-4"><path d="M317.83,181.09l.52-.4v-3.94l-.53.33v-.45l1-.91v4.7l.53-.2v.45l-1.51.88Z" style="fill:#50B2C0"></path><path d="M319.62,185.89a4.56,4.56,0,0,1-.29,1.71,2,2,0,0,1-.8,1,.56.56,0,0,1-.79-.08,2.28,2.28,0,0,1-.29-1.37V185.9a4.4,4.4,0,0,1,.29-1.71,1.88,1.88,0,0,1,.79-1c.33-.2.6-.17.79.08a2.25,2.25,0,0,1,.3,1.37Zm-.46-1.13a2,2,0,0,0-.16-.93c-.11-.17-.27-.19-.47-.07a1.06,1.06,0,0,0-.46.61,3.2,3.2,0,0,0-.16,1.12V187a1.88,1.88,0,0,0,.16.94c.11.17.26.2.46.08a1.11,1.11,0,0,0,.47-.61,3.52,3.52,0,0,0,.16-1.13Z" style="fill:#50B2C0;opacity:0.15"></path><path d="M317.83,195.86l.52-.4v-3.94l-.53.33v-.45l1-.91v4.7l.53-.2v.45l-1.51.87Z" style="fill:#50B2C0"></path><path d="M319.62,200.66a4.52,4.52,0,0,1-.29,1.71,2,2,0,0,1-.8,1,.56.56,0,0,1-.79-.08,2.28,2.28,0,0,1-.29-1.37v-1.25a4.44,4.44,0,0,1,.29-1.71,1.88,1.88,0,0,1,.79-1c.33-.2.6-.17.79.08a2.25,2.25,0,0,1,.3,1.37Zm-.46-1.13a2,2,0,0,0-.16-.93c-.11-.17-.27-.19-.47-.07a1.06,1.06,0,0,0-.46.61,3.2,3.2,0,0,0-.16,1.12v1.54a1.86,1.86,0,0,0,.16.93c.11.17.26.2.46.08a1.11,1.11,0,0,0,.47-.61,3.52,3.52,0,0,0,.16-1.13Z" style="fill:#50B2C0;opacity:0.30000000000000004"></path><path d="M317.83,210.63l.52-.4v-3.94l-.53.33v-.45l1-.91V210l.53-.2v.45l-1.51.88Z" style="fill:#50B2C0;opacity:0.30000000000000004"></path><path d="M317.83,218l.52-.41v-3.93l-.53.32v-.44l1-.91v4.69l.53-.2v.46l-1.51.87Z" style="fill:#50B2C0"></path><path d="M317.83,225.4l.52-.4v-3.94l-.53.33v-.45l1-.91v4.7l.53-.2V225l-1.51.88Z" style="fill:#50B2C0;opacity:0.15"></path><path d="M319.62,230.2a4.56,4.56,0,0,1-.29,1.71,2,2,0,0,1-.8,1,.56.56,0,0,1-.79-.08,2.28,2.28,0,0,1-.29-1.37v-1.25a4.44,4.44,0,0,1,.29-1.71,1.88,1.88,0,0,1,.79-1c.33-.2.6-.17.79.08a2.25,2.25,0,0,1,.3,1.37Zm-.46-1.13a2,2,0,0,0-.16-.93c-.11-.17-.27-.19-.47-.07a1.06,1.06,0,0,0-.46.61,3.2,3.2,0,0,0-.16,1.12v1.54a1.86,1.86,0,0,0,.16.93c.11.17.26.2.46.08a1.11,1.11,0,0,0,.47-.61,3.52,3.52,0,0,0,.16-1.13Z" style="fill:#50B2C0;opacity:0.30000000000000004"></path><path d="M317.83,240.17l.52-.4v-3.94l-.53.33v-.45l1-.91v4.7l.53-.2v.45l-1.51.88Z" style="fill:#50B2C0"></path><path d="M319.62,245a4.52,4.52,0,0,1-.29,1.71,2,2,0,0,1-.8,1,.56.56,0,0,1-.79-.08,2.28,2.28,0,0,1-.29-1.37V245a4.44,4.44,0,0,1,.29-1.71,1.88,1.88,0,0,1,.79-1c.33-.2.6-.17.79.08a2.25,2.25,0,0,1,.3,1.37Zm-.46-1.12a2,2,0,0,0-.16-.94c-.11-.17-.27-.19-.47-.07a1.06,1.06,0,0,0-.46.61,3.2,3.2,0,0,0-.16,1.12v1.54a1.86,1.86,0,0,0,.16.93c.11.17.26.2.46.08a1.11,1.11,0,0,0,.47-.61,3.52,3.52,0,0,0,.16-1.13Z" style="fill:#50B2C0;opacity:0.15"></path><path d="M317.83,254.94l.52-.4V250.6l-.53.33v-.45l1-.91v4.7l.53-.2v.45l-1.51.88Z" style="fill:#50B2C0;opacity:0.30000000000000004"></path><path d="M319.62,259.74a4.52,4.52,0,0,1-.29,1.71,2,2,0,0,1-.8,1,.56.56,0,0,1-.79-.08,2.28,2.28,0,0,1-.29-1.37v-1.25a4.44,4.44,0,0,1,.29-1.71,1.88,1.88,0,0,1,.79-1c.33-.2.6-.17.79.08a2.25,2.25,0,0,1,.3,1.37Zm-.46-1.13a2,2,0,0,0-.16-.93c-.11-.17-.27-.19-.47-.07a1.06,1.06,0,0,0-.46.61,3.2,3.2,0,0,0-.16,1.12v1.54a1.86,1.86,0,0,0,.16.93c.11.17.26.2.46.08a1.11,1.11,0,0,0,.47-.61,3.52,3.52,0,0,0,.16-1.13Z" style="fill:#50B2C0"></path><path d="M312.9,182.39a4.56,4.56,0,0,1-.29,1.71,1.94,1.94,0,0,1-.8,1c-.33.2-.6.17-.79-.08a2.26,2.26,0,0,1-.29-1.37V182.4a4.37,4.37,0,0,1,.29-1.71,1.94,1.94,0,0,1,.79-1,.56.56,0,0,1,.79.08,2.3,2.3,0,0,1,.3,1.38Zm-.46-1.13a1.81,1.81,0,0,0-.17-.93c-.1-.17-.26-.2-.46-.08a1.1,1.1,0,0,0-.46.61,3.24,3.24,0,0,0-.16,1.12v1.54a1.88,1.88,0,0,0,.16.94c.11.17.26.19.46.08a1.14,1.14,0,0,0,.47-.62,3.46,3.46,0,0,0,.16-1.12Z" style="fill:#50B2C0"></path><path d="M311.1,192.36l.53-.41V188l-.53.32v-.44l1-.91v4.69l.53-.2v.46l-1.52.87Z" style="fill:#50B2C0"></path><path d="M311.1,199.74l.53-.4V195.4l-.53.33v-.45l1-.91v4.7l.53-.2v.45l-1.52.88Z" style="fill:#50B2C0;opacity:0.15"></path><path d="M311.1,207.13l.53-.41v-3.93l-.53.32v-.44l1-.91v4.7l.53-.21v.46l-1.52.87Z" style="fill:#50B2C0;opacity:0.30000000000000004"></path><path d="M312.9,211.93a4.56,4.56,0,0,1-.29,1.71,1.94,1.94,0,0,1-.8,1c-.33.2-.6.17-.79-.08a2.26,2.26,0,0,1-.29-1.37v-1.24a4.37,4.37,0,0,1,.29-1.71,1.94,1.94,0,0,1,.79-1,.56.56,0,0,1,.79.08,2.3,2.3,0,0,1,.3,1.38Zm-.46-1.13a1.83,1.83,0,0,0-.17-.93c-.1-.17-.26-.2-.46-.08a1.1,1.1,0,0,0-.46.61,3.24,3.24,0,0,0-.16,1.12v1.54a1.88,1.88,0,0,0,.16.94c.11.17.26.19.46.08a1.14,1.14,0,0,0,.47-.62,3.46,3.46,0,0,0,.16-1.12Z" style="fill:#50B2C0"></path><path d="M312.9,219.31a4.49,4.49,0,0,1-.29,1.71,2,2,0,0,1-.8,1,.56.56,0,0,1-.79-.08,2.28,2.28,0,0,1-.29-1.37v-1.25a4.44,4.44,0,0,1,.29-1.71,1.88,1.88,0,0,1,.79-1c.33-.2.6-.17.79.08a2.25,2.25,0,0,1,.3,1.37Zm-.46-1.12a1.85,1.85,0,0,0-.17-.94c-.1-.17-.26-.19-.46-.07a1.06,1.06,0,0,0-.46.61,3.2,3.2,0,0,0-.16,1.12v1.54a1.86,1.86,0,0,0,.16.93c.11.17.26.2.46.08a1.11,1.11,0,0,0,.47-.61,3.5,3.5,0,0,0,.16-1.12Z" style="fill:#50B2C0;opacity:0.30000000000000004"></path><path d="M311.1,229.28l.53-.4v-3.94l-.53.33v-.45l1-.91v4.7l.53-.2v.45l-1.52.88Z" style="fill:#50B2C0"></path><path d="M312.9,234.08a4.52,4.52,0,0,1-.29,1.71,2,2,0,0,1-.8,1,.56.56,0,0,1-.79-.08,2.28,2.28,0,0,1-.29-1.37v-1.25a4.44,4.44,0,0,1,.29-1.71,1.88,1.88,0,0,1,.79-1c.33-.2.6-.17.79.08a2.25,2.25,0,0,1,.3,1.37Zm-.46-1.13a1.83,1.83,0,0,0-.17-.93c-.1-.17-.26-.19-.46-.07a1.06,1.06,0,0,0-.46.61,3.2,3.2,0,0,0-.16,1.12v1.54a1.86,1.86,0,0,0,.16.93c.11.17.26.2.46.08a1.11,1.11,0,0,0,.47-.61,3.52,3.52,0,0,0,.16-1.13Z" style="fill:#50B2C0"></path><path d="M311.1,244.05l.53-.4v-3.94l-.53.33v-.45l1-.9v4.69l.53-.2v.45l-1.52.88Z" style="fill:#50B2C0;opacity:0.30000000000000004"></path><path d="M312.9,248.85a4.49,4.49,0,0,1-.29,1.71,2,2,0,0,1-.8,1,.56.56,0,0,1-.79-.08,2.28,2.28,0,0,1-.29-1.37v-1.25a4.44,4.44,0,0,1,.29-1.71,1.88,1.88,0,0,1,.79-1c.33-.2.6-.17.79.08a2.25,2.25,0,0,1,.3,1.37Zm-.46-1.12a1.85,1.85,0,0,0-.17-.94c-.1-.17-.26-.19-.46-.07a1.06,1.06,0,0,0-.46.61,3.2,3.2,0,0,0-.16,1.12V250a1.86,1.86,0,0,0,.16.93c.11.17.26.2.46.08a1.11,1.11,0,0,0,.47-.61,3.5,3.5,0,0,0,.16-1.12Z" style="fill:#50B2C0;opacity:0.30000000000000004"></path><path d="M311.1,258.82l.53-.4v-3.94l-.53.33v-.45l1-.91v4.7l.53-.2v.45l-1.52.88Z" style="fill:#50B2C0"></path><path d="M312.9,263.62a4.52,4.52,0,0,1-.29,1.71,2,2,0,0,1-.8,1,.56.56,0,0,1-.79-.08,2.28,2.28,0,0,1-.29-1.37v-1.25a4.44,4.44,0,0,1,.29-1.71,1.88,1.88,0,0,1,.79-1c.33-.2.6-.17.79.08a2.25,2.25,0,0,1,.3,1.37Zm-.46-1.13a1.83,1.83,0,0,0-.17-.93c-.1-.17-.26-.19-.46-.07a1.06,1.06,0,0,0-.46.61,3.2,3.2,0,0,0-.16,1.12v1.54a1.86,1.86,0,0,0,.16.93c.11.17.26.2.46.08a1.11,1.11,0,0,0,.47-.61,3.52,3.52,0,0,0,.16-1.13Z" style="fill:#50B2C0;opacity:0.30000000000000004"></path><path d="M304.38,188.85l.53-.4v-3.94l-.54.33v-.45l1-.91v4.7l.53-.2v.45l-1.52.88Z" style="fill:#50B2C0"></path><path d="M304.38,196.24l.53-.41V191.9l-.54.32v-.44l1-.91v4.69l.53-.2v.46l-1.52.87Z" style="fill:#50B2C0;opacity:0.30000000000000004"></path><path d="M306.18,201a4.56,4.56,0,0,1-.29,1.71,1.94,1.94,0,0,1-.8,1c-.33.2-.6.17-.79-.08a2.25,2.25,0,0,1-.3-1.37v-1.24a4.56,4.56,0,0,1,.29-1.71,2,2,0,0,1,.8-1,.56.56,0,0,1,.79.08,2.3,2.3,0,0,1,.3,1.38Zm-.47-1.13a1.83,1.83,0,0,0-.16-.93c-.1-.17-.26-.2-.46-.08a1.1,1.1,0,0,0-.46.61,3.24,3.24,0,0,0-.16,1.12v1.54a1.88,1.88,0,0,0,.16.94c.11.17.26.19.46.08a1.14,1.14,0,0,0,.47-.62,3.48,3.48,0,0,0,.15-1.12Z" style="fill:#50B2C0"></path><path d="M304.38,211l.53-.41v-3.93l-.54.32v-.44l1-.91v4.7l.53-.21v.46l-1.52.87Z" style="fill:#50B2C0;opacity:0.30000000000000004"></path><path d="M306.18,215.81a4.56,4.56,0,0,1-.29,1.71,1.94,1.94,0,0,1-.8,1c-.33.2-.6.17-.79-.08a2.25,2.25,0,0,1-.3-1.37v-1.24a4.56,4.56,0,0,1,.29-1.71,2,2,0,0,1,.8-1,.56.56,0,0,1,.79.08,2.3,2.3,0,0,1,.3,1.38Zm-.47-1.13a1.86,1.86,0,0,0-.16-.93c-.1-.17-.26-.2-.46-.08a1.1,1.1,0,0,0-.46.61,3.24,3.24,0,0,0-.16,1.12v1.54a1.88,1.88,0,0,0,.16.94c.11.17.26.19.46.08a1.14,1.14,0,0,0,.47-.62,3.48,3.48,0,0,0,.15-1.12Z" style="fill:#50B2C0;opacity:0.15"></path><path d="M306.18,223.19a4.49,4.49,0,0,1-.29,1.71,2,2,0,0,1-.8,1,.56.56,0,0,1-.79-.08,2.27,2.27,0,0,1-.3-1.37V223.2a4.63,4.63,0,0,1,.29-1.71,1.94,1.94,0,0,1,.8-1c.33-.19.6-.17.79.08a2.25,2.25,0,0,1,.3,1.37Zm-.47-1.12a1.88,1.88,0,0,0-.16-.94c-.1-.17-.26-.19-.46-.07a1.06,1.06,0,0,0-.46.61,3.2,3.2,0,0,0-.16,1.12v1.54a1.86,1.86,0,0,0,.16.93c.11.17.26.2.46.08a1.11,1.11,0,0,0,.47-.61,3.53,3.53,0,0,0,.15-1.12Z" style="fill:#50B2C0"></path><path d="M304.38,233.16l.53-.4v-3.94l-.54.33v-.45l1-.9v4.69l.53-.2v.45l-1.52.88Z" style="fill:#50B2C0;opacity:0.30000000000000004"></path><path d="M306.18,238a4.49,4.49,0,0,1-.29,1.71,2,2,0,0,1-.8,1,.56.56,0,0,1-.79-.08,2.27,2.27,0,0,1-.3-1.37V238a4.63,4.63,0,0,1,.29-1.71,1.94,1.94,0,0,1,.8-1c.33-.19.6-.17.79.08a2.25,2.25,0,0,1,.3,1.37Zm-.47-1.12a1.88,1.88,0,0,0-.16-.94c-.1-.17-.26-.19-.46-.07a1.06,1.06,0,0,0-.46.61,3.2,3.2,0,0,0-.16,1.12v1.54a1.86,1.86,0,0,0,.16.93c.11.17.26.2.46.08a1.11,1.11,0,0,0,.47-.61,3.53,3.53,0,0,0,.15-1.12Z" style="fill:#50B2C0;opacity:0.30000000000000004"></path><path d="M306.18,245.35a4.56,4.56,0,0,1-.29,1.71,1.94,1.94,0,0,1-.8,1c-.33.2-.6.17-.79-.08a2.25,2.25,0,0,1-.3-1.37v-1.24a4.56,4.56,0,0,1,.29-1.71,2,2,0,0,1,.8-1,.56.56,0,0,1,.79.08,2.3,2.3,0,0,1,.3,1.38Zm-.47-1.13a1.86,1.86,0,0,0-.16-.93c-.1-.17-.26-.2-.46-.08a1.1,1.1,0,0,0-.46.61,3.24,3.24,0,0,0-.16,1.12v1.54a1.88,1.88,0,0,0,.16.94c.11.17.26.19.46.08a1.14,1.14,0,0,0,.47-.62,3.48,3.48,0,0,0,.15-1.12Z" style="fill:#50B2C0"></path><path d="M304.38,255.32l.53-.41V251l-.54.32v-.44l1-.91v4.7l.53-.21v.46l-1.52.87Z" style="fill:#50B2C0;opacity:0.30000000000000004"></path><path d="M304.38,262.7l.53-.4v-3.94l-.54.33v-.45l1-.9V262l.53-.2v.45l-1.52.88Z" style="fill:#50B2C0;opacity:0.15"></path><path d="M306.18,267.51a4.47,4.47,0,0,1-.29,1.7,2,2,0,0,1-.8,1,.56.56,0,0,1-.79-.08,2.27,2.27,0,0,1-.3-1.37v-1.25a4.54,4.54,0,0,1,.29-1.7,1.92,1.92,0,0,1,.8-1c.33-.19.6-.17.79.08a2.27,2.27,0,0,1,.3,1.37Zm-.47-1.13a1.88,1.88,0,0,0-.16-.94c-.1-.16-.26-.19-.46-.07a1.06,1.06,0,0,0-.46.61,3.2,3.2,0,0,0-.16,1.12v1.54a1.86,1.86,0,0,0,.16.93c.11.17.26.2.46.08a1.11,1.11,0,0,0,.47-.61,3.53,3.53,0,0,0,.15-1.12Z" style="fill:#50B2C0;opacity:0.30000000000000004"></path></g><g id="freepik--binary--inject-4"><path d="M337.93,169.48l.52-.4v-3.93l-.53.32V165l1-.91v4.69l.53-.2v.46l-1.51.87Z" style="fill:#50B2C0"></path><path d="M339.72,174.29a4.56,4.56,0,0,1-.29,1.71,1.94,1.94,0,0,1-.8,1c-.33.19-.59.17-.79-.08a2.33,2.33,0,0,1-.29-1.37V174.3a4.37,4.37,0,0,1,.29-1.71,2,2,0,0,1,.79-1c.34-.19.6-.17.8.08a2.38,2.38,0,0,1,.29,1.37Zm-.46-1.13a1.92,1.92,0,0,0-.16-.93.31.31,0,0,0-.47-.08,1.1,1.1,0,0,0-.46.61,3.2,3.2,0,0,0-.16,1.12v1.54a1.9,1.9,0,0,0,.16.94.31.31,0,0,0,.46.08,1.14,1.14,0,0,0,.47-.62,3.5,3.5,0,0,0,.16-1.12Z" style="fill:#50B2C0;opacity:0.15"></path><path d="M337.93,184.25l.52-.4v-3.93l-.53.32v-.44l1-.91v4.69l.53-.2v.46l-1.51.87Z" style="fill:#50B2C0"></path><path d="M339.72,189.06a4.56,4.56,0,0,1-.29,1.71,1.94,1.94,0,0,1-.8,1c-.33.19-.59.17-.79-.08a2.33,2.33,0,0,1-.29-1.37v-1.24a4.37,4.37,0,0,1,.29-1.71,2,2,0,0,1,.79-1c.34-.19.6-.17.8.08a2.38,2.38,0,0,1,.29,1.37Zm-.46-1.13a1.92,1.92,0,0,0-.16-.93.31.31,0,0,0-.47-.08,1.1,1.1,0,0,0-.46.61,3.24,3.24,0,0,0-.16,1.12v1.54a1.9,1.9,0,0,0,.16.94c.11.17.26.19.46.08a1.14,1.14,0,0,0,.47-.62,3.46,3.46,0,0,0,.16-1.12Z" style="fill:#50B2C0;opacity:0.30000000000000004"></path><path d="M337.93,199l.52-.4v-3.93l-.53.32v-.44l1-.91v4.69l.53-.2v.46l-1.51.87Z" style="fill:#50B2C0;opacity:0.30000000000000004"></path><path d="M337.93,206.41l.52-.41v-3.93l-.53.33V202l1-.91v4.7l.53-.2V206l-1.51.87Z" style="fill:#50B2C0"></path><path d="M337.93,213.79l.52-.4v-3.93l-.53.32v-.44l1-.91v4.69l.53-.2v.46l-1.51.87Z" style="fill:#50B2C0;opacity:0.15"></path><path d="M339.72,218.6a4.56,4.56,0,0,1-.29,1.71,1.94,1.94,0,0,1-.8,1c-.33.19-.59.17-.79-.08a2.33,2.33,0,0,1-.29-1.37v-1.24a4.37,4.37,0,0,1,.29-1.71,2,2,0,0,1,.79-1c.34-.19.6-.17.8.08a2.38,2.38,0,0,1,.29,1.37Zm-.46-1.13a1.92,1.92,0,0,0-.16-.93.31.31,0,0,0-.47-.08,1.1,1.1,0,0,0-.46.61,3.24,3.24,0,0,0-.16,1.12v1.54a1.9,1.9,0,0,0,.16.94c.11.17.26.19.46.08a1.14,1.14,0,0,0,.47-.62,3.46,3.46,0,0,0,.16-1.12Z" style="fill:#50B2C0;opacity:0.30000000000000004"></path><path d="M337.93,228.56l.52-.4v-3.93l-.53.32v-.44l1-.91v4.69l.53-.2v.46l-1.51.87Z" style="fill:#50B2C0"></path><path d="M339.72,233.37a4.56,4.56,0,0,1-.29,1.71,1.94,1.94,0,0,1-.8,1c-.33.19-.59.17-.79-.08a2.33,2.33,0,0,1-.29-1.37v-1.24a4.37,4.37,0,0,1,.29-1.71,2,2,0,0,1,.79-1,.57.57,0,0,1,.8.08,2.38,2.38,0,0,1,.29,1.37Zm-.46-1.13a1.92,1.92,0,0,0-.16-.93.31.31,0,0,0-.47-.08,1.1,1.1,0,0,0-.46.61A3.24,3.24,0,0,0,338,233v1.54a1.9,1.9,0,0,0,.16.94c.11.17.26.19.46.08a1.14,1.14,0,0,0,.47-.62,3.46,3.46,0,0,0,.16-1.12Z" style="fill:#50B2C0;opacity:0.15"></path><path d="M337.93,243.33l.52-.4V239l-.53.32v-.44l1-.91v4.69l.53-.2v.46l-1.51.87Z" style="fill:#50B2C0;opacity:0.30000000000000004"></path><path d="M339.72,248.14a4.56,4.56,0,0,1-.29,1.71,1.94,1.94,0,0,1-.8,1c-.33.19-.59.17-.79-.08a2.33,2.33,0,0,1-.29-1.37v-1.24a4.37,4.37,0,0,1,.29-1.71,2,2,0,0,1,.79-1c.34-.19.6-.17.8.08a2.38,2.38,0,0,1,.29,1.37Zm-.46-1.13a1.92,1.92,0,0,0-.16-.93.31.31,0,0,0-.47-.08,1.1,1.1,0,0,0-.46.61,3.24,3.24,0,0,0-.16,1.12v1.54a1.9,1.9,0,0,0,.16.94c.11.17.26.19.46.08a1.14,1.14,0,0,0,.47-.62,3.46,3.46,0,0,0,.16-1.12Z" style="fill:#50B2C0"></path><path d="M333,170.78a4.56,4.56,0,0,1-.29,1.71,2,2,0,0,1-.8,1,.56.56,0,0,1-.79-.08,2.3,2.3,0,0,1-.29-1.37v-1.25a4.37,4.37,0,0,1,.29-1.71,1.88,1.88,0,0,1,.79-1,.55.55,0,0,1,.8.08,2.33,2.33,0,0,1,.29,1.37Zm-.46-1.13a2,2,0,0,0-.16-.93c-.11-.17-.27-.19-.47-.07a1.06,1.06,0,0,0-.46.61,3.18,3.18,0,0,0-.16,1.11v1.54a1.88,1.88,0,0,0,.16.94c.11.17.26.2.46.08a1.11,1.11,0,0,0,.47-.61,3.57,3.57,0,0,0,.16-1.13Z" style="fill:#50B2C0"></path><path d="M331.21,180.75l.52-.41v-3.93l-.53.33v-.45l1-.91v4.7l.53-.2v.45l-1.51.87Z" style="fill:#50B2C0"></path><path d="M331.21,188.13l.52-.4V183.8l-.53.32v-.44l1-.91v4.69l.53-.2v.46l-1.51.87Z" style="fill:#50B2C0;opacity:0.15"></path><path d="M331.21,195.52l.52-.4v-3.94l-.53.33v-.45l1-.91v4.7l.53-.2v.45l-1.51.87Z" style="fill:#50B2C0;opacity:0.30000000000000004"></path><path d="M333,200.32a4.56,4.56,0,0,1-.29,1.71,2,2,0,0,1-.8,1,.56.56,0,0,1-.79-.08,2.28,2.28,0,0,1-.29-1.37v-1.25a4.37,4.37,0,0,1,.29-1.71,1.88,1.88,0,0,1,.79-1,.55.55,0,0,1,.8.08,2.33,2.33,0,0,1,.29,1.37Zm-.46-1.13a2,2,0,0,0-.16-.93c-.11-.17-.27-.19-.47-.07a1.06,1.06,0,0,0-.46.61,3.18,3.18,0,0,0-.16,1.11v1.54a1.88,1.88,0,0,0,.16.94c.11.17.26.2.46.08a1.11,1.11,0,0,0,.47-.61,3.57,3.57,0,0,0,.16-1.13Z" style="fill:#50B2C0"></path><path d="M333,207.71a4.56,4.56,0,0,1-.29,1.71,1.94,1.94,0,0,1-.8,1c-.33.19-.6.17-.79-.08a2.26,2.26,0,0,1-.29-1.37v-1.24a4.37,4.37,0,0,1,.29-1.71,1.94,1.94,0,0,1,.79-1,.56.56,0,0,1,.8.08,2.38,2.38,0,0,1,.29,1.37Zm-.46-1.13a1.92,1.92,0,0,0-.16-.93.31.31,0,0,0-.47-.08,1.1,1.1,0,0,0-.46.61,3.24,3.24,0,0,0-.16,1.12v1.54a1.9,1.9,0,0,0,.16.94c.11.17.26.19.46.08a1.14,1.14,0,0,0,.47-.62,3.46,3.46,0,0,0,.16-1.12Z" style="fill:#50B2C0;opacity:0.30000000000000004"></path><path d="M331.21,217.68l.52-.41v-3.93l-.53.32v-.44l1-.91V217l.53-.2v.46l-1.51.87Z" style="fill:#50B2C0"></path><path d="M333,222.48a4.56,4.56,0,0,1-.29,1.71,1.94,1.94,0,0,1-.8,1c-.33.19-.6.17-.79-.08a2.26,2.26,0,0,1-.29-1.37v-1.24a4.37,4.37,0,0,1,.29-1.71,1.94,1.94,0,0,1,.79-1,.56.56,0,0,1,.8.08,2.38,2.38,0,0,1,.29,1.37Zm-.46-1.13a1.92,1.92,0,0,0-.16-.93.31.31,0,0,0-.47-.08,1.1,1.1,0,0,0-.46.61,3.24,3.24,0,0,0-.16,1.12v1.54a1.9,1.9,0,0,0,.16.94c.11.17.26.19.46.08a1.14,1.14,0,0,0,.47-.62,3.46,3.46,0,0,0,.16-1.12Z" style="fill:#50B2C0"></path><path d="M331.21,232.45l.52-.41v-3.93l-.53.32V228l1-.91v4.69l.53-.2V232l-1.51.87Z" style="fill:#50B2C0;opacity:0.30000000000000004"></path><path d="M333,237.25a4.56,4.56,0,0,1-.29,1.71,1.94,1.94,0,0,1-.8,1c-.33.19-.6.17-.79-.08a2.26,2.26,0,0,1-.29-1.37v-1.24a4.37,4.37,0,0,1,.29-1.71,1.94,1.94,0,0,1,.79-1,.57.57,0,0,1,.8.08A2.38,2.38,0,0,1,333,236Zm-.46-1.13a1.92,1.92,0,0,0-.16-.93.31.31,0,0,0-.47-.08,1.1,1.1,0,0,0-.46.61,3.24,3.24,0,0,0-.16,1.12v1.54a1.9,1.9,0,0,0,.16.94c.11.17.26.19.46.08a1.14,1.14,0,0,0,.47-.62,3.46,3.46,0,0,0,.16-1.12Z" style="fill:#50B2C0;opacity:0.30000000000000004"></path><path d="M331.21,247.22l.52-.41v-3.93l-.53.32v-.44l1-.91v4.69l.53-.2v.46l-1.51.87Z" style="fill:#50B2C0"></path><path d="M333,252a4.56,4.56,0,0,1-.29,1.71,1.94,1.94,0,0,1-.8,1c-.33.19-.6.17-.79-.08a2.26,2.26,0,0,1-.29-1.37V252a4.37,4.37,0,0,1,.29-1.71,1.94,1.94,0,0,1,.79-1,.57.57,0,0,1,.8.08,2.38,2.38,0,0,1,.29,1.37Zm-.46-1.13a1.92,1.92,0,0,0-.16-.93.31.31,0,0,0-.47-.08,1.1,1.1,0,0,0-.46.61,3.24,3.24,0,0,0-.16,1.12v1.54a1.9,1.9,0,0,0,.16.94c.11.17.26.19.46.08a1.14,1.14,0,0,0,.47-.62,3.46,3.46,0,0,0,.16-1.12Z" style="fill:#50B2C0;opacity:0.30000000000000004"></path><path d="M324.49,177.24l.52-.4v-3.93l-.53.32v-.44l1-.91v4.69l.53-.2v.46l-1.51.87Z" style="fill:#50B2C0"></path><path d="M324.49,184.63l.52-.4v-3.94l-.53.33v-.45l1-.91V184l.53-.2v.45l-1.51.87Z" style="fill:#50B2C0;opacity:0.30000000000000004"></path><path d="M326.28,189.43a4.56,4.56,0,0,1-.29,1.71,2,2,0,0,1-.8,1,.56.56,0,0,1-.79-.08,2.3,2.3,0,0,1-.29-1.37v-1.25a4.37,4.37,0,0,1,.29-1.71,1.88,1.88,0,0,1,.79-1c.33-.2.6-.17.79.08a2.25,2.25,0,0,1,.3,1.37Zm-.46-1.13a2,2,0,0,0-.16-.93c-.11-.17-.27-.19-.47-.07a1.06,1.06,0,0,0-.46.61,3.18,3.18,0,0,0-.16,1.11v1.54a1.88,1.88,0,0,0,.16.94c.11.17.26.2.46.08a1.11,1.11,0,0,0,.47-.61,3.57,3.57,0,0,0,.16-1.13Z" style="fill:#50B2C0"></path><path d="M324.49,199.4l.52-.4v-3.94l-.53.33v-.45l1-.91v4.7l.53-.2V199l-1.51.87Z" style="fill:#50B2C0;opacity:0.30000000000000004"></path><path d="M326.28,204.2a4.56,4.56,0,0,1-.29,1.71,2,2,0,0,1-.8,1,.56.56,0,0,1-.79-.08,2.28,2.28,0,0,1-.29-1.37v-1.25a4.4,4.4,0,0,1,.29-1.71,1.88,1.88,0,0,1,.79-1c.33-.2.6-.17.79.08a2.25,2.25,0,0,1,.3,1.37Zm-.46-1.13a2,2,0,0,0-.16-.93c-.11-.17-.27-.19-.47-.07a1.06,1.06,0,0,0-.46.61,3.18,3.18,0,0,0-.16,1.11v1.54a1.88,1.88,0,0,0,.16.94c.11.17.26.2.46.08a1.11,1.11,0,0,0,.47-.61,3.57,3.57,0,0,0,.16-1.13Z" style="fill:#50B2C0;opacity:0.15"></path><path d="M326.28,211.59a4.56,4.56,0,0,1-.29,1.71,1.94,1.94,0,0,1-.8,1c-.33.19-.6.17-.79-.08a2.26,2.26,0,0,1-.29-1.37V211.6a4.37,4.37,0,0,1,.29-1.71,1.94,1.94,0,0,1,.79-1,.56.56,0,0,1,.79.08,2.29,2.29,0,0,1,.3,1.37Zm-.46-1.13a2,2,0,0,0-.16-.93.31.31,0,0,0-.47-.08,1.1,1.1,0,0,0-.46.61,3.24,3.24,0,0,0-.16,1.12v1.54a1.9,1.9,0,0,0,.16.94c.11.17.26.19.46.08a1.14,1.14,0,0,0,.47-.62,3.46,3.46,0,0,0,.16-1.12Z" style="fill:#50B2C0"></path><path d="M324.49,221.56l.52-.41v-3.93l-.53.32v-.44l1-.91v4.69l.53-.2v.46l-1.51.87Z" style="fill:#50B2C0;opacity:0.30000000000000004"></path><path d="M326.28,226.36a4.56,4.56,0,0,1-.29,1.71,1.94,1.94,0,0,1-.8,1c-.33.19-.6.17-.79-.08a2.26,2.26,0,0,1-.29-1.37v-1.24a4.37,4.37,0,0,1,.29-1.71,1.94,1.94,0,0,1,.79-1c.33-.19.6-.17.79.08a2.29,2.29,0,0,1,.3,1.37Zm-.46-1.13a1.92,1.92,0,0,0-.16-.93.31.31,0,0,0-.47-.08,1.1,1.1,0,0,0-.46.61,3.24,3.24,0,0,0-.16,1.12v1.54a1.9,1.9,0,0,0,.16.94c.11.17.26.19.46.08a1.14,1.14,0,0,0,.47-.62,3.46,3.46,0,0,0,.16-1.12Z" style="fill:#50B2C0;opacity:0.30000000000000004"></path><path d="M326.28,233.74a4.56,4.56,0,0,1-.29,1.71,2,2,0,0,1-.8,1,.56.56,0,0,1-.79-.08,2.28,2.28,0,0,1-.29-1.37v-1.25a4.4,4.4,0,0,1,.29-1.71,1.88,1.88,0,0,1,.79-1c.33-.2.6-.17.79.08a2.25,2.25,0,0,1,.3,1.37Zm-.46-1.13a2,2,0,0,0-.16-.93c-.11-.17-.27-.19-.47-.07a1.06,1.06,0,0,0-.46.61,3.2,3.2,0,0,0-.16,1.12v1.54a1.86,1.86,0,0,0,.16.93c.11.17.26.2.46.08a1.11,1.11,0,0,0,.47-.61,3.52,3.52,0,0,0,.16-1.13Z" style="fill:#50B2C0"></path><path d="M324.49,243.71l.52-.4v-3.94l-.53.33v-.45l1-.91V243l.53-.2v.45l-1.51.88Z" style="fill:#50B2C0;opacity:0.30000000000000004"></path><path d="M324.49,251.1l.52-.41v-3.93l-.53.32v-.44l1-.91v4.69l.53-.2v.46l-1.51.87Z" style="fill:#50B2C0;opacity:0.15"></path><path d="M326.28,255.9a4.56,4.56,0,0,1-.29,1.71,1.94,1.94,0,0,1-.8,1c-.33.2-.6.17-.79-.08a2.26,2.26,0,0,1-.29-1.37v-1.24a4.37,4.37,0,0,1,.29-1.71,1.94,1.94,0,0,1,.79-1,.56.56,0,0,1,.79.08,2.29,2.29,0,0,1,.3,1.37Zm-.46-1.13a2,2,0,0,0-.16-.93.31.31,0,0,0-.47-.08,1.1,1.1,0,0,0-.46.61,3.24,3.24,0,0,0-.16,1.12V257a1.9,1.9,0,0,0,.16.94c.11.17.26.19.46.08a1.14,1.14,0,0,0,.47-.62,3.46,3.46,0,0,0,.16-1.12Z" style="fill:#50B2C0;opacity:0.30000000000000004"></path></g><g id="freepik--binary--inject-4"><path d="M344.59,165.64l.52-.41V161.3l-.53.32v-.44l1-.91V165l.53-.2v.45l-1.51.87Z" style="fill:#50B2C0"></path><path d="M344.59,173l.52-.4v-3.94l-.53.33v-.44l1-.91v4.69l.53-.2v.45l-1.51.88Z" style="fill:#50B2C0;opacity:0.30000000000000004"></path><path d="M346.38,177.83a4.56,4.56,0,0,1-.29,1.71,1.94,1.94,0,0,1-.8,1c-.33.19-.59.17-.79-.08a2.26,2.26,0,0,1-.29-1.37v-1.24a4.37,4.37,0,0,1,.29-1.71,1.9,1.9,0,0,1,.79-1,.56.56,0,0,1,.8.08,2.36,2.36,0,0,1,.29,1.37Zm-.46-1.13a2,2,0,0,0-.16-.94.31.31,0,0,0-.47-.07,1.1,1.1,0,0,0-.46.61,3.2,3.2,0,0,0-.16,1.12V179a1.86,1.86,0,0,0,.16.93.31.31,0,0,0,.46.09,1.14,1.14,0,0,0,.47-.62,3.5,3.5,0,0,0,.16-1.12Z" style="fill:#50B2C0"></path><path d="M344.59,187.79l.52-.4v-3.93l-.53.32v-.44l1-.91v4.69l.53-.2v.46l-1.51.87Z" style="fill:#50B2C0;opacity:0.30000000000000004"></path><path d="M346.38,192.6a4.56,4.56,0,0,1-.29,1.71,1.94,1.94,0,0,1-.8,1c-.33.19-.59.17-.79-.08a2.26,2.26,0,0,1-.29-1.37v-1.24a4.37,4.37,0,0,1,.29-1.71,1.9,1.9,0,0,1,.79-1,.56.56,0,0,1,.8.08,2.38,2.38,0,0,1,.29,1.37Zm-.46-1.13a1.92,1.92,0,0,0-.16-.93.31.31,0,0,0-.47-.08,1.1,1.1,0,0,0-.46.61,3.2,3.2,0,0,0-.16,1.12v1.54a1.9,1.9,0,0,0,.16.94.31.31,0,0,0,.46.08,1.14,1.14,0,0,0,.47-.62,3.5,3.5,0,0,0,.16-1.12Z" style="fill:#50B2C0;opacity:0.15"></path><path d="M346.38,200a4.56,4.56,0,0,1-.29,1.71,2,2,0,0,1-.8,1,.56.56,0,0,1-.79-.08,2.3,2.3,0,0,1-.29-1.37V200a4.37,4.37,0,0,1,.29-1.71,1.88,1.88,0,0,1,.79-1,.55.55,0,0,1,.8.08,2.33,2.33,0,0,1,.29,1.37Zm-.46-1.13a2,2,0,0,0-.16-.93c-.11-.17-.27-.19-.47-.07a1.06,1.06,0,0,0-.46.61,3.18,3.18,0,0,0-.16,1.11v1.54a1.88,1.88,0,0,0,.16.94c.11.17.26.2.46.08a1.11,1.11,0,0,0,.47-.61,3.57,3.57,0,0,0,.16-1.13Z" style="fill:#50B2C0"></path><path d="M344.59,210l.52-.41v-3.93l-.53.32v-.44l1-.91v4.7l.53-.2v.45l-1.51.87Z" style="fill:#50B2C0;opacity:0.30000000000000004"></path><path d="M346.38,214.75a4.56,4.56,0,0,1-.29,1.71,2,2,0,0,1-.8,1,.56.56,0,0,1-.79-.08,2.3,2.3,0,0,1-.29-1.37v-1.25a4.37,4.37,0,0,1,.29-1.71,1.88,1.88,0,0,1,.79-1,.55.55,0,0,1,.8.08,2.33,2.33,0,0,1,.29,1.37Zm-.46-1.13a2,2,0,0,0-.16-.93c-.11-.17-.27-.19-.47-.07a1.06,1.06,0,0,0-.46.61,3.18,3.18,0,0,0-.16,1.11v1.54a1.88,1.88,0,0,0,.16.94c.11.17.26.2.46.08a1.11,1.11,0,0,0,.47-.61,3.57,3.57,0,0,0,.16-1.13Z" style="fill:#50B2C0;opacity:0.30000000000000004"></path><path d="M346.38,222.14a4.56,4.56,0,0,1-.29,1.71,1.94,1.94,0,0,1-.8,1c-.33.19-.59.17-.79-.08a2.26,2.26,0,0,1-.29-1.37v-1.24a4.37,4.37,0,0,1,.29-1.71,1.94,1.94,0,0,1,.79-1,.56.56,0,0,1,.8.08,2.38,2.38,0,0,1,.29,1.37Zm-.46-1.13a1.92,1.92,0,0,0-.16-.93.31.31,0,0,0-.47-.08,1.1,1.1,0,0,0-.46.61,3.24,3.24,0,0,0-.16,1.12v1.54a1.9,1.9,0,0,0,.16.94.31.31,0,0,0,.46.08,1.14,1.14,0,0,0,.47-.62,3.46,3.46,0,0,0,.16-1.12Z" style="fill:#50B2C0"></path><path d="M344.59,232.1l.52-.4v-3.93l-.53.32v-.44l1-.91v4.69l.53-.2v.46l-1.51.87Z" style="fill:#50B2C0;opacity:0.30000000000000004"></path><path d="M344.59,239.49l.52-.41v-3.93l-.53.32V235l1-.91v4.7l.53-.2v.45l-1.51.87Z" style="fill:#50B2C0;opacity:0.15"></path><path d="M346.38,244.29a4.56,4.56,0,0,1-.29,1.71,2,2,0,0,1-.8,1,.56.56,0,0,1-.79-.08,2.3,2.3,0,0,1-.29-1.37V244.3a4.37,4.37,0,0,1,.29-1.71,1.88,1.88,0,0,1,.79-1,.55.55,0,0,1,.8.08,2.33,2.33,0,0,1,.29,1.37Zm-.46-1.13a2,2,0,0,0-.16-.93c-.11-.17-.27-.19-.47-.07a1.06,1.06,0,0,0-.46.61,3.18,3.18,0,0,0-.16,1.11v1.54a1.88,1.88,0,0,0,.16.94c.11.17.26.2.46.08a1.11,1.11,0,0,0,.47-.61,3.57,3.57,0,0,0,.16-1.13Z" style="fill:#50B2C0;opacity:0.30000000000000004"></path></g></g></g></g><g id="freepik--Character--inject-4"><g id="freepik--character--inject-4"><g id="freepik--Bottom--inject-4"><path d="M442,382a8.69,8.69,0,0,1,.92,4.53c-.07,1.37-.89,3.15-.52,6.24s1.08,4.07,1.41,6.25a7.68,7.68,0,0,1-1.21,5.81c-1.28,2.08-4.1,3.73-9.68,3.53-4.5-.16-6.32-2.47-6.42-5.12Z" style="fill:#263238"></path><path d="M440.72,375.62a10.65,10.65,0,0,1,.27,1.75c.17,1.05.48,2,.73,3.07.07.27.13.54.19.81.43,2.07,0,4.21,0,6.32a35,35,0,0,0,1.31,7.36c1,4.38,1.17,7.31-2.66,10.34-2,1.6-4.23,1.65-6.79,1.72a10.82,10.82,0,0,1-5.64-1.36c-1.64-1.21-1.62-2.23-1.63-2.62-.15-4.65,1.53-10.06,1.87-14.7a23.64,23.64,0,0,0,.08-3.76c-.16-1.54-.69-3.07-.86-4.62a2.69,2.69,0,0,1,.21-1.71,2.74,2.74,0,0,1,2.07-.93c2-.27,4.08-.47,6.13-.62a1.88,1.88,0,0,1,1.39.28c.4.36.41,1,.52,1.49s.49,1.12,1,1a.9.9,0,0,0,.62-.78c.05-.34.2-3,.19-3.39C439.76,375.29,440.48,375.18,440.72,375.62Z" style="fill:#37474f"></path><path d="M373,391.05a3.44,3.44,0,0,0,0,2.56c.33.76,4.14,3.12,9.41,3a22,22,0,0,0,11-3.36c2.05-1.25,4.15-1.41,6.76-1.46s5.67-1,6.56-2.17a6.26,6.26,0,0,0,0-3.51Z" style="fill:#263238"></path><path d="M392.08,375.48a11.16,11.16,0,0,0-.54,1.16,9.28,9.28,0,0,1-2.9,3.61,30,30,0,0,1-5.82,3.14c-1.3.58-2.66.74-4,1.2a22.25,22.25,0,0,0-4.27,1.88c-2.12,1.3-2.52,4.79-.23,6.27,2,1.27,7.27,2.78,12.93,1.42,3.09-.74,6.6-3.87,10.62-4,2.55-.09,7.4-.61,9.12-2.48.63-2.79-.06-3.58-.63-6a19.28,19.28,0,0,1-.48-4.08c0-.72.48-2.79-1-3l-.15,1.55s-.29.52-1.87.8c-.51.09-.91.76-1.18,1.37s-.44,1.08-1,1.07a1,1,0,0,1-.79-.62,7.25,7.25,0,0,1-.29-1,4,4,0,0,0-2.39-2.37,12.14,12.14,0,0,0-2.8-.59c-.72-.11-1.32-.42-2,.2A2.2,2.2,0,0,0,392.08,375.48Z" style="fill:#37474f"></path><path d="M433.11,256.54c1,15.27,1.53,24.16,4.26,65.83a109,109,0,0,1,3.81,21.84c.54,9.22,1.85,37,1.85,37s-7.43,6.1-16,3.28c0,0-7.78-40.84-10.5-53.58-2.6-12.23-4.6-25.6-4.6-25.6L410,322.37s.34,7.59.1,18.92c-.12,6.06-3,38.86-3,38.86s-10.43,4.74-17.47-1.35c0,0-.51-53.19-.62-58.67-.12-6.26,1-69.21,1-69.21Z" style="fill:#455a64"></path><path d="M411.89,305.32l-5.33-27.93s-8.24-.72-12.79-5.32c0,0,.81,4.51,11.17,7.21L410.09,305,410,322.37Z" style="fill:#37474f"></path><path d="M442.79,376.2a16.9,16.9,0,0,1-11.43,4.12s7.1-1.06,11.36-5.74Z" style="fill:#37474f"></path><path d="M407.43,376.28s-7.27,2.54-13.4.6c0,0,4.73,3.18,13.29.57Z" style="fill:#37474f"></path></g><g id="freepik--Top--inject-4"><path d="M330.75,199.72a1.71,1.71,0,0,0-.3-.66,3,3,0,0,1,.06-3,3.31,3.31,0,0,0,.44-.72c.2-.55-.05-1.17,0-1.76.18-2.63,4.94-1.48,6.45-1,.44.15,3,.81,4,1.16a13.57,13.57,0,0,1,.42-4.29c.68-2.73,2.93-2.45,3.06-.78a21.76,21.76,0,0,0,.84,4.46c.28,1.07,1,2.13,1.41,3.71.59,2,.44,3.12,2.44,5,3,2.83,18.4,13.27,18.4,13.27,3.84-2.47,18.7-11.61,24.27-14.63,5.39-2.93,8.14-.57,8.14-.57l-4.7,17.31s-18.53,9.56-25.21,12.48c-4.66,2-6.72.88-11.86-3.7h0c-4.08-3.86-9.46-9.44-15.27-14.58-2.32-2.06-4-3.11-5.64-3.19-.62,0-1.24-.07-1.85-.13-1.38-.16-3-.5-3.67-1.87-.23-.46-.34-1-.53-1.46-.29-.74-.75-1.4-1-2.14a3,3,0,0,1-.2-1.57C330.45,200.63,330.81,200.2,330.75,199.72Z" style="fill:#ffa8a7"></path><path d="M401.36,198.58c-4.74,0-6.58,0-12.6,3.42S371,213.19,371,213.19s5.26,2.93,6.31,13.33l19-8.92Z" style="fill:#455a64"></path><path d="M339.57,195.33c1.57.38,2.06,1.37,2.17,3.58.06,1.31.61,3.7,2.1,4.57a3.41,3.41,0,0,1-1.91-.67c-.72-.65-.91-.71-1.26-.29a2.4,2.4,0,0,1-.94.63,1.69,1.69,0,0,1,.29,2c-.61,1.18-3.68,1.41-6.28.28,0,0,4.17,1,5-.36s-1.41-2.84-3-3.17c0,0,4,.67,4.52-.66s-1.18-2.2-3.54-2.63c0,0,3.3.37,3.78-.78A2,2,0,0,0,339.57,195.33Z" style="fill:#f28f8f"></path><path d="M367.93,215.14a12.38,12.38,0,0,1,4.62,5.7s.33-4.39-3.28-6.55Z" style="fill:#f28f8f"></path><path d="M389.44,215.68c.59-11.77,5.33-16.52,11.92-17.1l14.81-1c4,.93,14.4,2.93,14.4,2.93,4.31,1.29,7.34,12.53,6.33,18.93s-3.12,11.28-3.71,22.05c.17,10.2.32,12.22.32,16.22-9.21,5.85-33.95,7.07-43.68,1.2,0,0-.17-9.86-.37-16.14C389.12,232,389.24,219.73,389.44,215.68Z" style="fill:#50B2C0"></path><path d="M393.33,165.75a3.81,3.81,0,0,0-1.92,3.39,5,5,0,0,0,.84,2.89,6.4,6.4,0,0,0,3.4,2.22,9.88,9.88,0,0,1,1.69.57,14.42,14.42,0,0,1,1.9,1.62c.91.7,1.81,1.42,2.74,2.1a56.11,56.11,0,0,0,5.77,3.78,41.18,41.18,0,0,0,6,2.82c2.19.81,4,.1,6.34.31l-.34,6.34s.78-1.46,1.67-3.2c.77-1.5,4-9.14,4-9.14,1.26-3,2.86-6.14,2.67-9.49-.16-2.71-.7-5.09-2.76-6.24-.17-3.12-.88-4.64-3.07-6.31a12.11,12.11,0,0,0-5.41-2,22,22,0,0,0-6.57.23c-3.24.52-6.48,1.35-9.76,1.18a15.6,15.6,0,0,0-5.24.33,5.31,5.31,0,0,0-3.67,5.19C391.54,163.53,392.49,165.49,393.33,165.75Z" style="fill:#37474f"></path><path d="M413.85,166.56c0,2,1.84,4.83,4.64,7.27a13.8,13.8,0,0,0,.15,5.58,5.47,5.47,0,0,0,.78,1.59,1.61,1.61,0,0,0,1.17.74c.65,0,.91-.34,1.11-.85a17.68,17.68,0,0,1,1-1.88,4.52,4.52,0,0,1,.57-.72c1-.91,3.89-2,5.24,1.08s-1.18,7.44-3.52,8.09c-4,1.13-4.91-1.62-4.91-1.62l.07,13.34c-1.13,3.38-7.39,6.67-12.43,6s-3.44-3.71-1.39-5.77l-.26-4.63a19.86,19.86,0,0,1-5.38-.2c-2.09-.4-3.81-2.36-4.68-5.55a48.6,48.6,0,0,1-.6-18.52c.76-3.76,1.69-5.38,2.14-5.82,0,.82,1.57,3.33,5.64,3.89C407.49,169.2,410.75,167.84,413.85,166.56Z" style="fill:#ffa8a7"></path><path d="M406.05,194.8c3.72-.34,6.74-.85,8.84-2,1.54-.81,2.87-3.34,3.27-4.24,0,0-.1,3.46-2.17,5.38-2.92,2.71-9.83,2.71-9.83,2.71Z" style="fill:#f28f8f"></path><path d="M408,177.82a1.35,1.35,0,1,0,1.4-1.36A1.38,1.38,0,0,0,408,177.82Z" style="fill:#263238"></path><path d="M408.49,173.41l3.27,1.35a1.85,1.85,0,0,0-1-2.36A1.72,1.72,0,0,0,408.49,173.41Z" style="fill:#263238"></path><path d="M409.77,185.1l-5,2a2.63,2.63,0,0,0,3.47,1.56A2.81,2.81,0,0,0,409.77,185.1Z" style="fill:#b16668"></path><path d="M406.86,188.61a2.29,2.29,0,0,0,0,.25,2.58,2.58,0,0,0,1.39-.16,2.77,2.77,0,0,0,1.68-2.58,2.48,2.48,0,0,0-.54-.06A2.55,2.55,0,0,0,406.86,188.61Z" style="fill:#f28f8f"></path><path d="M396.25,174.68l3.23-1.25a1.67,1.67,0,0,0-2.19-1A1.76,1.76,0,0,0,396.25,174.68Z" style="fill:#263238"></path><path d="M397.08,177.53a1.37,1.37,0,0,0,1.31,1.45,1.41,1.41,0,1,0-1.31-1.45Z" style="fill:#263238"></path><polygon points="404.26 184.44 399.28 183.5 403.98 175.54 404.26 184.44" style="fill:#f28f8f"></polygon><path d="M431.43,200.75c6.23,1.08,10,3.08,11.6,8,2.27,7,8.62,26.83,9.93,33.88.8,4.33,2.05,7.07-1.62,9.92A260.27,260.27,0,0,1,424,269.85c-8.32,4.36-20.88,5.22-20.88,5.22l9.11-5.51,1.62-3.09L438.2,244.9,429,217.72S426.68,203.75,431.43,200.75Z" style="fill:#ffa8a7"></path><path d="M438.2,244.9a13.87,13.87,0,0,1,6.4-1.54s-2.16-1.86-6.93,0Z" style="fill:#f28f8f"></path><path d="M430.57,200.51c2.85.53,6,.84,8.9,2.68s3.43,4.07,5.66,10.94,4.86,17,4.86,17-5.46,4.62-14.86,4.75c0,0-4.63-12.85-5.77-15.71S425.35,208.09,430.57,200.51Z" style="fill:#455a64"></path><path d="M420.53,262.24l0,.86a2.42,2.42,0,0,1-1.16,2.12L396.67,279a2.46,2.46,0,0,1-2.41,0L351.5,255.58a2.45,2.45,0,0,1-1.25-2.07v-.58l45.19,24.78Z" style="fill:#50B2C0"></path><g style="opacity:0.5"><path d="M420.53,262.24l0,.86a2.42,2.42,0,0,1-1.16,2.12L396.67,279a2.46,2.46,0,0,1-2.41,0L351.5,255.58a2.45,2.45,0,0,1-1.25-2.07v-.58l45.19,24.78Z" style="fill:#fff"></path></g><g style="opacity:0.1"><path d="M420.53,262.24l0,.86a2.42,2.42,0,0,1-1.16,2.12L396.67,279a2.46,2.46,0,0,1-2.41,0L351.5,255.58a2.45,2.45,0,0,1-1.25-2.07v-.58l45.19,24.78Z"></path></g><path d="M350.24,252.93l24.71-15a1.45,1.45,0,0,1,1.44,0l44,24.12a.32.32,0,0,1,0,.55l-24.95,15.15Z" style="fill:#50B2C0"></path><g style="opacity:0.85"><path d="M350.24,252.93l24.71-15a1.45,1.45,0,0,1,1.44,0l44,24.12a.32.32,0,0,1,0,.55l-24.95,15.15Z" style="fill:#fff"></path></g><polygon points="395.22 275.36 408.55 267.27 368.97 245.57 355.57 253.62 395.22 275.36" style="fill:#50B2C0"></polygon><g style="opacity:0.6000000000000001"><polygon points="395.22 275.36 408.55 267.27 368.97 245.57 355.57 253.62 395.22 275.36" style="fill:#fff"></polygon></g><polygon points="401.78 253.77 401.53 253.92 395 257.89 383.08 251.35 382.83 251.22 389.61 247.1 401.78 253.77" style="fill:#50B2C0"></polygon><polygon points="401.53 253.92 395 257.89 383.08 251.35 389.62 247.39 401.53 253.92" style="fill:#50B2C0"></polygon><g style="opacity:0.6000000000000001"><polygon points="401.53 253.92 395 257.89 383.08 251.35 389.62 247.39 401.53 253.92" style="fill:#fff"></polygon></g><path d="M395.43,277.71l0,1.6a2.35,2.35,0,0,1-1.21-.29L351.5,255.58a2.45,2.45,0,0,1-1.25-2.07v-.58Z" style="fill:#50B2C0"></path><g style="opacity:0.03"><path d="M395.43,277.71l0,1.6a2.35,2.35,0,0,1-1.21-.29L351.5,255.58a2.45,2.45,0,0,1-1.25-2.07v-.58Z" style="fill:#fff"></path></g><g style="opacity:0.2"><path d="M395.43,277.71l0,1.6a2.35,2.35,0,0,1-1.21-.29L351.5,255.58a2.45,2.45,0,0,1-1.25-2.07v-.58Z"></path></g><path d="M394.76,278.08a2.83,2.83,0,0,1-2.47-.14L349.73,254.6a2.89,2.89,0,0,1-1.44-2l-5.2-27.34a2.59,2.59,0,0,1,0-.47,2.84,2.84,0,0,1,.8-2.05L388.07,247a2.08,2.08,0,0,1,1.06,1.45Z" style="fill:#50B2C0"></path><g style="opacity:0.4"><path d="M394.76,278.08a2.83,2.83,0,0,1-2.47-.14L349.73,254.6a2.89,2.89,0,0,1-1.44-2l-5.2-27.34a2.59,2.59,0,0,1,0-.47,2.84,2.84,0,0,1,.8-2.05L388.07,247a2.08,2.08,0,0,1,1.06,1.45Z" style="fill:#fff"></path></g><path d="M395.43,277.71l-.28.17a2.87,2.87,0,0,1-.39.2l-5.63-29.59a2.08,2.08,0,0,0-1.06-1.45l-44.23-24.26a2.56,2.56,0,0,1,.57-.46l44.33,24.3a2.15,2.15,0,0,1,1.06,1.46Z" style="fill:#50B2C0"></path><g style="opacity:0.6000000000000001"><path d="M395.43,277.71l-.28.17a2.87,2.87,0,0,1-.39.2l-5.63-29.59a2.08,2.08,0,0,0-1.06-1.45l-44.23-24.26a2.56,2.56,0,0,1,.57-.46l44.33,24.3a2.15,2.15,0,0,1,1.06,1.46Z" style="fill:#fff"></path></g><path d="M388.72,247.59l.66-.4a2.09,2.09,0,0,1,.42.89l5.63,29.63-.28.17a2.87,2.87,0,0,1-.39.2l-5.63-29.59A2.11,2.11,0,0,0,388.72,247.59Z" style="fill:#50B2C0"></path><path d="M388.72,247.59l.66-.4a2.09,2.09,0,0,1,.42.89l5.63,29.63-.28.17a2.87,2.87,0,0,1-.39.2l-5.63-29.59A2.11,2.11,0,0,0,388.72,247.59Z" style="fill:#fff;opacity:0.5"></path><path d="M388.72,247.59l.66-.4a2.09,2.09,0,0,1,.42.89l5.63,29.63-.28.17a2.87,2.87,0,0,1-.39.2l-5.63-29.59A2.11,2.11,0,0,0,388.72,247.59Z" style="opacity:0.1"></path><path d="M370.53,253.27a9.3,9.3,0,0,0-4.36-5.36c-2.05-1.12-3.44-.56-3.09,1.28s2.3,4.22,4.36,5.35S370.88,255.1,370.53,253.27Z" style="fill:#455a64"></path><path d="M421.36,259.82c-2.38,1.67-5.59.32-8.75.7s-5.86,1.16-8.4,1.09-3.78.44-2,2.47,6.87.86,8.25,1.48a3,3,0,0,1,.64,4.68c-1.49,1.73,8.48-1.61,9.81-3.66S423.16,260.08,421.36,259.82Z" style="fill:#ffa8a7"></path></g></g></g></svg>