<svg xmlns="http://www.w3.org/2000/svg" viewBox="0 0 500 500"><g id="freepik--Gears--inject-2"><g id="freepik--gears--inject-2"><path d="M75,100.62a1.55,1.55,0,0,1-.31,0l-3.09-.48a1.7,1.7,0,0,1-1.4-2.21l1.69-5.71A1.3,1.3,0,0,0,71.45,91a10.88,10.88,0,0,1-.92-1,.5.5,0,0,0-.7-.14L66,92.8A1.41,1.41,0,0,1,63.65,92l-1-4.37a3.12,3.12,0,0,1,.71-2.67l3.8-4a3,3,0,0,0,.67-1.63,30.41,30.41,0,0,1,.32-3,.8.8,0,0,0-.47-.83l-2.44-.86a1.84,1.84,0,0,1-1.07-1,1.81,1.81,0,0,1-.06-1.44l2.35-6.37a2.55,2.55,0,0,1,2.25-1.6l2.94,0a1.68,1.68,0,0,0,1.22-.73c.62-1.05,1.28-2.06,2-3a2.69,2.69,0,0,0,.44-1.66l-.55-4.32a3.2,3.2,0,0,1,1-2.6L80,48a1.44,1.44,0,0,1,2.41.59l1.26,3.35a.33.33,0,0,0,.19.22.44.44,0,0,0,.35,0,16.12,16.12,0,0,1,1.92-.78,2.32,2.32,0,0,0,1.23-1l2.51-5.65a2.33,2.33,0,0,1,2.4-1.31l3.1.47A1.71,1.71,0,0,1,96.73,46L95,51.7a1.32,1.32,0,0,0,.41,1.19,7.87,7.87,0,0,1,.92,1,.5.5,0,0,0,.7.14l3.87-2.93a1.41,1.41,0,0,1,2.32.83l1,4.36a3.14,3.14,0,0,1-.72,2.68l-3.8,4a3.09,3.09,0,0,0-.67,1.63,25,25,0,0,1-.32,3.06.8.8,0,0,0,.48.83l2.43.85a1.86,1.86,0,0,1,1.14,2.41l-2.35,6.37a2.56,2.56,0,0,1-2.25,1.6l-3,0a1.68,1.68,0,0,0-1.21.73c-.62,1-1.28,2-2,3a2.83,2.83,0,0,0-.44,1.66l.56,4.32a3.27,3.27,0,0,1-1,2.6l-4.33,3.89a1.45,1.45,0,0,1-2.42-.59L83.27,92a.34.34,0,0,0-.2-.22.44.44,0,0,0-.35,0,15.47,15.47,0,0,1-1.92.78,2.32,2.32,0,0,0-1.23,1l-2.5,5.65A2.38,2.38,0,0,1,75,100.62ZM70.1,88.4a1.93,1.93,0,0,1,1.5.75,7.05,7.05,0,0,0,.79.84,2.68,2.68,0,0,1,.79,2.59L71.49,98.3a.34.34,0,0,0,0,.3.38.38,0,0,0,.27.16l3.09.48a1,1,0,0,0,.94-.52l2.51-5.65a3.65,3.65,0,0,1,2.06-1.79,12.6,12.6,0,0,0,1.75-.71,1.83,1.83,0,0,1,1.45-.07,1.69,1.69,0,0,1,1,1l1.26,3.35c0,.09.07.13.08.13a.34.34,0,0,0,.13-.08L90.35,91a1.91,1.91,0,0,0,.52-1.4l-.56-4.33a4.06,4.06,0,0,1,.7-2.64c.66-.91,1.3-1.88,1.89-2.89a3.06,3.06,0,0,1,2.38-1.4l2.94-.05a1.21,1.21,0,0,0,1-.7l2.35-6.37a.49.49,0,0,0-.3-.64l-2.44-.85a2.17,2.17,0,0,1-1.37-2.34,26.84,26.84,0,0,0,.3-2.91,4.33,4.33,0,0,1,1-2.51l3.8-4a1.73,1.73,0,0,0,.37-1.4h0l-1-4.37c0-.07,0-.11,0-.12a.71.71,0,0,0-.11.07L97.9,55.11a1.85,1.85,0,0,1-2.6-.37,6.93,6.93,0,0,0-.78-.84,2.67,2.67,0,0,1-.79-2.59l1.69-5.72a.38.38,0,0,0,0-.3.34.34,0,0,0-.27-.16L92,44.65a1,1,0,0,0-.94.52l-2.5,5.64a3.7,3.7,0,0,1-2.06,1.8,12.77,12.77,0,0,0-1.75.7,1.78,1.78,0,0,1-1.46.08,1.72,1.72,0,0,1-1-1L81.1,49c0-.09-.08-.13-.09-.13a.33.33,0,0,0-.13.08l-4.33,3.89a1.9,1.9,0,0,0-.51,1.4l.56,4.33a4.19,4.19,0,0,1-.7,2.64c-.67.91-1.3,1.88-1.9,2.89a3,3,0,0,1-2.38,1.4l-2.94,0a1.2,1.2,0,0,0-1,.7l-2.36,6.37a.5.5,0,0,0,0,.38.53.53,0,0,0,.29.26l2.43.85a2.18,2.18,0,0,1,1.38,2.34,27.44,27.44,0,0,0-.31,2.91,4.39,4.39,0,0,1-1,2.51l-3.8,4a1.77,1.77,0,0,0-.38,1.4L65,91.65a.52.52,0,0,0,0,.12.71.71,0,0,0,.11-.07L69,88.77A1.79,1.79,0,0,1,70.1,88.4Zm9.7-3.73a5.54,5.54,0,0,1-1.63-.24c-1.92-.6-3.29-2.26-3.88-4.69C73,74.39,75.9,66.49,80.75,62.13c2.7-2.43,5.61-3.41,8-2.67a6,6,0,0,1,3.88,4.69C93.9,69.5,91,77.4,86.15,81.76h0A9.9,9.9,0,0,1,79.8,84.67Zm7.3-24.08a8.58,8.58,0,0,0-5.43,2.56c-4.52,4.06-7.23,11.36-6,16.27.48,2,1.5,3.25,3,3.7,1.9.58,4.32-.28,6.66-2.38,4.51-4.06,7.22-11.36,6-16.27-.47-2-1.5-3.25-3-3.7A4.14,4.14,0,0,0,87.1,60.59Z" style="fill:#e0e0e0"></path><path d="M118,74.65h-.22l-2.05-.32a1.28,1.28,0,0,1-.88-.57,1.3,1.3,0,0,1-.14-1l1.13-3.79a.81.81,0,0,0-.24-.68,8,8,0,0,1-.63-.67c0-.07-.19-.17-.31-.08l-2.57,2a1.09,1.09,0,0,1-1,.19,1.07,1.07,0,0,1-.68-.8l-.7-2.9a2.19,2.19,0,0,1,.51-1.88l2.52-2.64a1.93,1.93,0,0,0,.41-1,18.4,18.4,0,0,1,.22-2,.42.42,0,0,0-.25-.43l-1.62-.57a1.35,1.35,0,0,1-.82-1.74l1.57-4.23a1.8,1.8,0,0,1,1.59-1.13l2,0a1,1,0,0,0,.72-.43,23,23,0,0,1,1.32-2,1.74,1.74,0,0,0,.27-1l-.37-2.87a2.29,2.29,0,0,1,.67-1.82l2.88-2.58a1.09,1.09,0,0,1,1-.29,1.13,1.13,0,0,1,.77.72l.83,2.23c.11.1.16.09.21.06a11.23,11.23,0,0,1,1.29-.52,1.43,1.43,0,0,0,.75-.63l1.67-3.75a1.64,1.64,0,0,1,1.71-.94l2.06.32a1.24,1.24,0,0,1,1,1.6l-1.12,3.8a.76.76,0,0,0,.24.68,5,5,0,0,1,.62.67.23.23,0,0,0,.32.07l2.56-1.94a1.12,1.12,0,0,1,1-.2,1.13,1.13,0,0,1,.68.81l.69,2.9a2.17,2.17,0,0,1-.5,1.87l-2.52,2.65a2,2,0,0,0-.42,1,18.76,18.76,0,0,1-.21,2,.42.42,0,0,0,.24.43l1.62.56a1.38,1.38,0,0,1,.78.7,1.34,1.34,0,0,1,0,1l-1.56,4.23a1.79,1.79,0,0,1-1.59,1.13l-2,0a1,1,0,0,0-.72.43c-.4.69-.85,1.36-1.31,2a1.74,1.74,0,0,0-.28,1l.37,2.88a2.26,2.26,0,0,1-.67,1.81L126,71.52a1.06,1.06,0,0,1-1.78-.44l-.84-2.22c-.11-.1-.16-.09-.21-.07a10,10,0,0,1-1.29.53,1.39,1.39,0,0,0-.75.63L119.5,73.7A1.67,1.67,0,0,1,118,74.65Zm-3.23-8.33a1.39,1.39,0,0,1,1.08.54,5.35,5.35,0,0,0,.51.55,1.89,1.89,0,0,1,.56,1.83L115.8,73l.11.17,2,.32a.52.52,0,0,0,.51-.28l1.67-3.75a2.55,2.55,0,0,1,1.43-1.25,8.35,8.35,0,0,0,1.15-.46,1.26,1.26,0,0,1,1.76.68l.83,2.23,2.85-2.59a1.23,1.23,0,0,0,.31-.84l-.38-2.87a2.85,2.85,0,0,1,.49-1.83c.44-.61.86-1.25,1.25-1.91a2.14,2.14,0,0,1,1.67-1l2,0a.72.72,0,0,0,.55-.39L135.57,55a.24.24,0,0,0,0-.17.25.25,0,0,0-.13-.11l-1.62-.57a1.53,1.53,0,0,1-1-1.67,18.68,18.68,0,0,0,.2-1.92,3.09,3.09,0,0,1,.72-1.74l2.52-2.65a1,1,0,0,0,.23-.83h0l-.7-2.9-2.5,2a1.34,1.34,0,0,1-1.88-.27,6.52,6.52,0,0,0-.5-.54,1.87,1.87,0,0,1-.56-1.83l1.12-3.8,0-.14-.14,0-2-.32a.52.52,0,0,0-.51.28l-1.66,3.75a2.57,2.57,0,0,1-1.44,1.25,10.73,10.73,0,0,0-1.15.47,1.33,1.33,0,0,1-1,.05,1.2,1.2,0,0,1-.7-.74L122,40.32l-2.84,2.59a1.16,1.16,0,0,0-.31.83l.37,2.88a2.86,2.86,0,0,1-.48,1.83,22.5,22.5,0,0,0-1.26,1.91,2.16,2.16,0,0,1-1.67,1l-2,0a.72.72,0,0,0-.56.39L111.72,56a.19.19,0,0,0,0,.17.22.22,0,0,0,.13.12l1.62.57a1.55,1.55,0,0,1,1,1.67,16.26,16.26,0,0,0-.2,1.92,3,3,0,0,1-.73,1.73L111,64.83a1.08,1.08,0,0,0-.22.83l.69,2.9,2.51-2A1.3,1.3,0,0,1,114.78,66.32Zm6.44-2.26a3.73,3.73,0,0,1-1.11-.16,4.11,4.11,0,0,1-2.65-3.19c-.87-3.59,1.07-8.89,4.32-11.81,1.82-1.64,3.79-2.29,5.4-1.79a4.1,4.1,0,0,1,2.66,3.19c.86,3.59-1.08,8.88-4.33,11.8h0A6.67,6.67,0,0,1,121.22,64.06Zm4.85-16a5.58,5.58,0,0,0-3.53,1.67c-3,2.67-4.77,7.48-4,10.7a3,3,0,0,0,1.89,2.38c1.22.38,2.8-.19,4.32-1.56h0c3-2.67,4.76-7.47,4-10.7a3,3,0,0,0-1.89-2.37A2.54,2.54,0,0,0,126.07,48.07Z" style="fill:#e0e0e0"></path></g><g id="freepik--gears--inject-2"><path d="M256.57,363.14l-.3,0-3.09-.48a1.7,1.7,0,0,1-1.4-2.21l1.69-5.71a1.37,1.37,0,0,0-.41-1.2,8.53,8.53,0,0,1-.92-1,.51.51,0,0,0-.7-.15l-3.87,2.93a1.41,1.41,0,0,1-2.32-.83l-1.05-4.36a3.13,3.13,0,0,1,.72-2.67l3.8-4a3.09,3.09,0,0,0,.67-1.63,25.44,25.44,0,0,1,.32-3.06.81.81,0,0,0-.48-.83l-2.43-.85a1.86,1.86,0,0,1-1.14-2.41l2.35-6.37a2.58,2.58,0,0,1,2.25-1.6l3-.05a1.67,1.67,0,0,0,1.21-.72c.62-1.05,1.29-2.06,2-3a2.8,2.8,0,0,0,.44-1.65l-.56-4.33a3.25,3.25,0,0,1,1-2.59l4.33-3.89a1.53,1.53,0,0,1,1.38-.4,1.51,1.51,0,0,1,1,1l1.25,3.35a.4.4,0,0,0,.2.22.41.41,0,0,0,.35,0,14,14,0,0,1,1.92-.77,2.38,2.38,0,0,0,1.23-1.05l2.5-5.64a2.35,2.35,0,0,1,2.41-1.32l3.09.48a1.7,1.7,0,0,1,1.4,2.21l-1.69,5.71a1.34,1.34,0,0,0,.4,1.2,9.6,9.6,0,0,1,.93,1,.49.49,0,0,0,.7.15l3.86-2.93a1.41,1.41,0,0,1,2.32.83l1.05,4.36a3.09,3.09,0,0,1-.71,2.67l-3.8,4a3,3,0,0,0-.67,1.63,29.7,29.7,0,0,1-.32,3.06.81.81,0,0,0,.47.83l2.44.85a1.83,1.83,0,0,1,1.07,1,1.8,1.8,0,0,1,.06,1.44l-2.35,6.37a2.57,2.57,0,0,1-2.25,1.6l-2.94,0a1.67,1.67,0,0,0-1.22.72,35.47,35.47,0,0,1-2,3,2.66,2.66,0,0,0-.44,1.65l.56,4.33a3.22,3.22,0,0,1-1,2.59l-4.32,3.89a1.5,1.5,0,0,1-1.38.4,1.53,1.53,0,0,1-1-1l-1.26-3.35a.35.35,0,0,0-.19-.22.4.4,0,0,0-.35,0,14.51,14.51,0,0,1-1.92.77,2.34,2.34,0,0,0-1.23,1.05l-2.51,5.64A2.35,2.35,0,0,1,256.57,363.14Zm-4.86-12.21a1.92,1.92,0,0,1,1.5.75,7.72,7.72,0,0,0,.78.83,2.71,2.71,0,0,1,.79,2.6l-1.69,5.71a.41.41,0,0,0,0,.31.33.33,0,0,0,.26.15l3.1.48a1,1,0,0,0,.94-.51l2.5-5.65a3.68,3.68,0,0,1,2.06-1.79,14.27,14.27,0,0,0,1.75-.71,1.78,1.78,0,0,1,1.46-.07,1.73,1.73,0,0,1,1,1l1.25,3.35a.44.44,0,0,0,.09.14.52.52,0,0,0,.13-.09l4.33-3.89a1.89,1.89,0,0,0,.51-1.4l-.56-4.32a4.17,4.17,0,0,1,.7-2.64c.67-.92,1.31-1.89,1.9-2.89a3.06,3.06,0,0,1,2.38-1.41l2.94-.05a1.21,1.21,0,0,0,1-.7l2.35-6.37a.5.5,0,0,0,0-.38.55.55,0,0,0-.28-.26l-2.44-.85a2.17,2.17,0,0,1-1.38-2.34,26.9,26.9,0,0,0,.31-2.91,4.33,4.33,0,0,1,1.05-2.51l3.79-4a1.8,1.8,0,0,0,.38-1.41h0l-1.05-4.36a.7.7,0,0,0,0-.13l-.11.07-3.87,2.93a1.84,1.84,0,0,1-2.59-.38,7.72,7.72,0,0,0-.78-.83,2.69,2.69,0,0,1-.8-2.6l1.69-5.71a.32.32,0,0,0-.29-.46l-3.09-.48a1,1,0,0,0-.94.51l-2.51,5.65a3.65,3.65,0,0,1-2.06,1.79,15.68,15.68,0,0,0-1.75.71,1.75,1.75,0,0,1-1.45.07,1.73,1.73,0,0,1-1-1l-1.26-3.35a.34.34,0,0,0-.08-.14.3.3,0,0,0-.13.09l-4.33,3.89a1.89,1.89,0,0,0-.52,1.39l.56,4.33a4,4,0,0,1-.7,2.64,33.66,33.66,0,0,0-1.89,2.9,3.09,3.09,0,0,1-2.38,1.4l-2.94.05a1.2,1.2,0,0,0-1,.69L247,335.17a.5.5,0,0,0,0,.38.53.53,0,0,0,.29.26l2.44.85a2.15,2.15,0,0,1,1.37,2.33,25.38,25.38,0,0,0-.3,2.92,4.33,4.33,0,0,1-1,2.51l-3.8,4a1.76,1.76,0,0,0-.37,1.41l1.05,4.36a.34.34,0,0,0,0,.13l.11-.07,3.86-2.93A1.82,1.82,0,0,1,251.71,350.93Zm9.69-3.74a5.47,5.47,0,0,1-1.62-.23,6,6,0,0,1-3.88-4.69c-1.29-5.35,1.6-13.25,6.46-17.61,2.7-2.44,5.61-3.41,8-2.68,1.92.6,3.29,2.26,3.88,4.69,1.29,5.35-1.61,13.25-6.46,17.62h0A9.89,9.89,0,0,1,261.4,347.19Zm7.3-24.07a8.6,8.6,0,0,0-5.43,2.56c-4.51,4.06-7.22,11.36-6,16.27a4.64,4.64,0,0,0,3,3.69c1.89.59,4.32-.28,6.65-2.37,4.52-4.07,7.23-11.37,6.05-16.28-.48-2-1.5-3.24-3-3.69A3.86,3.86,0,0,0,268.7,323.12Z" style="fill:#e0e0e0"></path><path d="M217.66,369h-.22l-2.05-.32a1.25,1.25,0,0,1-.88-.57,1.22,1.22,0,0,1-.14-1l1.13-3.79a.81.81,0,0,0-.24-.68,8,8,0,0,1-.63-.67c-.06-.07-.19-.17-.31-.08l-2.57,1.95a1.09,1.09,0,0,1-1,.19,1.07,1.07,0,0,1-.68-.8l-.7-2.9a2.22,2.22,0,0,1,.5-1.88l2.53-2.64a2,2,0,0,0,.41-1,16.28,16.28,0,0,1,.22-2,.42.42,0,0,0-.25-.43l-1.62-.57a1.34,1.34,0,0,1-.77-.69,1.37,1.37,0,0,1-.05-1.05l1.57-4.23a1.8,1.8,0,0,1,1.59-1.13l1.95,0a1,1,0,0,0,.72-.43,23,23,0,0,1,1.32-2,1.74,1.74,0,0,0,.27-1l-.37-2.87a2.29,2.29,0,0,1,.67-1.82l2.88-2.58a1.12,1.12,0,0,1,1-.29,1.13,1.13,0,0,1,.77.72l.83,2.23c.11.1.16.09.21.06a11.23,11.23,0,0,1,1.29-.52,1.43,1.43,0,0,0,.75-.63l1.67-3.75a1.65,1.65,0,0,1,1.71-.94l2.06.32a1.27,1.27,0,0,1,.88.57,1.24,1.24,0,0,1,.13,1l-1.12,3.8a.76.76,0,0,0,.24.68,6.64,6.64,0,0,1,.62.67.23.23,0,0,0,.32.07l2.56-1.94a1.12,1.12,0,0,1,1-.2,1.1,1.1,0,0,1,.67.81l.7,2.9a2.19,2.19,0,0,1-.5,1.87L234.23,344a1.87,1.87,0,0,0-.42,1,18.51,18.51,0,0,1-.21,2.05.42.42,0,0,0,.24.43l1.62.56a1.38,1.38,0,0,1,.78.7,1.34,1.34,0,0,1,0,1L234.72,354a1.83,1.83,0,0,1-1.6,1.13l-2,0a1,1,0,0,0-.72.43c-.41.69-.85,1.36-1.31,2a1.74,1.74,0,0,0-.28,1l.37,2.88a2.25,2.25,0,0,1-.67,1.81l-2.87,2.59a1.13,1.13,0,0,1-1,.29,1.11,1.11,0,0,1-.76-.73l-.84-2.22c-.11-.1-.16-.09-.21-.07a10,10,0,0,1-1.29.53,1.39,1.39,0,0,0-.75.63l-1.67,3.75A1.65,1.65,0,0,1,217.66,369Zm-3.23-8.32a1.38,1.38,0,0,1,1.08.53,5.35,5.35,0,0,0,.51.55,1.92,1.92,0,0,1,.56,1.83l-1.13,3.79.11.17,2.05.32a.53.53,0,0,0,.51-.27l1.67-3.76a2.55,2.55,0,0,1,1.43-1.25,8.35,8.35,0,0,0,1.15-.46,1.26,1.26,0,0,1,1.76.68l.83,2.23,2.85-2.59a1.18,1.18,0,0,0,.3-.84l-.37-2.87a2.85,2.85,0,0,1,.49-1.83c.44-.61.86-1.25,1.25-1.91a2.12,2.12,0,0,1,1.67-1l2,0a.72.72,0,0,0,.55-.39l1.56-4.24a.24.24,0,0,0,0-.17.3.3,0,0,0-.13-.11l-1.62-.57a1.53,1.53,0,0,1-1-1.67,18.68,18.68,0,0,0,.2-1.92,3,3,0,0,1,.72-1.74l2.52-2.65a1.08,1.08,0,0,0,.23-.83h0l-.7-2.9-2.5,2a1.34,1.34,0,0,1-1.88-.26,4.49,4.49,0,0,0-.51-.55,1.89,1.89,0,0,1-.55-1.83l1.12-3.8,0-.14-.14,0-2.05-.32a.52.52,0,0,0-.51.28l-1.67,3.75a2.52,2.52,0,0,1-1.43,1.25,10.73,10.73,0,0,0-1.15.47,1.33,1.33,0,0,1-1.05.05,1.2,1.2,0,0,1-.7-.74l-.84-2.22-2.84,2.59a1.16,1.16,0,0,0-.31.83l.37,2.88a2.92,2.92,0,0,1-.48,1.83,22.5,22.5,0,0,0-1.26,1.91,2.13,2.13,0,0,1-1.67,1l-1.95,0a.72.72,0,0,0-.56.39l-1.56,4.23a.19.19,0,0,0,0,.17.22.22,0,0,0,.13.12l1.62.57a1.55,1.55,0,0,1,1,1.67,16.26,16.26,0,0,0-.2,1.92,3,3,0,0,1-.73,1.73l-2.52,2.65a1.13,1.13,0,0,0-.23.83l.7,2.9,2.51-2A1.29,1.29,0,0,1,214.43,360.72Zm6.44-2.27a3.68,3.68,0,0,1-1.11-.16,4.09,4.09,0,0,1-2.65-3.19c-.87-3.59,1.07-8.89,4.32-11.8,1.82-1.64,3.79-2.3,5.4-1.8a4.1,4.1,0,0,1,2.66,3.19c.86,3.59-1.08,8.88-4.33,11.8h0A6.67,6.67,0,0,1,220.87,358.45Zm4.84-16a5.62,5.62,0,0,0-3.53,1.67c-3,2.68-4.76,7.48-4,10.7a3,3,0,0,0,1.89,2.38c1.22.38,2.8-.19,4.32-1.56h0c3-2.67,4.76-7.47,4-10.7a3,3,0,0,0-1.89-2.37A2.56,2.56,0,0,0,225.71,342.46Z" style="fill:#e0e0e0"></path></g></g><g id="freepik--chart-3--inject-2"><g id="freepik--screen-3--inject-2"><path d="M204.3,51.19a2.35,2.35,0,0,0-1-2.21h0l-2.66-1.51h0a2.35,2.35,0,0,0-2.43.21L50.85,132.74a7.48,7.48,0,0,0-3.39,5.87V270.09a2.37,2.37,0,0,0,1,2.2h0l2.72,1.55h0a2.38,2.38,0,0,0,2.4-.24l147.33-85.06a7.5,7.5,0,0,0,3.39-5.87Z" style="fill:#00ADB5;opacity:0.4"></path><path d="M204.3,51.2V182.68a7.49,7.49,0,0,1-3.38,5.87L53.58,273.62c-1.66,1-3,.37-3.32-1.29a2.85,2.85,0,0,0,.59-.28L198.18,187a7.48,7.48,0,0,0,3.39-5.87V49.63a3,3,0,0,0-.06-.68C203.1,48.36,204.3,49.27,204.3,51.2Z" style="fill:#00ADB5;opacity:0.4"></path><path d="M200.91,49.24l-11.34,7-30,17.55-36.93,21.4L80.19,119.69l-18.5,10.64L57.07,133l-2.31,1.33c-.37.22-.82.45-1.12.66a6,6,0,0,0-.91.77,7,7,0,0,0-1.94,4.38v5.33l0,53.85-.12,27.28c-.07,28.45-.27,16.61-.44,45.07-.18-28.46-.37-16.62-.44-45.07l-.12-27.28,0-53.85v-5.34a8.13,8.13,0,0,1,2.25-5.19A6.78,6.78,0,0,1,53,134c.44-.29.79-.47,1.18-.7l2.31-1.34,4.62-2.68,18.46-10.69L122,94.07,159,72.8l30.21-17.21Z" style="fill:#fff"></path><g style="opacity:0.5"><polygon points="73.6 239.5 65.68 244.07 65.68 151.19 73.6 146.61 73.6 239.5" style="fill:#fff"></polygon><polygon points="87.57 231.43 79.66 236 79.66 143.12 87.57 138.54 87.57 231.43" style="fill:#fff"></polygon><polygon points="101.55 223.36 93.63 227.94 93.63 135.05 101.55 130.48 101.55 223.36" style="fill:#fff"></polygon><polygon points="115.52 215.29 107.6 219.87 107.6 126.98 115.52 122.41 115.52 215.29" style="fill:#fff"></polygon><polygon points="129.5 207.23 121.58 211.8 121.58 118.91 129.5 114.34 129.5 207.23" style="fill:#fff"></polygon><polygon points="143.47 199.16 135.55 203.73 135.55 110.84 143.47 106.27 143.47 199.16" style="fill:#fff"></polygon><polygon points="157.44 191.09 149.53 195.66 149.53 102.78 157.44 98.2 157.44 191.09" style="fill:#fff"></polygon><polygon points="171.42 183.02 163.5 187.59 163.5 94.71 171.42 90.14 171.42 183.02" style="fill:#fff"></polygon><polygon points="185.39 174.95 177.48 179.53 177.48 86.64 185.39 82.07 185.39 174.95" style="fill:#fff"></polygon></g><path d="M73.09,250.07l-6.44,3.72a1.76,1.76,0,0,0-.73,1.4v.15c0,.54.33.79.73.56l6.44-3.72a1.76,1.76,0,0,0,.74-1.41v-.14C73.83,250.09,73.5,249.84,73.09,250.07Z" style="fill:#455a64"></path><path d="M87.07,242l-6.44,3.72a1.76,1.76,0,0,0-.73,1.4v.15c0,.54.33.79.73.55l6.44-3.71a1.77,1.77,0,0,0,.74-1.41v-.14C87.81,242,87.48,241.77,87.07,242Z" style="fill:#455a64"></path><path d="M101.05,233.93l-6.44,3.72a1.76,1.76,0,0,0-.73,1.4v.15c0,.54.33.79.73.55l6.44-3.72a1.74,1.74,0,0,0,.74-1.4v-.15C101.79,233.94,101.46,233.69,101.05,233.93Z" style="fill:#455a64"></path><path d="M115,225.86l-6.44,3.71a1.79,1.79,0,0,0-.73,1.41v.14c0,.54.33.79.73.56L115,228a1.73,1.73,0,0,0,.73-1.4v-.15C115.76,225.87,115.44,225.62,115,225.86Z" style="fill:#455a64"></path><path d="M129,217.78l-6.44,3.72a1.78,1.78,0,0,0-.73,1.41v.14c0,.54.33.79.73.56l6.44-3.72a1.76,1.76,0,0,0,.73-1.4v-.15C129.74,217.8,129.41,217.55,129,217.78Z" style="fill:#455a64"></path><path d="M143,209.71l-6.44,3.72a1.73,1.73,0,0,0-.73,1.4V215c0,.54.32.79.73.56l6.44-3.72a1.78,1.78,0,0,0,.73-1.41v-.14C143.72,209.73,143.39,209.48,143,209.71Z" style="fill:#455a64"></path><path d="M157,201.64l-6.44,3.72a1.74,1.74,0,0,0-.74,1.4v.15c0,.54.33.79.74.55l6.44-3.71a1.79,1.79,0,0,0,.73-1.41v-.14C157.7,201.65,157.37,201.41,157,201.64Z" style="fill:#455a64"></path><path d="M171,193.57l-6.44,3.72a1.74,1.74,0,0,0-.74,1.4v.15c0,.54.33.79.74.55l6.44-3.72a1.76,1.76,0,0,0,.73-1.4v-.15C171.68,193.58,171.35,193.33,171,193.57Z" style="fill:#455a64"></path><path d="M184.93,185.5l-6.44,3.71a1.77,1.77,0,0,0-.74,1.41v.14c0,.54.33.79.74.56l6.44-3.72a1.76,1.76,0,0,0,.73-1.4v-.15C185.66,185.51,185.33,185.26,184.93,185.5Z" style="fill:#455a64"></path><polygon points="65.68 223.33 73.6 218.75 73.6 239.5 65.68 244.07 65.68 223.33" style="fill:#00ADB5"></polygon><polygon points="79.66 193.86 87.57 189.29 87.57 231.43 79.66 236 79.66 193.86" style="fill:#00ADB5"></polygon><polygon points="93.63 159.12 101.55 154.54 101.55 223.36 93.63 227.94 93.63 159.12" style="fill:#00ADB5"></polygon><polygon points="107.6 188.31 115.52 183.74 115.52 215.29 107.6 219.87 107.6 188.31" style="fill:#00ADB5"></polygon><polygon points="121.58 173.23 129.5 168.65 129.5 207.23 121.58 211.8 121.58 173.23" style="fill:#00ADB5"></polygon><polygon points="135.55 153.24 143.47 148.67 143.47 199.16 135.55 203.73 135.55 153.24" style="fill:#00ADB5"></polygon><polygon points="149.53 172.32 157.44 167.75 157.44 191.09 149.53 195.66 149.53 172.32" style="fill:#00ADB5"></polygon><polygon points="163.5 156.81 171.42 152.24 171.42 183.02 163.5 187.59 163.5 156.81" style="fill:#00ADB5"></polygon><polygon points="177.48 143.8 185.39 139.23 185.39 174.95 177.48 179.53 177.48 143.8" style="fill:#00ADB5"></polygon><polygon points="65.68 171.47 73.6 166.89 73.6 218.75 65.68 223.33 65.68 171.47" style="fill:#00ADB5"></polygon><polygon points="79.66 175.19 87.57 170.61 87.57 189.29 79.66 193.86 79.66 175.19" style="fill:#00ADB5"></polygon><polygon points="93.63 142.82 101.55 138.25 101.55 154.54 93.63 159.12 93.63 142.82" style="fill:#00ADB5"></polygon><polygon points="107.6 147.26 115.52 142.69 115.52 183.74 107.6 188.31 107.6 147.26" style="fill:#00ADB5"></polygon><polygon points="121.58 155.87 129.5 151.3 129.5 168.65 121.58 173.23 121.58 155.87" style="fill:#00ADB5"></polygon><polygon points="135.55 110.84 143.47 106.27 143.47 148.67 135.55 153.24 135.55 110.84" style="fill:#00ADB5"></polygon><polygon points="149.53 151.9 157.44 147.33 157.44 167.75 149.53 172.32 149.53 151.9" style="fill:#00ADB5"></polygon><polygon points="163.5 110.63 171.42 106.06 171.42 152.24 163.5 156.81 163.5 110.63" style="fill:#00ADB5"></polygon><polygon points="177.48 127.72 185.39 123.15 185.39 139.23 177.48 143.8 177.48 127.72" style="fill:#00ADB5"></polygon><g style="opacity:0.4"><polygon points="65.68 171.47 73.6 166.89 73.6 218.75 65.68 223.33 65.68 171.47" style="fill:#fff"></polygon><polygon points="79.66 175.19 87.57 170.61 87.57 189.29 79.66 193.86 79.66 175.19" style="fill:#fff"></polygon><polygon points="93.63 142.82 101.55 138.25 101.55 154.54 93.63 159.12 93.63 142.82" style="fill:#fff"></polygon><polygon points="107.6 147.26 115.52 142.69 115.52 183.74 107.6 188.31 107.6 147.26" style="fill:#fff"></polygon><polygon points="121.58 155.87 129.5 151.3 129.5 168.65 121.58 173.23 121.58 155.87" style="fill:#fff"></polygon><polygon points="135.55 110.84 143.47 106.27 143.47 148.67 135.55 153.24 135.55 110.84" style="fill:#fff"></polygon><polygon points="149.53 151.9 157.44 147.33 157.44 167.75 149.53 172.32 149.53 151.9" style="fill:#fff"></polygon><polygon points="163.5 110.63 171.42 106.06 171.42 152.24 163.5 156.81 163.5 110.63" style="fill:#fff"></polygon><polygon points="177.48 127.72 185.39 123.15 185.39 139.23 177.48 143.8 177.48 127.72" style="fill:#fff"></polygon></g></g></g><g id="freepik--chart-2--inject-2"><g id="freepik--screen-2--inject-2"><path d="M136.5,246.24l.2-.05Z" style="fill:#455a64"></path><path d="M137.11,246.1h0Z" style="fill:#455a64"></path><path d="M137.66,246.11l.2,0Z" style="fill:#455a64"></path><path d="M50.53,387a.8.8,0,0,1-.08-.16A1.19,1.19,0,0,0,50.53,387Z" style="fill:#455a64"></path><path d="M51.28,387.78l-.16-.09Z" style="fill:#455a64"></path><path d="M52.94,387.8l-.23.06Z" style="fill:#455a64"></path><path d="M52.33,388h0Z" style="fill:#455a64"></path><path d="M138.15,246.26l.18.1Z" style="fill:#455a64"></path><path d="M50.86,387.47l-.13-.13Z" style="fill:#455a64"></path><path d="M51.77,387.94l-.19-.05Z" style="fill:#455a64"></path><path d="M50.3,386.42c0-.05,0-.09,0-.15S50.29,386.37,50.3,386.42Z" style="fill:#455a64"></path><path d="M138.89,247a1.28,1.28,0,0,1,.11.2A2,2,0,0,0,138.89,247Z" style="fill:#455a64"></path><path d="M139.24,334.18a7.27,7.27,0,0,1-1.48,4.1,7.29,7.29,0,0,0,1.49-4.1V248.49a.28.28,0,0,0,0-.09.28.28,0,0,1,0,.09Z" style="fill:#455a64"></path><path d="M139.12,247.56l.06.23Z" style="fill:#455a64"></path><path d="M138.56,246.56l.15.15Z" style="fill:#455a64"></path><path d="M51.12,387.69a1.38,1.38,0,0,1-.26-.22A1.38,1.38,0,0,0,51.12,387.69Z" style="fill:#37474f;opacity:0.9"></path><path d="M139.18,247.79a3.86,3.86,0,0,1,0,.61A3.86,3.86,0,0,0,139.18,247.79Z" style="fill:#37474f;opacity:0.9"></path><path d="M135.86,340.05,53.58,387.51a4,4,0,0,1-.64.29,4.5,4.5,0,0,0,.65-.29l82.27-47.45a6.51,6.51,0,0,0,1.9-1.78A6.34,6.34,0,0,1,135.86,340.05Z" style="fill:#37474f;opacity:0.9"></path><path d="M52.71,387.86a2.62,2.62,0,0,1-.38.09A2.62,2.62,0,0,0,52.71,387.86Z" style="fill:#37474f;opacity:0.9"></path><path d="M50.73,387.34a2.36,2.36,0,0,1-.2-.31A2.36,2.36,0,0,0,50.73,387.34Z" style="fill:#37474f;opacity:0.9"></path><path d="M51.58,387.89a1.33,1.33,0,0,1-.3-.11A1.33,1.33,0,0,0,51.58,387.89Z" style="fill:#37474f;opacity:0.9"></path><path d="M52.1,388h-.33A1.82,1.82,0,0,0,52.1,388Z" style="fill:#37474f;opacity:0.9"></path><path d="M139,247.19a3.22,3.22,0,0,1,.12.37A3.22,3.22,0,0,0,139,247.19Z" style="fill:#37474f;opacity:0.9"></path><path d="M136.7,246.19a2.17,2.17,0,0,1,.41-.09A2.17,2.17,0,0,0,136.7,246.19Z" style="fill:#37474f;opacity:0.9"></path><path d="M138.71,246.71a1.92,1.92,0,0,1,.18.28A2.68,2.68,0,0,0,138.71,246.71Z" style="fill:#37474f;opacity:0.9"></path><path d="M50.45,386.87a3,3,0,0,1-.15-.45A3,3,0,0,0,50.45,386.87Z" style="fill:#37474f;opacity:0.9"></path><path d="M137.86,246.15l.29.11Z" style="fill:#37474f;opacity:0.9"></path><path d="M137.32,246.09a1.88,1.88,0,0,1,.34,0A1.88,1.88,0,0,0,137.32,246.09Z" style="fill:#37474f;opacity:0.9"></path><path d="M138.33,246.36l.23.2Z" style="fill:#37474f;opacity:0.9"></path><path d="M50.25,386.23s0,0,0,0v0Z" style="fill:#37474f;opacity:0.9"></path><path d="M136.45,246.25h0l.05,0Z" style="fill:#37474f;opacity:0.9"></path><path d="M139.23,248.4a3.86,3.86,0,0,0,0-.61l-.06-.23a3.22,3.22,0,0,0-.12-.37,1.28,1.28,0,0,0-.11-.2,1.92,1.92,0,0,0-.18-.28l-.15-.15-.23-.2-.18-.1-.29-.11-.2,0a1.88,1.88,0,0,0-.34,0h-.21a2.17,2.17,0,0,0-.41.09l-.2.05-.05,0a4,4,0,0,0-.6.28L53.58,294a7.5,7.5,0,0,0-3.39,5.87v85.69a3.64,3.64,0,0,0,.07.68v0c0,.06,0,.1,0,.15a3,3,0,0,0,.15.45.8.8,0,0,0,.08.16,2.36,2.36,0,0,0,.2.31l.13.13a1.38,1.38,0,0,0,.26.22l.16.09a1.33,1.33,0,0,0,.3.11l.19.05h.56a2.62,2.62,0,0,0,.38-.09l.23-.06a4,4,0,0,0,.64-.29l82.28-47.46a6.34,6.34,0,0,0,1.9-1.77,7.27,7.27,0,0,0,1.48-4.1V248.49A.28.28,0,0,0,139.23,248.4Z" style="fill:#455a64;opacity:0.8"></path><path d="M138.21,246.29h0l-2.66-1.52a1.79,1.79,0,0,0-.93-.24,3,3,0,0,0-1.5.45L50.84,292.43A7,7,0,0,0,48.43,295l2.74,1.58A6.8,6.8,0,0,1,53.59,294l82.26-47.46a4,4,0,0,1,.6-.28,3.44,3.44,0,0,1,.06.68v85.68a7.53,7.53,0,0,1-3.38,5.88L53.59,384.37v3.14l82.26-47.46a7.46,7.46,0,0,0,3.39-5.87V248.5A2.32,2.32,0,0,0,138.21,246.29Z" style="fill:#37474f;opacity:0.5"></path><path d="M53.59,384.37v3.14a3.14,3.14,0,0,1-1.52.46,1.76,1.76,0,0,1-.89-.23l-2.71-1.55a2.35,2.35,0,0,1-1-2.2V298.3a7,7,0,0,1,1-3.32l2.74,1.58a6.89,6.89,0,0,0-1,3.31v85.68a4.68,4.68,0,0,0,0,.67,3.09,3.09,0,0,0,.59-.27Z" style="fill:#37474f;opacity:0.9"></path><path d="M135.85,246.54l-68.2,40.08-8.9,5.12L54.3,294.3a6.69,6.69,0,0,0-3,3.48,5.75,5.75,0,0,0-.45,2.27v7.7l-.61,77.8-.6-77.8v-7.7a6.88,6.88,0,0,1,.53-2.73A8.7,8.7,0,0,1,51.52,295a6.88,6.88,0,0,1,2.15-1.74l4.45-2.58L67,285.49Z" style="fill:#fff;opacity:0.4"></path><ellipse cx="94.39" cy="318.27" rx="39.83" ry="22.53" transform="translate(-235.43 280.51) rotate(-66.95)" style="fill:#00ADB5"></ellipse><ellipse cx="94.39" cy="318.27" rx="39.83" ry="22.53" transform="translate(-235.43 280.51) rotate(-66.95)" style="fill:#fafafa"></ellipse><path d="M109.64,337.45c6.49-10,10.7-22.65,10.7-34.16,0-19.11-11.62-27.89-25.95-19.62v34.6Z" style="fill:#00ADB5"></path><path d="M109.64,337.45c6.49-10,10.7-22.65,10.7-34.16,0-19.11-11.62-27.89-25.95-19.62v34.6Z" style="fill:#fff;opacity:0.4"></path><path d="M65.73,310.59c-.16-1.47-.65-5.79-.93-8.33-.13-1.12-.89-1.56-1.79-1h0l-.48.28-4.75,2.74-.48.28h0a4.28,4.28,0,0,0-1.79,3.1l-.93,9.4c-.06.58.19,1,.58.87a1.71,1.71,0,0,0,1-1.42l.8-8.59a.58.58,0,0,1,.24-.43h0c.15-.08.26,0,.24.23L56.29,320.5l1.49-.86v8c0,.71.44,1,1,.73h0a2.33,2.33,0,0,0,1-1.86v-8l.85-.5v8c0,.72.44,1.05,1,.73h0a2.34,2.34,0,0,0,1-1.86v-8L64,316,62.9,304.52a.56.56,0,0,1,.24-.51h0c.12-.08.23,0,.25.14l.79,7.66c.07.57.51.73,1,.32A2,2,0,0,0,65.73,310.59Z" style="fill:#37474f"></path><path d="M58.22,300.32a4.63,4.63,0,0,1,1.94-3.71c1.07-.62,1.93,0,1.93,1.47a4.64,4.64,0,0,1-1.93,3.7C59.08,302.4,58.22,301.74,58.22,300.32Z" style="fill:#37474f"></path><path d="M126.74,310.36a4.66,4.66,0,0,1,1.94-3.71c1.07-.62,1.94,0,1.94,1.47a4.65,4.65,0,0,1-1.94,3.7C127.61,312.44,126.74,311.78,126.74,310.36Z" style="fill:#37474f"></path><path d="M131.54,311.26l-.48.28-4.75,2.74-.49.28-.16.09a3.35,3.35,0,0,0-1.4,2.68h0v9.22c0,.58.35.84.78.59h0a1.88,1.88,0,0,0,.78-1.49v-7.91a.57.57,0,0,1,.25-.46h0c.13-.08.24,0,.24.18v20.26c0,.71.43,1,1,.73h0a2.32,2.32,0,0,0,1-1.86V326.33a1,1,0,0,1,.43-.82h0c.24-.14.43,0,.43.32V336.1c0,.72.44,1,1,.74h0a2.36,2.36,0,0,0,1-1.87V314.72a.56.56,0,0,1,.24-.46h0c.13-.08.24,0,.24.18v7.91c0,.58.35.84.78.59h0a1.89,1.89,0,0,0,.79-1.5v-9.22h0c0-1-.63-1.5-1.4-1.06Z" style="fill:#37474f"></path><path d="M87.56,341.65a1.07,1.07,0,0,0-.94.58L60.37,335v-4.1a.21.21,0,0,0-.21-.21.21.21,0,0,0-.21.21v4.26a.21.21,0,0,0,.15.2l26.41,7.33a.24.24,0,0,0,0,.08,1.07,1.07,0,1,0,1.07-1.07Z" style="fill:#00ADB5"></path><path d="M87.56,341.65a1.07,1.07,0,0,0-.94.58L60.37,335v-4.1a.21.21,0,0,0-.21-.21.21.21,0,0,0-.21.21v4.26a.21.21,0,0,0,.15.2l26.41,7.33a.24.24,0,0,0,0,.08,1.07,1.07,0,1,0,1.07-1.07Z" style="fill:#fff;opacity:0.25"></path><path d="M128.74,299.83l-23-6.38a.14.14,0,0,0,0-.07,1.07,1.07,0,1,0-1.07,1.07,1.06,1.06,0,0,0,.94-.59l22.83,6.34v4a.22.22,0,0,0,.21.21.21.21,0,0,0,.21-.21V300A.22.22,0,0,0,128.74,299.83Z" style="fill:#37474f"></path></g></g><g id="freepik--chart-1--inject-2"><g id="freepik--screen-1--inject-2"><path d="M340.14,96.53a2.35,2.35,0,0,0-1-2.21h0l-2.66-1.52h0A2.35,2.35,0,0,0,334,93L155.85,195.88a7.5,7.5,0,0,0-3.39,5.87v145a2.37,2.37,0,0,0,1,2.2h0l2.72,1.55h0a2.37,2.37,0,0,0,2.4-.23L336.76,247.4a7.5,7.5,0,0,0,3.39-5.87Z" style="fill:#00ADB5;opacity:0.1"></path><path d="M336.75,94.58,158.58,197.45a7.47,7.47,0,0,0-3.38,5.87v145c0,2.16,1.51,3,3.39,2L336.76,247.4a7.5,7.5,0,0,0,3.39-5.87v-145C340.14,94.37,338.63,93.49,336.75,94.58Z" style="fill:#00ADB5;opacity:0.1"></path><path d="M340.14,96.53v145a7.49,7.49,0,0,1-3.38,5.87L158.59,350.27c-1.67,1-3.05.38-3.34-1.28a5.26,5.26,0,0,0,.6-.28L334,245.84a7.5,7.5,0,0,0,3.39-5.87V95a3.58,3.58,0,0,0-.06-.68C338.94,93.7,340.14,94.61,340.14,96.53Z" style="fill:#00ADB5;opacity:0.15"></path><path d="M336.75,94.58l-75.32,43.88L226,159.18l-35.54,20.6-17.77,10.29-8.9,5.13-4.45,2.56a6.62,6.62,0,0,0-3,3.48,5.75,5.75,0,0,0-.45,2.27v18l0,20.53-.12,41.08-.18,4.36-.27,60.86-.28-60.86-.18-4.36L154.63,242l0-20.53v-18a6.93,6.93,0,0,1,.53-2.74,8.73,8.73,0,0,1,1.42-2.36,8.41,8.41,0,0,1,1-1,8.63,8.63,0,0,1,1.15-.75l4.45-2.58L172,189l17.81-10.24,35.6-20.48,35.68-20.37Z" style="fill:#fff"></path><path d="M323.84,117.34l-8.9,5.14-.66.38-8.9,5.14-.66.38-8.91,5.14-.65.38L286.25,139l-.66.38-8.9,5.14-.66.38-8.9,5.14-.66.38-8.91,5.14-.66.38-8.43,4.88-.47.27-.66.38-8.9,5.13-.66.39-8.91,5.14-.65.38-9.57,5.52-8.9,5.14-.66.38-8,4.6-.93.54-.66.38-8.91,5.14-.66.38-8.9,5.15-.66.37-8.9,5.14-.66.38v98.74L324,216l.49-.29V117ZM180.4,298l-8.9,5.14v-13.1l8.9-5.14Zm0-14-8.9,5.14v-13.1l8.9-5.14Zm0-14-8.9,5.13v-13.1l8.9-5.13Zm0-14-8.9,5.15v-13.1l8.9-5.15Zm0-14-8.9,5.14v-13.1l8.9-5.14Zm0-14-8.9,5.13v-13.1l8.9-5.13Zm0-14-8.9,5.15v-13.1l8.9-5.15ZM190,292.49l-8.9,5.14v-13.1l8.9-5.14Zm0-14-8.9,5.14v-13.1l8.9-5.14Zm0-14-8.9,5.14v-13.1l8.9-5.14Zm0-14-8.9,5.14v-13.1l8.9-5.14Zm0-14-8.9,5.14v-13.1l8.9-5.14Zm0-14-8.9,5.14v-13.1l8.9-5.14Zm0-14-8.9,5.13v-13.1l8.9-5.13ZM199.53,287l-8.91,5.13V279l8.91-5.14Zm0-14-8.91,5.14V265l8.91-5.14Zm0-14-8.91,5.14v-13.1l8.91-5.14Zm0-14-8.91,5.14v-13.1l8.91-5.14Zm0-14-8.91,5.14v-13.1l8.91-5.14Zm0-14-8.91,5.14v-13.1l8.91-5.14Zm0-14-8.91,5.14v-13.1l8.91-5.14Zm9.56,78.35-8.9,5.15v-13.1l8.9-5.15Zm0-14-8.9,5.14v-13.1l8.9-5.14Zm0-14-8.9,5.14v-13.1l8.9-5.14Zm0-14-8.9,5.14v-13.1l8.9-5.14Zm0-14-8.9,5.14v-13.1l8.9-5.14Zm0-14-8.9,5.14v-13.1l8.9-5.14Zm0-14-8.9,5.14v-13.1l8.9-5.14Zm9.56,78.36-8.9,5.13V268l8.9-5.13Zm0-14-8.9,5.14V254l8.9-5.14Zm0-14-8.9,5.15V240l8.9-5.15Zm0-14-8.9,5.13V226l8.9-5.13Zm0-14-8.9,5.14v-13.1l8.9-5.14Zm0-14-8.9,5.14v-13.1l8.9-5.14Zm0-14-8.9,5.14v-13.1l8.9-5.14Zm9.57,78.35-8.91,5.15v-13.1l8.91-5.15Zm0-14-8.91,5.14V248.47l8.91-5.14Zm0-14-8.91,5.13V234.49l8.91-5.14Zm0-14-8.91,5.14v-13.1l8.91-5.15Zm0-14-8.91,5.14V206.52l8.91-5.13Zm0-14-8.91,5.14v-13.1l8.91-5.14Zm0-14-8.91,5.14v-13.1l8.91-5.15Zm9.56,78.35L228.87,270v-13.1l8.91-5.13Zm0-14-8.91,5.14V243l8.91-5.14Zm0-14-8.91,5.15V229l8.91-5.15Zm0-14-8.91,5.13V215l8.91-5.13Zm0-14-8.91,5.14V201l8.91-5.14Zm0-14-8.91,5.15V187l8.91-5.15Zm0-14-8.91,5.13V173l8.91-5.13Zm9.56,78.35-8.9,5.15v-13.1l8.9-5.15Zm0-14-8.9,5.14v-13.1l8.9-5.14Zm0-14-8.9,5.13v-13.1l8.9-5.13Zm0-14-8.9,5.15v-13.1l8.9-5.15Zm0-14-8.9,5.14v-13.1l8.9-5.14Zm0-14-8.9,5.13V181.51l8.9-5.14Zm0-14-8.9,5.15v-13.1l8.9-5.15Zm9.56,78.36L248,259v-13.1l8.9-5.14Zm0-14L248,245V231.9l8.9-5.14Zm0-14L248,231v-13.1l8.9-5.15Zm0-14L248,217v-13.1l8.9-5.13Zm0-14-8.9,5.14V190l8.9-5.15Zm0-14-8.9,5.15V176l8.9-5.15Zm0-14L248,175.1V162l8.9-5.13Zm9.57,78.35-8.91,5.14v-13.1l8.91-5.14Zm0-14-8.91,5.14v-13.1l8.91-5.14Zm0-14-8.91,5.14V212.4l8.91-5.13Zm0-14-8.91,5.15v-13.1l8.91-5.15Zm0-14-8.91,5.14v-13.1l8.91-5.14Zm0-14-8.91,5.13v-13.1l8.91-5.13Zm0-14-8.91,5.15v-13.1l8.91-5.15ZM276,242.8l-8.9,5.14v-13.1l8.9-5.14Zm0-14-8.9,5.14v-13.1l8.9-5.14Zm0-14-8.9,5.14v-13.1l8.9-5.14Zm0-14-8.9,5.14V192.9l8.9-5.14Zm0-14-8.9,5.14v-13.1l8.9-5.14Zm0-14-8.9,5.14v-13.1l8.9-5.14Zm0-14-8.9,5.14V151l8.9-5.14Zm9.56,78.36-8.9,5.13v-13.1l8.9-5.13Zm0-14-8.9,5.14v-13.1l8.9-5.14Zm0-14-8.9,5.14v-13.1l8.9-5.14Zm0-14-8.9,5.14v-13.1l8.9-5.14Zm0-14-8.9,5.14V173.4l8.9-5.14Zm0-14-8.9,5.14v-13.1l8.9-5.14Zm0-14-8.9,5.15V145.44l8.9-5.14Zm9.57,78.35-8.91,5.15V223.8l8.91-5.14Zm0-14-8.91,5.14v-13.1l8.91-5.14Zm0-14-8.91,5.14v-13.1l8.91-5.14Zm0-14L286.25,195v-13.1l8.91-5.14Zm0-14L286.25,181v-13.1l8.91-5.14Zm0-14L286.25,167V153.9l8.91-5.14Zm0-14L286.25,153v-13.1l8.91-5.14Zm9.56,78.36-8.91,5.13v-13.1l8.91-5.13Zm0-14-8.91,5.14V204.3l8.91-5.14Zm0-14-8.91,5.15v-13.1l8.91-5.15Zm0-14-8.91,5.13v-13.1l8.91-5.13Zm0-14-8.91,5.14v-13.1l8.91-5.14Zm0-14-8.91,5.14v-13.1l8.91-5.14Zm0-14-8.91,5.14V134.4l8.91-5.14Zm9.56,78.35-8.9,5.15v-13.1l8.9-5.15Zm0-14-8.9,5.15v-13.1l8.9-5.15Zm0-14-8.9,5.13v-13.1l8.9-5.13Zm0-14-8.9,5.14v-13.1l8.9-5.15Zm0-14-8.9,5.14v-13.1l8.9-5.14Zm0-14-8.9,5.14v-13.1l8.9-5.14Zm0-14-8.9,5.15v-13.1l8.9-5.15Zm9.56,78.36-8.9,5.14v-13.1l8.9-5.14Zm0-14-8.9,5.13V193.26l8.9-5.14Zm0-14-8.9,5.15v-13.1l8.9-5.15Zm0-14-8.9,5.13v-13.1l8.9-5.13Zm0-14-8.9,5.14v-13.1l8.9-5.14Zm0-14-8.9,5.15v-13.1l8.9-5.15Zm0-14-8.9,5.13v-13.1l8.9-5.13Z" style="fill:#fff;opacity:0.30000000000000004"></path><polygon points="324.5 215.69 324.5 122.61 309.14 158.62 293.77 169.25 278.4 187.58 263.04 193.65 247.67 212.09 232.3 208.94 216.94 224.12 201.57 246.63 186.2 255.5 170.84 283.84 170.84 304.41 324.5 215.69" style="fill:#00ADB5"></polygon><polygon points="324.5 215.69 324.5 122.61 309.14 158.62 293.77 169.25 278.4 187.58 263.04 193.65 247.67 212.09 232.3 208.94 216.94 224.12 201.57 246.63 186.2 255.5 170.84 283.84 170.84 304.41 324.5 215.69" style="fill:#fff;opacity:0.7000000000000001"></polygon><path d="M170.84,316.17a.42.42,0,0,1-.37-.21.42.42,0,0,1,.16-.57l153.66-88.72a.42.42,0,1,1,.42.73L171.05,316.12A.54.54,0,0,1,170.84,316.17Z" style="fill:#455a64"></path><path d="M170.84,319.57a.42.42,0,0,1-.42-.43v-6.78a.42.42,0,0,1,.42-.42.42.42,0,0,1,.42.42v6.78A.42.42,0,0,1,170.84,319.57Z" style="fill:#455a64"></path><path d="M186.2,310.69a.42.42,0,0,1-.42-.42v-6.78a.43.43,0,1,1,.85,0v6.78A.42.42,0,0,1,186.2,310.69Z" style="fill:#455a64"></path><path d="M201.57,301.82a.42.42,0,0,1-.42-.42v-6.79a.42.42,0,1,1,.84,0v6.79A.42.42,0,0,1,201.57,301.82Z" style="fill:#455a64"></path><path d="M216.94,293a.42.42,0,0,1-.42-.42v-6.79a.42.42,0,0,1,.42-.42.42.42,0,0,1,.42.42v6.79A.42.42,0,0,1,216.94,293Z" style="fill:#455a64"></path><path d="M232.3,284.08a.42.42,0,0,1-.42-.42v-6.79a.43.43,0,0,1,.85,0v6.79A.42.42,0,0,1,232.3,284.08Z" style="fill:#455a64"></path><path d="M247.67,275.21a.42.42,0,0,1-.42-.43V268a.42.42,0,0,1,.84,0v6.78A.42.42,0,0,1,247.67,275.21Z" style="fill:#455a64"></path><path d="M263,266.33a.42.42,0,0,1-.42-.42v-6.78a.41.41,0,0,1,.42-.42.42.42,0,0,1,.42.42v6.78A.42.42,0,0,1,263,266.33Z" style="fill:#455a64"></path><path d="M278.4,257.46A.42.42,0,0,1,278,257v-6.78a.43.43,0,1,1,.85,0V257A.42.42,0,0,1,278.4,257.46Z" style="fill:#455a64"></path><path d="M293.77,248.59a.42.42,0,0,1-.42-.42v-6.79a.42.42,0,1,1,.84,0v6.79A.42.42,0,0,1,293.77,248.59Z" style="fill:#455a64"></path><path d="M309.14,239.72a.42.42,0,0,1-.43-.42v-6.79a.43.43,0,0,1,.85,0v6.79A.42.42,0,0,1,309.14,239.72Z" style="fill:#455a64"></path><path d="M324.5,230.85a.42.42,0,0,1-.42-.43v-6.78a.43.43,0,0,1,.85,0v6.78A.43.43,0,0,1,324.5,230.85Z" style="fill:#455a64"></path><polygon points="324.5 215.69 324.5 147.55 309.14 178.2 293.77 182.06 278.4 197.94 263.04 203.03 247.67 217.61 232.3 215.29 216.94 230.17 201.57 254.61 186.2 265.9 170.84 289.64 170.84 304.41 324.5 215.69" style="fill:#00ADB5"></polygon><polygon points="324.5 215.69 324.5 147.55 309.14 178.2 293.77 182.06 278.4 197.94 263.04 203.03 247.67 217.61 232.3 215.29 216.94 230.17 201.57 254.61 186.2 265.9 170.84 289.64 170.84 304.41 324.5 215.69" style="fill:#fff;opacity:0.4"></polygon><polygon points="170.84 304.41 324.5 215.69 324.5 167.73 308.71 194.68 293.77 198.12 278.83 222.32 263.04 223.66 248.18 236.39 232.3 228.89 216.94 240.89 201.57 266.51 186.2 274.78 170.84 294.56 170.84 304.41" style="fill:#00ADB5"></polygon><path d="M186.19,295.55l15.38-8.88v-40L186.2,255.5Zm30.75-17.75,15.36-8.88v-60l-15.36,15.18Zm30.73-17.75L263,251.18V193.65l-15.37,18.44Zm30.73-17.74,15.37-8.87V169.25L278.4,187.58Zm30.74-83.69v65.94l15.36-8.87V122.61Z" style="fill:#00ADB5;opacity:0.2"></path><path d="M247.67,236.15v23.9l6.07-3.5,9.3-5.37V223.66l-14.86,12.73ZM186.2,274.79v20.76l15.38-8.88V266.52l-15.37,8.26Zm30.74,3,5.12-3,10.24-5.92v-40l-15.36,12ZM309.14,194v30.61l15.36-8.87v-48Zm-30.74,28.4v20l15.37-8.87V198.12l-14.94,24.2Z" style="opacity:0.15"></path><path d="M189.42,316.32,183,320a1.74,1.74,0,0,0-.74,1.4v.15c0,.54.33.79.74.55l6.43-3.71a1.77,1.77,0,0,0,.74-1.41v-.14C190.16,316.34,189.83,316.09,189.42,316.32Z" style="fill:#37474f"></path><path d="M204.79,307.45l-6.44,3.72a1.76,1.76,0,0,0-.73,1.4v.15c0,.54.33.79.73.55l6.44-3.71a1.77,1.77,0,0,0,.73-1.41V308C205.52,307.46,205.2,307.22,204.79,307.45Z" style="fill:#37474f"></path><path d="M220.16,298.58l-6.44,3.72a1.74,1.74,0,0,0-.74,1.4v.15c0,.54.33.79.74.55l6.44-3.72a1.76,1.76,0,0,0,.73-1.4v-.15C220.89,298.59,220.56,298.34,220.16,298.58Z" style="fill:#37474f"></path><path d="M235.52,289.71l-6.43,3.71a1.77,1.77,0,0,0-.74,1.41V295c0,.54.33.79.74.56l6.43-3.72a1.74,1.74,0,0,0,.74-1.4v-.15C236.26,289.72,235.93,289.47,235.52,289.71Z" style="fill:#37474f"></path><path d="M250.89,280.83l-6.44,3.72a1.78,1.78,0,0,0-.73,1.41v.14c0,.54.33.79.73.56l6.44-3.72a1.73,1.73,0,0,0,.73-1.4v-.15C251.62,280.85,251.3,280.6,250.89,280.83Z" style="fill:#37474f"></path><path d="M266.26,272l-6.44,3.72a1.74,1.74,0,0,0-.74,1.4v.15c0,.54.33.79.74.56l6.44-3.72a1.78,1.78,0,0,0,.73-1.41v-.14C267,272,266.66,271.73,266.26,272Z" style="fill:#37474f"></path><path d="M281.62,263.09l-6.44,3.72a1.76,1.76,0,0,0-.73,1.4v.15c0,.54.33.79.73.55l6.44-3.71a1.77,1.77,0,0,0,.74-1.41v-.14C282.36,263.1,282,262.86,281.62,263.09Z" style="fill:#37474f"></path><path d="M297,254.22l-6.44,3.72a1.76,1.76,0,0,0-.73,1.4v.15c0,.54.33.79.73.55l6.44-3.72a1.73,1.73,0,0,0,.73-1.4v-.15C297.72,254.23,297.4,254,297,254.22Z" style="fill:#37474f"></path><path d="M312.36,245.35l-6.44,3.71a1.77,1.77,0,0,0-.74,1.41v.14c0,.55.33.79.74.56l6.44-3.72a1.76,1.76,0,0,0,.73-1.4v-.15C313.09,245.36,312.76,245.11,312.36,245.35Z" style="fill:#37474f"></path><path d="M186.2,246.43a.42.42,0,0,1-.42-.42V221.34a.43.43,0,0,1,.85,0V246A.42.42,0,0,1,186.2,246.43Z" style="fill:#00ADB5"></path><path d="M184.67,222.23a2.08,2.08,0,0,1-1.1-.29,2.8,2.8,0,0,1-1.21-2.58,7.93,7.93,0,0,1,3.63-6.3h0a2.5,2.5,0,0,1,4.06,2.34,7.93,7.93,0,0,1-3.63,6.3A3.55,3.55,0,0,1,184.67,222.23Zm3.06-8.85a2.71,2.71,0,0,0-1.31.41h0a7.11,7.11,0,0,0-3.22,5.57A1.68,1.68,0,0,0,186,221a7.09,7.09,0,0,0,3.22-5.57,2,2,0,0,0-.79-1.85A1.41,1.41,0,0,0,187.73,213.38Zm-1.53.05h0Z" style="fill:#00ADB5"></path><path d="M232.3,199.87a.42.42,0,0,1-.42-.42V189.23a.43.43,0,0,1,.85,0v10.22A.42.42,0,0,1,232.3,199.87Z" style="fill:#00ADB5"></path><path d="M230.77,190.12a2.18,2.18,0,0,1-1.1-.29,2.8,2.8,0,0,1-1.21-2.58,7.92,7.92,0,0,1,3.63-6.3h0a2.5,2.5,0,0,1,4.06,2.34,8,8,0,0,1-3.63,6.3A3.55,3.55,0,0,1,230.77,190.12Zm3.06-8.85a2.71,2.71,0,0,0-1.31.41h0a7.09,7.09,0,0,0-3.22,5.57,1.68,1.68,0,0,0,2.79,1.61,7.09,7.09,0,0,0,3.22-5.57,2,2,0,0,0-.79-1.85A1.31,1.31,0,0,0,233.83,181.27Zm-1.53,0h0Z" style="fill:#00ADB5"></path><path d="M278.4,178.51a.42.42,0,0,1-.42-.42V161.83a.43.43,0,0,1,.85,0v16.26A.42.42,0,0,1,278.4,178.51Z" style="fill:#00ADB5"></path><path d="M276.87,162.73a2.18,2.18,0,0,1-1.1-.29,2.8,2.8,0,0,1-1.21-2.58,7.9,7.9,0,0,1,3.63-6.3,2.5,2.5,0,0,1,4.06,2.34,7.93,7.93,0,0,1-3.64,6.3A3.49,3.49,0,0,1,276.87,162.73Zm3.06-8.85a2.67,2.67,0,0,0-1.32.41,7.11,7.11,0,0,0-3.21,5.57,1.68,1.68,0,0,0,2.79,1.61,7.09,7.09,0,0,0,3.22-5.57,2,2,0,0,0-.79-1.85A1.31,1.31,0,0,0,279.93,153.88Z" style="fill:#00ADB5"></path><path d="M170.86,271.35a.8.8,0,0,1-.4-.11.83.83,0,0,1-.34-1.14l12.33-22.76a1,1,0,0,1,.32-.33L201,236.5l15.26-22.35.1-.12,15.37-15.18a.83.83,0,0,1,.76-.23l14.88,3,15-18a.84.84,0,0,1,.34-.25l15.16-6,15.23-18.17a.8.8,0,0,1,.17-.15l11.94-8.25L320.5,115a.85.85,0,0,1,1.11-.45.84.84,0,0,1,.44,1.11l-15.36,36a.84.84,0,0,1-.3.37l-12.05,8.32-15.29,18.25a.81.81,0,0,1-.34.24l-15.16,6-15.23,18.27a.85.85,0,0,1-.82.29l-14.92-3.06-15,14.81-15.32,22.44a.77.77,0,0,1-.28.26l-18.17,10.49L171.6,270.9A.83.83,0,0,1,170.86,271.35Z" style="fill:#fff"></path><path d="M322.45,122.33a.85.85,0,0,1-.85-.85v-6l-5.09,3a.85.85,0,0,1-1.15-.31.84.84,0,0,1,.3-1.15l6.36-3.7a.86.86,0,0,1,.85,0,.84.84,0,0,1,.42.73v7.51A.85.85,0,0,1,322.45,122.33Z" style="fill:#fff"></path></g></g><g id="freepik--Icon--inject-2"><g id="freepik--money-sign--inject-2"><polygon points="245.59 84.29 240.78 81.5 250.1 73.55 254.92 76.33 245.59 84.29" style="fill:#00ADB5"></polygon><path d="M248.56,86.12c-2.47-1.74-6.75-.42-10.37.72-.87.29-1.66.55-2.38.77a4.44,4.44,0,0,0-.35,1.68c0,2.81,2.38,2,7.55.34a37.66,37.66,0,0,1,5.35-1.41c.16,1.43,1.15,2.73,5,.69Z" style="fill:#00ADB5"></path><polygon points="236.62 122.67 231.8 119.89 231.8 114.2 236.62 116.99 236.62 122.67" style="fill:#00ADB5"></polygon><path d="M244.78,101.07c0,2.26-1.7,4.28-4.22,5.74-4,2.34-5.58.44-5.92-1.42l-.85-.49a9.06,9.06,0,0,0,2-.87,8.57,8.57,0,0,0,3.93-4.15C242.64,98.9,244.78,98.52,244.78,101.07Z" style="fill:#00ADB5"></path><path d="M226.86,115a3.2,3.2,0,0,0-1.76-.43c-.1-.29-.18-.58-.26-.9L220,110.9a6,6,0,0,0,2.7,4.12h0l4.81,2.78A2.26,2.26,0,0,0,226.86,115Z" style="fill:#00ADB5"></path><path d="M243,89.63c-5.17,1.7-7.55,2.47-7.55-.34a4.44,4.44,0,0,1,.35-1.68c-3.53,1.09-5.17,1.23-5.17-1.1,0-1.72,1.16-3.83,4.35-5.69,3.41-2,5.31-1.51,5.79.68l9.32-8c0-.12-.09-.23-.13-.35a6.1,6.1,0,0,0,1.65-.63l-3.84-2.29-.37-.22-.06,0h0a6.54,6.54,0,0,0-3.66-.6,16.08,16.08,0,0,0-4.82,1.33v-.1l4.82-2.81-4.82-2.78h0L235.6,67l-4.42,2.57h0v5.69c-6.53,4.75-10.61,11-10.61,17.68,0,3.06.83,4.8,2.16,5.68h0l.07,0,.35.2,4,2.27a3,3,0,0,0-.24-1.82,22.8,22.8,0,0,0,3.78-.82c4.9-1.48,9.25-3.81,9.25-.18a4.58,4.58,0,0,1-.29,1.6c3-1,5.11-1.36,5.11,1.19,0,2.26-1.7,4.28-4.22,5.74-4,2.34-5.58.44-5.92-1.42h0l-.85-.49-4-2.3-9.8,8.3,4.82,2.79a8.8,8.8,0,0,0,.74,2,15.57,15.57,0,0,0,6.22-1.53v2.3l7.62-1v-5.68c6.6-4.87,11.15-11.42,11.15-18.27a9.35,9.35,0,0,0-.54-3.44A26.89,26.89,0,0,0,243,89.63Z" style="fill:#00ADB5"></path><path d="M243,89.63c-5.17,1.7-7.55,2.47-7.55-.34a4.44,4.44,0,0,1,.35-1.68c-3.53,1.09-5.17,1.23-5.17-1.1,0-1.72,1.16-3.83,4.35-5.69,3.41-2,5.31-1.51,5.79.68l9.32-8c0-.12-.09-.23-.13-.35a6.1,6.1,0,0,0,1.65-.63l-3.84-2.29-.37-.22-.06,0h0a6.54,6.54,0,0,0-3.66-.6,16.08,16.08,0,0,0-4.82,1.33v-.1l4.82-2.81-4.82-2.78h0L235.6,67l-4.42,2.57h0v5.69c-6.53,4.75-10.61,11-10.61,17.68,0,3.06.83,4.8,2.16,5.68h0l.07,0,.35.2,4,2.27a3,3,0,0,0-.24-1.82,22.8,22.8,0,0,0,3.78-.82c4.9-1.48,9.25-3.81,9.25-.18a4.58,4.58,0,0,1-.29,1.6c3-1,5.11-1.36,5.11,1.19,0,2.26-1.7,4.28-4.22,5.74-4,2.34-5.58.44-5.92-1.42h0l-.85-.49-4-2.3-9.8,8.3,4.82,2.79a8.8,8.8,0,0,0,.74,2,15.57,15.57,0,0,0,6.22-1.53v2.3l7.62-1v-5.68c6.6-4.87,11.15-11.42,11.15-18.27a9.35,9.35,0,0,0-.54-3.44A26.89,26.89,0,0,0,243,89.63Z" style="fill:#fff;opacity:0.4"></path><path d="M250,88.06a26.89,26.89,0,0,0-7,1.57c-5.17,1.7-7.55,2.47-7.55-.34a4.44,4.44,0,0,1,.35-1.68,9.07,9.07,0,0,1,4-4c3.41-2,5.31-1.5,5.79.69l9.32-8a5.46,5.46,0,0,0-5.41-4.15,14.51,14.51,0,0,0-5.82,1.36V67.85l-4.82,2.81L236,72.32V78c-6.53,4.76-10.61,11-10.61,17.68a9.9,9.9,0,0,0,.58,3.66c1.44,3.61,5.39,3.11,9.55,1.89,1.46-.44,2.88-.95,4.15-1.36,3-1,5.11-1.36,5.11,1.19,0,2.26-1.7,4.28-4.22,5.74-4,2.34-5.58.44-5.92-1.42l-9.8,8.3a8.8,8.8,0,0,0,.74,2c1.28,2.4,3.56,3,6.22,2.7a18.46,18.46,0,0,0,4.82-1.44v5.68l7.62-4.4v-5.72c6.6-4.86,11.15-11.41,11.15-18.27C255.39,89.35,253.05,88,250,88.06Z" style="fill:#00ADB5"></path><g style="opacity:0.2"><path d="M250,88.06a26.89,26.89,0,0,0-7,1.57c-5.17,1.7-7.55,2.47-7.55-.34a4.44,4.44,0,0,1,.35-1.68,9.07,9.07,0,0,1,4-4c3.41-2,5.31-1.5,5.79.69l9.32-8a5.46,5.46,0,0,0-5.41-4.15,14.51,14.51,0,0,0-5.82,1.36V67.85l-4.82,2.81L236,72.32V78c-6.53,4.76-10.61,11-10.61,17.68a9.9,9.9,0,0,0,.58,3.66c1.44,3.61,5.39,3.11,9.55,1.89,1.46-.44,2.88-.95,4.15-1.36,3-1,5.11-1.36,5.11,1.19,0,2.26-1.7,4.28-4.22,5.74-4,2.34-5.58.44-5.92-1.42l-9.8,8.3a8.8,8.8,0,0,0,.74,2c1.28,2.4,3.56,3,6.22,2.7a18.46,18.46,0,0,0,4.82-1.44v5.68l7.62-4.4v-5.72c6.6-4.86,11.15-11.41,11.15-18.27C255.39,89.35,253.05,88,250,88.06Z" style="fill:#fff"></path></g><polygon points="236 78.01 231.18 75.22 231.18 69.54 236 72.32 236 78.01" style="fill:#00ADB5"></polygon><path d="M244.24,112.55,245,112c.24-.19.53-.42.84-.7s.69-.58,1.07-.94.8-.72,1.21-1.15l.64-.66.64-.7c.23-.24.44-.49.65-.75s.43-.51.64-.78c.41-.55.83-1.09,1.2-1.68s.73-1.17,1.08-1.75.63-1.19.88-1.79.46-1.19.68-1.74l.24-.83c0-.13.08-.27.11-.4l.09-.38a12.73,12.73,0,0,0,.26-1.39,10.91,10.91,0,0,0,.13-1.09l0-1,0,1a8,8,0,0,1-.09,1.1,12.11,12.11,0,0,1-.22,1.4l-.07.39c0,.14-.08.27-.11.4-.08.28-.15.56-.23.85-.21.56-.38,1.17-.66,1.76s-.56,1.2-.87,1.81-.68,1.21-1.08,1.78-.81,1.13-1.22,1.68c-.21.27-.44.52-.65.78s-.43.51-.65.75l-.66.7-.66.64c-.42.43-.85.79-1.24,1.14s-.76.64-1.09.91-.62.49-.87.67Z" style="fill:#fff"></path></g></g><g id="freepik--speech-bubble--inject-2"><g id="freepik--speech-bubble--inject-2"><g id="freepik--speech-bubble--inject-2"><path d="M318.69,36.32c-.07-.47-.46-.64-.92-.37L273.71,61.33a1.91,1.91,0,0,0-.66.69L269,59.67a1.85,1.85,0,0,1,.64-.66l44.06-25.38a2.09,2.09,0,0,1,1.87,0l2.21,1.26A2.1,2.1,0,0,1,318.69,36.32Z" style="fill:#f0f0f0"></path><path d="M273.71,102.91a2.06,2.06,0,0,1-1.87,0l-2.22-1.27a2,2,0,0,1-.93-1.6V60.62a1.91,1.91,0,0,1,.29-.95L273.05,62a1.89,1.89,0,0,0-.28.92v39.43C272.77,102.92,273.16,103.23,273.71,102.91Z" style="fill:#e0e0e0"></path><path d="M268.69,73.44l-7.5,7.62a.83.83,0,0,0,.14,1.28c.15.1,4.06,2.38,4.06,2.38l7.38-8.89Z" style="fill:#f0f0f0"></path><path d="M273.29,102.79c-.24,0-.27-.29-.27-.41V83.59l-7.09,1a.59.59,0,0,1-.6-.35.57.57,0,0,1,.12-.63l7.57-7.7v-13a1.82,1.82,0,0,1,.81-1.4l44.06-25.37a.56.56,0,0,1,.29-.1c.25,0,.27.29.27.42V75.92a1.82,1.82,0,0,1-.8,1.4L273.58,102.7a.6.6,0,0,1-.29.09Z" style="fill:#fafafa"></path><path d="M318.18,36.32a.42.42,0,0,1,0,.17V75.92a1.55,1.55,0,0,1-.69,1.19l-44.06,25.38c-.1.05-.16.06-.16.07a.36.36,0,0,1,0-.18V83.3l-.57.08-6.79,1h-.06a.32.32,0,0,1-.29-.21.31.31,0,0,1,.07-.36l7.5-7.62.14-.15V62.94a1.56,1.56,0,0,1,.68-1.18L318,36.38a.34.34,0,0,1,.16-.06m0-.5a.92.92,0,0,0-.42.13L273.71,61.33a2,2,0,0,0-.94,1.61V75.83l-7.49,7.63a.82.82,0,0,0,.57,1.4H266l6.79-1v18.51c0,.42.21.66.52.66a.84.84,0,0,0,.42-.13l44.06-25.37a2.08,2.08,0,0,0,.93-1.62V36.49c0-.42-.21-.67-.51-.67Z" style="fill:#e0e0e0"></path></g><path d="M279.93,69.25a1.23,1.23,0,0,1-.62-2.3l32.1-18.54a1.23,1.23,0,1,1,1.23,2.14L280.55,69.09A1.27,1.27,0,0,1,279.93,69.25Z" style="fill:#e0e0e0"></path><path d="M279.93,76.2a1.23,1.23,0,0,1-.62-2.3l32.1-18.54a1.23,1.23,0,1,1,1.23,2.14L280.55,76A1.27,1.27,0,0,1,279.93,76.2Z" style="fill:#e0e0e0"></path><path d="M279.93,83.15a1.23,1.23,0,0,1-.62-2.3l32.1-18.54a1.23,1.23,0,1,1,1.23,2.14L280.55,83A1.19,1.19,0,0,1,279.93,83.15Z" style="fill:#e0e0e0"></path><path d="M279.93,90.1a1.23,1.23,0,0,1-.62-2.3l32.1-18.54a1.23,1.23,0,1,1,1.23,2.14L280.55,89.93A1.19,1.19,0,0,1,279.93,90.1Z" style="fill:#e0e0e0"></path></g></g><g id="freepik--Arrows--inject-2"><g id="freepik--Arrow--inject-2"><polygon points="178.93 355.37 159.49 328.47 152.4 324.39 132.96 373.74 140.04 377.82 144.07 375.5 144.07 415.4 144.08 415.39 151.15 419.47 151.15 419.48 151.16 419.48 167.82 409.86 167.82 361.79 178.93 355.37" style="fill:#00ADB5"></polygon><polygon points="140.04 377.82 159.49 328.47 178.93 355.37 167.82 361.79 167.82 409.86 151.16 419.48 151.15 419.48 151.15 371.41 140.04 377.82" style="fill:#00ADB5"></polygon><polygon points="140.04 377.82 159.49 328.47 178.93 355.37 167.82 361.79 167.82 409.86 151.16 419.48 151.15 419.48 151.15 371.41 140.04 377.82" style="opacity:0.30000000000000004"></polygon><polygon points="159.49 328.47 152.4 324.39 132.96 373.74 140.04 377.82 159.49 328.47" style="opacity:0.15"></polygon><polygon points="140.04 377.82 151.15 371.41 151.15 419.48 144.07 415.4 144.07 375.5 140.04 377.82" style="opacity:0.45"></polygon></g><g id="freepik--arrow--inject-2"><polygon points="135.55 399.69 116.11 372.79 109.03 368.7 89.58 418.06 96.67 422.14 100.69 419.81 100.69 440.44 100.7 440.44 107.78 444.51 107.78 444.53 107.79 444.52 124.44 434.9 124.44 406.1 135.55 399.69" style="fill:#00ADB5"></polygon><polygon points="96.67 422.14 116.11 372.79 135.55 399.69 124.44 406.1 124.44 434.9 107.79 444.52 107.78 444.53 107.78 415.73 96.67 422.14" style="fill:#00ADB5"></polygon><polygon points="96.67 422.14 116.11 372.79 135.55 399.69 124.44 406.1 124.44 434.9 107.79 444.52 107.78 444.53 107.78 415.73 96.67 422.14" style="fill:#fff;opacity:0.30000000000000004"></polygon><polygon points="116.11 372.79 109.03 368.7 89.58 418.06 96.67 422.14 116.11 372.79" style="fill:#fff;opacity:0.55"></polygon><polygon points="96.67 422.14 107.78 415.73 107.78 444.53 100.69 440.44 100.69 419.81 96.67 422.14" style="fill:#fff;opacity:0.1"></polygon></g></g></svg>